<?xml version="1.0" encoding="utf-8"?>
<!-- Generator: Adobe Illustrator 18.1.1, SVG Export Plug-In . SVG Version: 6.00 Build 0)  -->
<svg version="1.1" id="Ebene_1" xmlns="http://www.w3.org/2000/svg" xmlns:xlink="http://www.w3.org/1999/xlink" x="0px" y="0px"
	 viewBox="0 0 9473.9 8997" enable-background="new 0 0 9473.9 8997" xml:space="preserve">
<polygon fill="#ED1C24" points="7947.5,4165 8047.5,3992 8147.5,4165 "/>
<polygon fill="#ED1C24" points="8147.5,4165 8247.5,3992 8347.5,4165 "/>
<polygon fill="#ED1C24" points="8447.5,3992 8347.5,4165 8247.5,3992 "/>
<polygon fill="#ED1C24" points="8247.5,3992 8147.5,4165 8047.5,3992 "/>
<polygon fill="#ED1C24" points="8347.5,4165 8447.5,3992 8547.5,4165 "/>
<polygon fill="#ED1C24" points="7447.5,5030 7547.5,4857 7647.5,5030 "/>
<polygon fill="#ED1C24" points="7647.5,5030 7747.5,4857 7847.5,5030 "/>
<polygon fill="#ED1C24" points="7847.5,5030 7947.5,4857 8047.5,5030 "/>
<polygon fill="#ED1C24" points="8047.5,5030 8147.5,4857 8247.5,5030 "/>
<polygon fill="#ED1C24" points="8347.5,4857 8247.5,5030 8147.5,4857 "/>
<polygon fill="#ED1C24" points="8147.5,4857 8047.5,5030 7947.5,4857 "/>
<polygon fill="#ED1C24" points="7947.5,4857 7847.5,5030 7747.5,4857 "/>
<polygon fill="#ED1C24" points="7747.5,4857 7647.5,5030 7547.5,4857 "/>
<polygon fill="#ED1C24" points="8247.5,5030 8347.5,4857 8447.5,5030 "/>
<polygon fill="#ED1C24" points="7547.5,4857 7647.5,4684 7747.5,4857 "/>
<polygon fill="#ED1C24" points="7747.5,4857 7847.5,4684 7947.5,4857 "/>
<polygon fill="#ED1C24" points="7947.5,4857 8047.5,4684 8147.5,4857 "/>
<polygon fill="#ED1C24" points="8247.5,4684 8147.5,4857 8047.5,4684 "/>
<polygon fill="#ED1C24" points="8047.5,4684 7947.5,4857 7847.5,4684 "/>
<polygon fill="#ED1C24" points="7847.5,4684 7747.5,4857 7647.5,4684 "/>
<polygon fill="#ED1C24" points="8147.5,4857 8247.5,4684 8347.5,4857 "/>
<polygon fill="#ED1C24" points="8347.5,4857 8447.5,4684 8547.5,4857 "/>
<polygon fill="#ED1C24" points="8647.5,4684 8547.5,4857 8447.5,4684 "/>
<polygon fill="#ED1C24" points="8447.5,4684 8347.5,4857 8247.5,4684 "/>
<polygon fill="#ED1C24" points="7847.5,4684 7947.5,4511 8047.5,4684 "/>
<polygon fill="#ED1C24" points="8047.5,4684 8147.5,4511 8247.5,4684 "/>
<polygon fill="#ED1C24" points="8347.5,4511 8247.5,4684 8147.5,4511 "/>
<polygon fill="#ED1C24" points="8147.5,4511 8047.5,4684 7947.5,4511 "/>
<polygon fill="#ED1C24" points="7947.5,4511 7847.5,4684 7747.5,4511 "/>
<polygon fill="#ED1C24" points="8247.5,4684 8347.5,4511 8447.5,4684 "/>
<polygon fill="#ED1C24" points="8447.5,4684 8547.5,4511 8647.5,4684 "/>
<polygon fill="#ED1C24" points="8747.5,4511 8647.5,4684 8547.5,4511 "/>
<polygon fill="#ED1C24" points="8547.5,4511 8447.5,4684 8347.5,4511 "/>
<polygon fill="#ED1C24" points="7747.5,4511 7847.5,4338 7947.5,4511 "/>
<polygon fill="#ED1C24" points="7947.5,4511 8047.5,4338 8147.5,4511 "/>
<polygon fill="#ED1C24" points="8247.5,4338 8147.5,4511 8047.5,4338 "/>
<polygon fill="#ED1C24" points="8047.5,4338 7947.5,4511 7847.5,4338 "/>
<polygon fill="#ED1C24" points="8147.5,4511 8247.5,4338 8347.5,4511 "/>
<polygon fill="#ED1C24" points="8347.5,4511 8447.5,4338 8547.5,4511 "/>
<polygon fill="#ED1C24" points="8547.5,4511 8647.5,4338 8747.5,4511 "/>
<polygon fill="#ED1C24" points="8647.5,4338 8547.5,4511 8447.5,4338 "/>
<polygon fill="#ED1C24" points="8447.5,4338 8347.5,4511 8247.5,4338 "/>
<polygon fill="#ED1C24" points="7847.5,4338 7947.5,4165 8047.5,4338 "/>
<polygon fill="#ED1C24" points="8047.5,4338 8147.5,4165 8247.5,4338 "/>
<polygon fill="#ED1C24" points="8347.5,4165 8247.5,4338 8147.5,4165 "/>
<polygon fill="#ED1C24" points="8147.5,4165 8047.5,4338 7947.5,4165 "/>
<polygon fill="#ED1C24" points="8247.5,4338 8347.5,4165 8447.5,4338 "/>
<polygon fill="#ED1C24" points="8447.5,4338 8547.5,4165 8647.5,4338 "/>
<polygon fill="#ED1C24" points="8547.5,4165 8447.5,4338 8347.5,4165 "/>
<polygon fill="#ED1C24" points="7547.5,7279 7647.5,7106 7747.5,7279 "/>
<polygon fill="#ED1C24" points="7847.5,7106 7747.5,7279 7647.5,7106 "/>
<polygon fill="#ED1C24" points="7647.5,7106 7747.5,6933 7847.5,7106 "/>
<polygon fill="#ED1C24" points="7947.5,6933 7847.5,7106 7747.5,6933 "/>
<polygon fill="#ED1C24" points="7747.5,6933 7647.5,7106 7547.5,6933 "/>
<polygon fill="#ED1C24" points="7647.5,6760 7747.5,6587 7847.5,6760 "/>
<polygon fill="#ED1C24" points="7747.5,6587 7647.5,6760 7547.5,6587 "/>
<polygon fill="#ED1C24" points="7747.5,6241 7647.5,6414 7547.5,6241 "/>
<polygon fill="#ED1C24" points="7547.5,6241 7647.5,6068 7747.5,6241 "/>
<polygon fill="#ED1C24" points="7847.5,6068 7747.5,6241 7647.5,6068 "/>
<polygon fill="#ED1C24" points="7647.5,6068 7747.5,5895 7847.5,6068 "/>
<polygon fill="#ED1C24" points="7947.5,5895 7847.5,6068 7747.5,5895 "/>
<polygon fill="#ED1C24" points="7747.5,5895 7647.5,6068 7547.5,5895 "/>
<polygon fill="#ED1C24" points="7547.5,5895 7647.5,5722 7747.5,5895 "/>
<polygon fill="#ED1C24" points="7747.5,5895 7847.5,5722 7947.5,5895 "/>
<polygon fill="#ED1C24" points="7847.5,5722 7747.5,5895 7647.5,5722 "/>
<polygon fill="#ED1C24" points="7647.5,5722 7747.5,5549 7847.5,5722 "/>
<polygon fill="#ED1C24" points="7947.5,5549 7847.5,5722 7747.5,5549 "/>
<polygon fill="#ED1C24" points="7747.5,5549 7647.5,5722 7547.5,5549 "/>
<polygon fill="#ED1C24" points="7547.5,5549 7647.5,5376 7747.5,5549 "/>
<polygon fill="#ED1C24" points="7747.5,5549 7847.5,5376 7947.5,5549 "/>
<polygon fill="#ED1C24" points="7847.5,5376 7747.5,5549 7647.5,5376 "/>
<polygon fill="#ED1C24" points="7647.5,5376 7747.5,5203 7847.5,5376 "/>
<polygon fill="#ED1C24" points="7947.5,5203 7847.5,5376 7747.5,5203 "/>
<polygon fill="#ED1C24" points="7747.5,5203 7647.5,5376 7547.5,5203 "/>
<polygon fill="#ED1C24" points="7547.5,5203 7647.5,5030 7747.5,5203 "/>
<polygon fill="#ED1C24" points="7747.5,5203 7847.5,5030 7947.5,5203 "/>
<polygon fill="#ED1C24" points="7847.5,5030 7747.5,5203 7647.5,5030 "/>
<polygon fill="#ED1C24" points="7747.5,6933 7847.5,6760 7947.5,6933 "/>
<polygon fill="#ED1C24" points="7547.5,6933 7647.5,6760 7747.5,6933 "/>
<polygon fill="#ED1C24" points="7847.5,6760 7747.5,6933 7647.5,6760 "/>
<polygon fill="#ED1C24" points="6447.5,6068 6347.5,6241 6247.5,6068 "/>
<polygon fill="#ED1C24" points="6247.5,6068 6347.5,5895 6447.5,6068 "/>
<polygon fill="#ED1C24" points="6647.5,6414 6547.5,6587 6447.5,6414 "/>
<polygon fill="#ED1C24" points="6447.5,6414 6547.5,6241 6647.5,6414 "/>
<polygon fill="#ED1C24" points="6547.5,6241 6447.5,6414 6347.5,6241 "/>
<polygon fill="#ED1C24" points="6347.5,6241 6447.5,6068 6547.5,6241 "/>
<polygon fill="#ED1C24" points="6647.5,6068 6547.5,6241 6447.5,6068 "/>
<polygon fill="#ED1C24" points="6447.5,6068 6547.5,5895 6647.5,6068 "/>
<polygon fill="#ED1C24" points="6547.5,5895 6447.5,6068 6347.5,5895 "/>
<polygon fill="#ED1C24" points="6347.5,5895 6447.5,5722 6547.5,5895 "/>
<polygon fill="#ED1C24" points="6647.5,5722 6547.5,5895 6447.5,5722 "/>
<polygon fill="#ED1C24" points="6547.5,6587 6647.5,6414 6747.5,6587 "/>
<polygon fill="#ED1C24" points="6847.5,6414 6747.5,6587 6647.5,6414 "/>
<polygon fill="#ED1C24" points="6647.5,6414 6747.5,6241 6847.5,6414 "/>
<polygon fill="#ED1C24" points="6747.5,6241 6647.5,6414 6547.5,6241 "/>
<polygon fill="#ED1C24" points="6547.5,6241 6647.5,6068 6747.5,6241 "/>
<polygon fill="#ED1C24" points="6847.5,6068 6747.5,6241 6647.5,6068 "/>
<polygon fill="#ED1C24" points="6647.5,6068 6747.5,5895 6847.5,6068 "/>
<polygon fill="#ED1C24" points="6747.5,5895 6647.5,6068 6547.5,5895 "/>
<polygon fill="#ED1C24" points="6547.5,5895 6647.5,5722 6747.5,5895 "/>
<polygon fill="#ED1C24" points="6847.5,5722 6747.5,5895 6647.5,5722 "/>
<polygon fill="#ED1C24" points="7047.5,6760 6947.5,6933 6847.5,6760 "/>
<polygon fill="#ED1C24" points="6847.5,6760 6947.5,6587 7047.5,6760 "/>
<polygon fill="#ED1C24" points="6947.5,6587 6847.5,6760 6747.5,6587 "/>
<polygon fill="#ED1C24" points="6747.5,6587 6847.5,6414 6947.5,6587 "/>
<polygon fill="#ED1C24" points="7047.5,6414 6947.5,6587 6847.5,6414 "/>
<polygon fill="#ED1C24" points="6847.5,6414 6947.5,6241 7047.5,6414 "/>
<polygon fill="#ED1C24" points="6947.5,6241 6847.5,6414 6747.5,6241 "/>
<polygon fill="#ED1C24" points="6747.5,6241 6847.5,6068 6947.5,6241 "/>
<polygon fill="#ED1C24" points="7047.5,6068 6947.5,6241 6847.5,6068 "/>
<polygon fill="#ED1C24" points="6847.5,6068 6947.5,5895 7047.5,6068 "/>
<polygon fill="#ED1C24" points="6947.5,5895 6847.5,6068 6747.5,5895 "/>
<polygon fill="#ED1C24" points="6747.5,5895 6847.5,5722 6947.5,5895 "/>
<polygon fill="#ED1C24" points="6947.5,6933 7047.5,6760 7147.5,6933 "/>
<polygon fill="#ED1C24" points="7247.5,6760 7147.5,6933 7047.5,6760 "/>
<polygon fill="#ED1C24" points="7047.5,6760 7147.5,6587 7247.5,6760 "/>
<polygon fill="#ED1C24" points="7147.5,6587 7047.5,6760 6947.5,6587 "/>
<polygon fill="#ED1C24" points="6947.5,6587 7047.5,6414 7147.5,6587 "/>
<polygon fill="#ED1C24" points="7247.5,6414 7147.5,6587 7047.5,6414 "/>
<polygon fill="#ED1C24" points="7047.5,6414 7147.5,6241 7247.5,6414 "/>
<polygon fill="#ED1C24" points="7147.5,6241 7047.5,6414 6947.5,6241 "/>
<polygon fill="#ED1C24" points="6947.5,6241 7047.5,6068 7147.5,6241 "/>
<polygon fill="#ED1C24" points="7247.5,6068 7147.5,6241 7047.5,6068 "/>
<polygon fill="#ED1C24" points="7047.5,6068 7147.5,5895 7247.5,6068 "/>
<polygon fill="#ED1C24" points="7147.5,5895 7047.5,6068 6947.5,5895 "/>
<polygon fill="#ED1C24" points="6947.5,5895 7047.5,5722 7147.5,5895 "/>
<polygon fill="#ED1C24" points="7247.5,5722 7147.5,5895 7047.5,5722 "/>
<polygon fill="#ED1C24" points="7247.5,7106 7347.5,6933 7447.5,7106 "/>
<polygon fill="#ED1C24" points="7547.5,6933 7447.5,7106 7347.5,6933 "/>
<polygon fill="#ED1C24" points="7347.5,6933 7247.5,7106 7147.5,6933 "/>
<polygon fill="#ED1C24" points="7147.5,6933 7247.5,6760 7347.5,6933 "/>
<polygon fill="#ED1C24" points="7347.5,6933 7447.5,6760 7547.5,6933 "/>
<polygon fill="#ED1C24" points="7447.5,6760 7347.5,6933 7247.5,6760 "/>
<polygon fill="#ED1C24" points="7247.5,6760 7347.5,6587 7447.5,6760 "/>
<polygon fill="#ED1C24" points="7547.5,6587 7447.5,6760 7347.5,6587 "/>
<polygon fill="#ED1C24" points="7347.5,6587 7247.5,6760 7147.5,6587 "/>
<polygon fill="#ED1C24" points="7147.5,6587 7247.5,6414 7347.5,6587 "/>
<polygon fill="#ED1C24" points="7347.5,6587 7447.5,6414 7547.5,6587 "/>
<polygon fill="#ED1C24" points="7447.5,6414 7347.5,6587 7247.5,6414 "/>
<polygon fill="#ED1C24" points="7247.5,6414 7347.5,6241 7447.5,6414 "/>
<polygon fill="#ED1C24" points="7547.5,6241 7447.5,6414 7347.5,6241 "/>
<polygon fill="#ED1C24" points="7347.5,6241 7247.5,6414 7147.5,6241 "/>
<polygon fill="#ED1C24" points="7147.5,6241 7247.5,6068 7347.5,6241 "/>
<polygon fill="#ED1C24" points="7347.5,6241 7447.5,6068 7547.5,6241 "/>
<polygon fill="#ED1C24" points="7447.5,6068 7347.5,6241 7247.5,6068 "/>
<polygon fill="#ED1C24" points="7247.5,6068 7347.5,5895 7447.5,6068 "/>
<polygon fill="#ED1C24" points="7547.5,5895 7447.5,6068 7347.5,5895 "/>
<polygon fill="#ED1C24" points="7347.5,5895 7247.5,6068 7147.5,5895 "/>
<polygon fill="#ED1C24" points="7147.5,5895 7247.5,5722 7347.5,5895 "/>
<polygon fill="#ED1C24" points="7347.5,5895 7447.5,5722 7547.5,5895 "/>
<polygon fill="#ED1C24" points="7447.5,5722 7347.5,5895 7247.5,5722 "/>
<polygon fill="#ED1C24" points="7347.5,7279 7447.5,7106 7547.5,7279 "/>
<polygon fill="#ED1C24" points="7447.5,7106 7347.5,7279 7247.5,7106 "/>
<polygon fill="#ED1C24" points="7447.5,7106 7547.5,6933 7647.5,7106 "/>
<polygon fill="#ED1C24" points="7647.5,6760 7547.5,6933 7447.5,6760 "/>
<polygon fill="#ED1C24" points="7447.5,6760 7547.5,6587 7647.5,6760 "/>
<polygon fill="#ED1C24" points="7647.5,6414 7547.5,6587 7447.5,6414 "/>
<polygon fill="#ED1C24" points="7447.5,6414 7547.5,6241 7647.5,6414 "/>
<polygon fill="#ED1C24" points="7647.5,6068 7547.5,6241 7447.5,6068 "/>
<polygon fill="#ED1C24" points="7447.5,6068 7547.5,5895 7647.5,6068 "/>
<polygon fill="#ED1C24" points="7647.5,5722 7547.5,5895 7447.5,5722 "/>
<polygon fill="#ED1C24" points="7647.5,7106 7547.5,7279 7447.5,7106 "/>
<polygon fill="#ED1C24" points="7047.5,5722 7147.5,5549 7247.5,5722 "/>
<polygon fill="#ED1C24" points="7347.5,5549 7247.5,5722 7147.5,5549 "/>
<polygon fill="#ED1C24" points="7247.5,5376 7347.5,5203 7447.5,5376 "/>
<polygon fill="#ED1C24" points="7547.5,5203 7447.5,5376 7347.5,5203 "/>
<polygon fill="#ED1C24" points="7347.5,5203 7447.5,5030 7547.5,5203 "/>
<polygon fill="#ED1C24" points="7247.5,5722 7347.5,5549 7447.5,5722 "/>
<polygon fill="#ED1C24" points="7447.5,5722 7547.5,5549 7647.5,5722 "/>
<polygon fill="#ED1C24" points="7547.5,5549 7447.5,5722 7347.5,5549 "/>
<polygon fill="#ED1C24" points="7347.5,5549 7447.5,5376 7547.5,5549 "/>
<polygon fill="#ED1C24" points="7147.5,5549 7247.5,5376 7347.5,5549 "/>
<polygon fill="#ED1C24" points="7447.5,5376 7347.5,5549 7247.5,5376 "/>
<polygon fill="#ED1C24" points="7447.5,5376 7547.5,5203 7647.5,5376 "/>
<polygon fill="#ED1C24" points="7647.5,5030 7547.5,5203 7447.5,5030 "/>
<polygon fill="#ED1C24" points="7647.5,5376 7547.5,5549 7447.5,5376 "/>
<polygon fill="#ED1C24" points="8047.5,5722 7947.5,5895 7847.5,5722 "/>
<polygon fill="#ED1C24" points="7847.5,5376 7947.5,5203 8047.5,5376 "/>
<polygon fill="#ED1C24" points="8047.5,5030 7947.5,5203 7847.5,5030 "/>
<polygon fill="#ED1C24" points="7847.5,5722 7947.5,5549 8047.5,5722 "/>
<polygon fill="#ED1C24" points="8147.5,5549 8047.5,5722 7947.5,5549 "/>
<polygon fill="#ED1C24" points="8047.5,5376 7947.5,5549 7847.5,5376 "/>
<polygon fill="#ED1C24" points="8047.5,5376 8147.5,5203 8247.5,5376 "/>
<polygon fill="#ED1C24" points="8147.5,5203 8047.5,5376 7947.5,5203 "/>
<polygon fill="#ED1C24" points="7947.5,5203 8047.5,5030 8147.5,5203 "/>
<polygon fill="#ED1C24" points="8247.5,5030 8147.5,5203 8047.5,5030 "/>
<polygon fill="#ED1C24" points="7947.5,5549 8047.5,5376 8147.5,5549 "/>
<polygon fill="#ED1C24" points="8247.5,5376 8147.5,5549 8047.5,5376 "/>
<polygon fill="#ED1C24" points="8347.5,5203 8247.5,5376 8147.5,5203 "/>
<polygon fill="#ED1C24" points="8147.5,5203 8247.5,5030 8347.5,5203 "/>
<polygon fill="#ED1C24" points="8447.5,5030 8347.5,5203 8247.5,5030 "/>
<polygon fill="#FFAF00" points="789.5,8613 889.5,8440 989.5,8613 "/>
<polygon fill="#FFAF00" points="989.5,8613 1089.5,8440 1189.5,8613 "/>
<polygon fill="#FFAF00" points="1289.5,8440 1189.5,8613 1089.5,8440 "/>
<polygon fill="#FFAF00" points="1089.5,8440 989.5,8613 889.5,8440 "/>
<polygon fill="#FFAF00" points="889.5,8440 789.5,8613 689.5,8440 "/>
<polygon fill="#FFAF00" points="689.5,8440 789.5,8267 889.5,8440 "/>
<polygon fill="#FFAF00" points="889.5,8440 989.5,8267 1089.5,8440 "/>
<polygon fill="#FFAF00" points="1189.5,8267 1089.5,8440 989.5,8267 "/>
<polygon fill="#F15A24" points="989.5,8267 889.5,8440 789.5,8267 "/>
<polygon fill="#F15A24" points="789.5,8267 889.5,8094 989.5,8267 "/>
<polygon fill="#FFAF00" points="989.5,8267 1089.5,8094 1189.5,8267 "/>
<polygon fill="#FFAF00" points="1289.5,8094 1189.5,8267 1089.5,8094 "/>
<polygon fill="#F15A24" points="1089.5,8094 989.5,8267 889.5,8094 "/>
<polygon fill="#FFAF00" points="889.5,8094 789.5,8267 689.5,8094 "/>
<polygon fill="#FFAF00" points="689.5,8094 789.5,7921 889.5,8094 "/>
<polygon fill="#F15A24" points="889.5,8094 989.5,7921 1089.5,8094 "/>
<polygon fill="#FFAF00" points="1089.5,8094 1189.5,7921 1289.5,8094 "/>
<polygon fill="#FFAF00" points="1389.5,7921 1289.5,8094 1189.5,7921 "/>
<polygon fill="#F15A24" points="1189.5,7921 1089.5,8094 989.5,7921 "/>
<polygon fill="#FFAF00" points="989.5,7921 889.5,8094 789.5,7921 "/>
<polygon fill="#FFAF00" points="789.5,7921 889.5,7748 989.5,7921 "/>
<polygon fill="#F15A24" points="989.5,7921 1089.5,7748 1189.5,7921 "/>
<polygon fill="#FFAF00" points="1189.5,7921 1289.5,7748 1389.5,7921 "/>
<polygon fill="#FFAF00" points="1489.5,7748 1389.5,7921 1289.5,7748 "/>
<polygon fill="#F15A24" points="1289.5,7748 1189.5,7921 1089.5,7748 "/>
<polygon fill="#FFAF00" points="1089.5,7748 989.5,7921 889.5,7748 "/>
<polygon fill="#FFAF00" points="889.5,7748 989.5,7575 1089.5,7748 "/>
<polygon fill="#F15A24" points="1089.5,7748 1189.5,7575 1289.5,7748 "/>
<polygon fill="#FFAF00" points="1289.5,7748 1389.5,7575 1489.5,7748 "/>
<polygon fill="#FFAF00" points="1589.5,7575 1489.5,7748 1389.5,7575 "/>
<polygon fill="#F15A24" points="1389.5,7575 1289.5,7748 1189.5,7575 "/>
<polygon fill="#F15A24" points="1189.5,7575 1089.5,7748 989.5,7575 "/>
<polygon fill="#F15A24" points="989.5,7575 1089.5,7402 1189.5,7575 "/>
<polygon fill="#F15A24" points="1189.5,7575 1289.5,7402 1389.5,7575 "/>
<polygon fill="#FFAF00" points="1389.5,7575 1489.5,7402 1589.5,7575 "/>
<polygon fill="#FFAF00" points="1689.5,7402 1589.5,7575 1489.5,7402 "/>
<polygon fill="#F15A24" points="1489.5,7402 1389.5,7575 1289.5,7402 "/>
<polygon fill="#F15A24" points="1289.5,7402 1189.5,7575 1089.5,7402 "/>
<polygon fill="#FFAF00" points="1089.5,7402 989.5,7575 889.5,7402 "/>
<polygon fill="#FFAF00" points="889.5,7402 989.5,7229 1089.5,7402 "/>
<polygon fill="#F15A24" points="1089.5,7402 1189.5,7229 1289.5,7402 "/>
<polygon fill="#F15A24" points="1289.5,7402 1389.5,7229 1489.5,7402 "/>
<polygon fill="#FFAF00" points="1489.5,7402 1589.5,7229 1689.5,7402 "/>
<polygon fill="#FFAF00" points="1789.5,7229 1689.5,7402 1589.5,7229 "/>
<polygon fill="#F15A24" points="1589.5,7229 1489.5,7402 1389.5,7229 "/>
<polygon fill="#F15A24" points="1389.5,7229 1289.5,7402 1189.5,7229 "/>
<polygon fill="#FFAF00" points="1189.5,7229 1089.5,7402 989.5,7229 "/>
<polygon fill="#FFAF00" points="989.5,7229 1089.5,7056 1189.5,7229 "/>
<polygon fill="#F15A24" points="1189.5,7229 1289.5,7056 1389.5,7229 "/>
<polygon fill="#F15A24" points="1389.5,7229 1489.5,7056 1589.5,7229 "/>
<polygon fill="#FFAF00" points="1589.5,7229 1689.5,7056 1789.5,7229 "/>
<polygon fill="#FFAF00" points="1889.5,7056 1789.5,7229 1689.5,7056 "/>
<polygon fill="#F15A24" points="1689.5,7056 1589.5,7229 1489.5,7056 "/>
<polygon fill="#F15A24" points="1489.5,7056 1389.5,7229 1289.5,7056 "/>
<polygon fill="#FFAF00" points="1289.5,7056 1189.5,7229 1089.5,7056 "/>
<polygon fill="#FFAF00" points="1089.5,7056 1189.5,6883 1289.5,7056 "/>
<polygon fill="#F15A24" points="1289.5,7056 1389.5,6883 1489.5,7056 "/>
<polygon fill="#F15A24" points="1489.5,7056 1589.5,6883 1689.5,7056 "/>
<polygon fill="#FFAF00" points="1689.5,7056 1789.5,6883 1889.5,7056 "/>
<polygon fill="#F15A24" points="1789.5,6883 1689.5,7056 1589.5,6883 "/>
<polygon fill="#F15A24" points="1589.5,6883 1489.5,7056 1389.5,6883 "/>
<polygon fill="#FFAF00" points="1389.5,6883 1289.5,7056 1189.5,6883 "/>
<polygon fill="#FFAF00" points="1989.5,6883 1889.5,7056 1789.5,6883 "/>
<polygon fill="#FFAF00" points="1589.5,5845 1689.5,5672 1789.5,5845 "/>
<polygon fill="#FFAF00" points="1489.5,6018 1589.5,5845 1689.5,6018 "/>
<polygon fill="#FFAF00" points="1789.5,5845 1689.5,6018 1589.5,5845 "/>
<polygon fill="#F15A24" points="1789.5,5845 1889.5,5672 1989.5,5845 "/>
<polygon fill="#FFAF00" points="1889.5,5672 1789.5,5845 1689.5,5672 "/>
<polygon fill="#FFAF00" points="1689.5,5672 1789.5,5499 1889.5,5672 "/>
<polygon fill="#FFAF00" points="1989.5,5499 1889.5,5672 1789.5,5499 "/>
<polygon fill="#FFAF00" points="1789.5,5499 1889.5,5326 1989.5,5499 "/>
<polygon fill="#F15A24" points="1689.5,6018 1789.5,5845 1889.5,6018 "/>
<polygon fill="#F15A24" points="1989.5,5845 1889.5,6018 1789.5,5845 "/>
<polygon fill="#F15A24" points="1989.5,5845 2089.5,5672 2189.5,5845 "/>
<polygon fill="#F15A24" points="2089.5,5672 1989.5,5845 1889.5,5672 "/>
<polygon fill="#F15A24" points="1889.5,5672 1989.5,5499 2089.5,5672 "/>
<polygon fill="#F15A24" points="2189.5,5499 2089.5,5672 1989.5,5499 "/>
<polygon fill="#F15A24" points="1989.5,5499 2089.5,5326 2189.5,5499 "/>
<polygon fill="#FFAF00" points="2089.5,5326 1989.5,5499 1889.5,5326 "/>
<polygon fill="#FFAF00" points="1889.5,5326 1989.5,5153 2089.5,5326 "/>
<polygon fill="#FFAF00" points="2189.5,5153 2089.5,5326 1989.5,5153 "/>
<polygon fill="#FFAF00" points="1989.5,5153 2089.5,4980 2189.5,5153 "/>
<polygon fill="#F15A24" points="1889.5,6018 1989.5,5845 2089.5,6018 "/>
<polygon fill="#F15A24" points="2189.5,5845 2089.5,6018 1989.5,5845 "/>
<polygon fill="#F15A24" points="2189.5,5845 2289.5,5672 2389.5,5845 "/>
<polygon fill="#F15A24" points="2289.5,5672 2189.5,5845 2089.5,5672 "/>
<polygon fill="#F15A24" points="2089.5,5672 2189.5,5499 2289.5,5672 "/>
<polygon fill="#F15A24" points="2389.5,5499 2289.5,5672 2189.5,5499 "/>
<polygon fill="#F15A24" points="2189.5,5499 2289.5,5326 2389.5,5499 "/>
<polygon fill="#F15A24" points="2289.5,5326 2189.5,5499 2089.5,5326 "/>
<polygon fill="#F15A24" points="2089.5,5326 2189.5,5153 2289.5,5326 "/>
<polygon fill="#F15A24" points="2389.5,5153 2289.5,5326 2189.5,5153 "/>
<polygon fill="#F15A24" points="2189.5,5153 2289.5,4980 2389.5,5153 "/>
<polygon fill="#FFAF00" points="2289.5,4980 2189.5,5153 2089.5,4980 "/>
<polygon fill="#FFAF00" points="2089.5,4980 2189.5,4807 2289.5,4980 "/>
<polygon points="2389.5,4461 2289.5,4634 2189.5,4461 "/>
<polygon fill="#F15A24" points="2089.5,6018 2189.5,5845 2289.5,6018 "/>
<polygon fill="#F15A24" points="2389.5,5845 2289.5,6018 2189.5,5845 "/>
<polygon fill="#F15A24" points="2389.5,5845 2489.5,5672 2589.5,5845 "/>
<polygon fill="#F15A24" points="2489.5,5672 2389.5,5845 2289.5,5672 "/>
<polygon fill="#F15A24" points="2289.5,5672 2389.5,5499 2489.5,5672 "/>
<polygon fill="#F15A24" points="2589.5,5499 2489.5,5672 2389.5,5499 "/>
<polygon fill="#F15A24" points="2389.5,5499 2489.5,5326 2589.5,5499 "/>
<polygon fill="#F15A24" points="2489.5,5326 2389.5,5499 2289.5,5326 "/>
<polygon fill="#F15A24" points="2289.5,5326 2389.5,5153 2489.5,5326 "/>
<polygon fill="#F15A24" points="2589.5,5153 2489.5,5326 2389.5,5153 "/>
<polygon fill="#F15A24" points="2389.5,5153 2489.5,4980 2589.5,5153 "/>
<polygon fill="#F15A24" points="2489.5,4980 2389.5,5153 2289.5,4980 "/>
<polygon points="2589.5,4807 2489.5,4980 2389.5,4807 "/>
<polygon points="2389.5,4807 2489.5,4634 2589.5,4807 "/>
<polygon points="2489.5,4634 2389.5,4807 2289.5,4634 "/>
<polygon points="2289.5,4634 2389.5,4461 2489.5,4634 "/>
<polygon points="2589.5,4461 2489.5,4634 2389.5,4461 "/>
<polygon fill="#F15A24" points="2289.5,6018 2389.5,5845 2489.5,6018 "/>
<polygon fill="#F15A24" points="2589.5,5845 2489.5,6018 2389.5,5845 "/>
<polygon fill="#F15A24" points="2589.5,5845 2689.5,5672 2789.5,5845 "/>
<polygon fill="#F15A24" points="2689.5,5672 2589.5,5845 2489.5,5672 "/>
<polygon fill="#F15A24" points="2489.5,5672 2589.5,5499 2689.5,5672 "/>
<polygon fill="#F15A24" points="2789.5,5499 2689.5,5672 2589.5,5499 "/>
<polygon fill="#F15A24" points="2589.5,5499 2689.5,5326 2789.5,5499 "/>
<polygon fill="#F15A24" points="2689.5,5326 2589.5,5499 2489.5,5326 "/>
<polygon fill="#F15A24" points="2489.5,5326 2589.5,5153 2689.5,5326 "/>
<polygon points="2589.5,5153 2689.5,4980 2789.5,5153 "/>
<polygon points="2689.5,4980 2589.5,5153 2489.5,4980 "/>
<polygon points="2489.5,4980 2589.5,4807 2689.5,4980 "/>
<polygon fill="#ED1C24" points="2789.5,4807 2689.5,4980 2589.5,4807 "/>
<polygon fill="#ED1C24" points="2589.5,4807 2689.5,4634 2789.5,4807 "/>
<polygon fill="#ED1C24" points="2689.5,4634 2589.5,4807 2489.5,4634 "/>
<polygon fill="#ED1C24" points="2489.5,4634 2589.5,4461 2689.5,4634 "/>
<polygon fill="#ED1C24" points="2789.5,4461 2689.5,4634 2589.5,4461 "/>
<polygon fill="#F15A24" points="2489.5,6018 2589.5,5845 2689.5,6018 "/>
<polygon fill="#F15A24" points="2789.5,5845 2689.5,6018 2589.5,5845 "/>
<polygon fill="#FFAF00" points="2789.5,5845 2889.5,5672 2989.5,5845 "/>
<polygon fill="#F15A24" points="2889.5,5672 2789.5,5845 2689.5,5672 "/>
<polygon fill="#F15A24" points="2689.5,5672 2789.5,5499 2889.5,5672 "/>
<polygon fill="#F15A24" points="2989.5,5499 2889.5,5672 2789.5,5499 "/>
<polygon fill="#F15A24" points="2789.5,5499 2889.5,5326 2989.5,5499 "/>
<polygon fill="#F15A24" points="2889.5,5326 2789.5,5499 2689.5,5326 "/>
<polygon points="2989.5,5153 2889.5,5326 2789.5,5153 "/>
<polygon fill="#ED1C24" points="2789.5,5153 2889.5,4980 2989.5,5153 "/>
<polygon fill="#ED1C24" points="2889.5,4980 2789.5,5153 2689.5,4980 "/>
<polygon fill="#ED1C24" points="2689.5,4980 2789.5,4807 2889.5,4980 "/>
<polygon fill="#ED1C24" points="2989.5,4807 2889.5,4980 2789.5,4807 "/>
<polygon fill="#ED1C24" points="2789.5,4807 2889.5,4634 2989.5,4807 "/>
<polygon fill="#ED1C24" points="2889.5,4634 2789.5,4807 2689.5,4634 "/>
<polygon fill="#ED1C24" points="2689.5,4634 2789.5,4461 2889.5,4634 "/>
<polygon fill="#ED1C24" points="2989.5,4461 2889.5,4634 2789.5,4461 "/>
<polygon fill="#FFAF00" points="2689.5,6018 2789.5,5845 2889.5,6018 "/>
<polygon fill="#FFAF00" points="2989.5,5845 2889.5,6018 2789.5,5845 "/>
<polygon fill="#FFAF00" points="3089.5,5672 2989.5,5845 2889.5,5672 "/>
<polygon fill="#FFAF00" points="2889.5,5672 2989.5,5499 3089.5,5672 "/>
<polygon fill="#FFAF00" points="3189.5,5499 3089.5,5672 2989.5,5499 "/>
<polygon points="2889.5,5326 2989.5,5153 3089.5,5326 "/>
<polygon fill="#ED1C24" points="3189.5,5153 3089.5,5326 2989.5,5153 "/>
<polygon fill="#ED1C24" points="2989.5,5153 3089.5,4980 3189.5,5153 "/>
<polygon fill="#ED1C24" points="3089.5,4980 2989.5,5153 2889.5,4980 "/>
<polygon fill="#ED1C24" points="2889.5,4980 2989.5,4807 3089.5,4980 "/>
<polygon fill="#ED1C24" points="3189.5,4807 3089.5,4980 2989.5,4807 "/>
<polygon fill="#ED1C24" points="2989.5,4807 3089.5,4634 3189.5,4807 "/>
<polygon fill="#ED1C24" points="3089.5,4634 2989.5,4807 2889.5,4634 "/>
<polygon fill="#ED1C24" points="2889.5,4634 2989.5,4461 3089.5,4634 "/>
<polygon fill="#ED1C24" points="3189.5,4461 3089.5,4634 2989.5,4461 "/>
<polygon points="3189.5,5499 3289.5,5326 3389.5,5499 "/>
<polygon points="3289.5,5326 3189.5,5499 3089.5,5326 "/>
<polygon fill="#ED1C24" points="3089.5,5326 3189.5,5153 3289.5,5326 "/>
<polygon fill="#ED1C24" points="3389.5,5153 3289.5,5326 3189.5,5153 "/>
<polygon fill="#ED1C24" points="3189.5,5153 3289.5,4980 3389.5,5153 "/>
<polygon fill="#ED1C24" points="3289.5,4980 3189.5,5153 3089.5,4980 "/>
<polygon fill="#ED1C24" points="3089.5,4980 3189.5,4807 3289.5,4980 "/>
<polygon fill="#ED1C24" points="3389.5,4807 3289.5,4980 3189.5,4807 "/>
<polygon fill="#ED1C24" points="3189.5,4807 3289.5,4634 3389.5,4807 "/>
<polygon fill="#ED1C24" points="3289.5,4634 3189.5,4807 3089.5,4634 "/>
<polygon fill="#ED1C24" points="3089.5,4634 3189.5,4461 3289.5,4634 "/>
<polygon fill="#ED1C24" points="3389.5,4461 3289.5,4634 3189.5,4461 "/>
<polygon points="3389.5,5499 3489.5,5326 3589.5,5499 "/>
<polygon points="3489.5,5326 3389.5,5499 3289.5,5326 "/>
<polygon fill="#ED1C24" points="3289.5,5326 3389.5,5153 3489.5,5326 "/>
<polygon fill="#ED1C24" points="3589.5,5153 3489.5,5326 3389.5,5153 "/>
<polygon fill="#ED1C24" points="3389.5,5153 3489.5,4980 3589.5,5153 "/>
<polygon fill="#ED1C24" points="3489.5,4980 3389.5,5153 3289.5,4980 "/>
<polygon fill="#ED1C24" points="3289.5,4980 3389.5,4807 3489.5,4980 "/>
<polygon fill="#ED1C24" points="3589.5,4807 3489.5,4980 3389.5,4807 "/>
<polygon fill="#ED1C24" points="3789.5,4807 3689.5,4980 3589.5,4807 "/>
<polygon fill="#ED1C24" points="3389.5,4807 3489.5,4634 3589.5,4807 "/>
<polygon fill="#ED1C24" points="3489.5,4634 3389.5,4807 3289.5,4634 "/>
<polygon fill="#ED1C24" points="3289.5,4634 3389.5,4461 3489.5,4634 "/>
<polygon fill="#ED1C24" points="3589.5,4461 3489.5,4634 3389.5,4461 "/>
<polygon points="3589.5,5499 3689.5,5326 3789.5,5499 "/>
<polygon points="3689.5,5326 3589.5,5499 3489.5,5326 "/>
<polygon fill="#ED1C24" points="3489.5,5326 3589.5,5153 3689.5,5326 "/>
<polygon points="3789.5,5153 3689.5,5326 3589.5,5153 "/>
<polygon fill="#ED1C24" points="3589.5,5153 3689.5,4980 3789.5,5153 "/>
<polygon fill="#ED1C24" points="3689.5,4980 3589.5,5153 3489.5,4980 "/>
<polygon fill="#ED1C24" points="3489.5,4980 3589.5,4807 3689.5,4980 "/>
<polygon fill="#ED1C24" points="3589.5,4807 3689.5,4634 3789.5,4807 "/>
<polygon fill="#ED1C24" points="3689.5,4634 3589.5,4807 3489.5,4634 "/>
<polygon fill="#ED1C24" points="3489.5,4634 3589.5,4461 3689.5,4634 "/>
<polygon fill="#ED1C24" points="3789.5,4461 3689.5,4634 3589.5,4461 "/>
<polygon points="4089.5,5672 3989.5,5845 3889.5,5672 "/>
<polygon points="3889.5,5672 3989.5,5499 4089.5,5672 "/>
<polygon points="3989.5,5499 3889.5,5672 3789.5,5499 "/>
<polygon points="3789.5,5499 3889.5,5326 3989.5,5499 "/>
<polygon fill="#42210B" points="4089.5,5326 3989.5,5499 3889.5,5326 "/>
<polygon points="3889.5,5326 3789.5,5499 3689.5,5326 "/>
<polygon points="3689.5,5326 3789.5,5153 3889.5,5326 "/>
<polygon fill="#42210B" points="3889.5,5326 3989.5,5153 4089.5,5326 "/>
<polygon fill="#42210B" points="3989.5,5153 3889.5,5326 3789.5,5153 "/>
<polygon points="3789.5,5153 3889.5,4980 3989.5,5153 "/>
<polygon points="4089.5,4980 3989.5,5153 3889.5,4980 "/>
<polygon fill="#ED1C24" points="3889.5,4980 3789.5,5153 3689.5,4980 "/>
<polygon fill="#ED1C24" points="3689.5,4980 3789.5,4807 3889.5,4980 "/>
<polygon fill="#ED1C24" points="3889.5,4980 3989.5,4807 4089.5,4980 "/>
<polygon fill="#ED1C24" points="3989.5,4807 3889.5,4980 3789.5,4807 "/>
<polygon fill="#ED1C24" points="3789.5,4807 3889.5,4634 3989.5,4807 "/>
<polygon fill="#ED1C24" points="4089.5,4634 3989.5,4807 3889.5,4634 "/>
<polygon fill="#ED1C24" points="3889.5,4634 3789.5,4807 3689.5,4634 "/>
<polygon fill="#ED1C24" points="3689.5,4634 3789.5,4461 3889.5,4634 "/>
<polygon fill="#ED1C24" points="3889.5,4634 3989.5,4461 4089.5,4634 "/>
<polygon fill="#ED1C24" points="3989.5,4461 3889.5,4634 3789.5,4461 "/>
<polygon points="3889.5,6018 3989.5,5845 4089.5,6018 "/>
<polygon points="4189.5,5845 4289.5,5672 4389.5,5845 "/>
<polygon points="4489.5,5672 4389.5,5845 4289.5,5672 "/>
<polygon fill="#F15A24" points="4289.5,5672 4189.5,5845 4089.5,5672 "/>
<polygon points="4089.5,5672 4189.5,5499 4289.5,5672 "/>
<polygon points="4289.5,5672 4389.5,5499 4489.5,5672 "/>
<polygon fill="#F15A24" points="4389.5,5499 4289.5,5672 4189.5,5499 "/>
<polygon points="4189.5,5499 4289.5,5326 4389.5,5499 "/>
<polygon fill="#F15A24" points="4489.5,5326 4389.5,5499 4289.5,5326 "/>
<polygon fill="#42210B" points="4289.5,5326 4189.5,5499 4089.5,5326 "/>
<polygon fill="#42210B" points="4089.5,5326 4189.5,5153 4289.5,5326 "/>
<polygon fill="#F15A24" points="4289.5,5326 4389.5,5153 4489.5,5326 "/>
<polygon points="4389.5,5153 4289.5,5326 4189.5,5153 "/>
<polygon points="4189.5,5153 4289.5,4980 4389.5,5153 "/>
<polygon fill="#F15A24" points="4489.5,4980 4389.5,5153 4289.5,4980 "/>
<polygon fill="#42210B" points="4289.5,4980 4189.5,5153 4089.5,4980 "/>
<polygon points="4089.5,4980 4189.5,4807 4289.5,4980 "/>
<polygon fill="#F15A24" points="4289.5,4980 4389.5,4807 4489.5,4980 "/>
<polygon points="4389.5,4807 4289.5,4980 4189.5,4807 "/>
<polygon points="4189.5,4807 4289.5,4634 4389.5,4807 "/>
<polygon fill="#ED1C24" points="4489.5,4634 4389.5,4807 4289.5,4634 "/>
<polygon fill="#ED1C24" points="4289.5,4634 4189.5,4807 4089.5,4634 "/>
<polygon fill="#ED1C24" points="4089.5,4634 4189.5,4461 4289.5,4634 "/>
<polygon fill="#ED1C24" points="4289.5,4634 4389.5,4461 4489.5,4634 "/>
<polygon fill="#ED1C24" points="4389.5,4461 4289.5,4634 4189.5,4461 "/>
<polygon fill="#ED1C24" points="4189.5,4461 4289.5,4288 4389.5,4461 "/>
<polygon fill="#ED1C24" points="4489.5,4288 4389.5,4461 4289.5,4288 "/>
<polygon fill="#ED1C24" points="4289.5,4288 4189.5,4461 4089.5,4288 "/>
<polygon fill="#ED1C24" points="4089.5,4288 4189.5,4115 4289.5,4288 "/>
<polygon fill="#ED1C24" points="4289.5,4288 4389.5,4115 4489.5,4288 "/>
<polygon fill="#ED1C24" points="4389.5,4115 4289.5,4288 4189.5,4115 "/>
<polygon fill="#ED1C24" points="4189.5,4115 4289.5,3942 4389.5,4115 "/>
<polygon fill="#ED1C24" points="4489.5,3942 4389.5,4115 4289.5,3942 "/>
<polygon fill="#ED1C24" points="4289.5,3942 4189.5,4115 4089.5,3942 "/>
<polygon fill="#F15A24" points="4089.5,6018 4189.5,5845 4289.5,6018 "/>
<polygon points="4389.5,5845 4289.5,6018 4189.5,5845 "/>
<polygon fill="#ED1C24" points="4189.5,3769 4289.5,3596 4389.5,3769 "/>
<polygon fill="#ED1C24" points="4489.5,3596 4389.5,3769 4289.5,3596 "/>
<polygon fill="#ED1C24" points="4289.5,3596 4189.5,3769 4089.5,3596 "/>
<polygon fill="#ED1C24" points="4089.5,3596 4189.5,3423 4289.5,3596 "/>
<polygon fill="#ED1C24" points="4289.5,3596 4389.5,3423 4489.5,3596 "/>
<polygon fill="#ED1C24" points="4389.5,3423 4289.5,3596 4189.5,3423 "/>
<polygon points="4189.5,3423 4289.5,3250 4389.5,3423 "/>
<polygon points="4489.5,3250 4389.5,3423 4289.5,3250 "/>
<polygon points="4289.5,3250 4189.5,3423 4089.5,3250 "/>
<polygon fill="#ED1C24" points="4089.5,3250 4189.5,3077 4289.5,3250 "/>
<polygon fill="#ED1C24" points="4289.5,3250 4389.5,3077 4489.5,3250 "/>
<polygon fill="#ED1C24" points="4389.5,3077 4289.5,3250 4189.5,3077 "/>
<polygon fill="#ED1C24" points="4189.5,3077 4289.5,2904 4389.5,3077 "/>
<polygon fill="#ED1C24" points="4489.5,2904 4389.5,3077 4289.5,2904 "/>
<polygon fill="#ED1C24" points="4289.5,2904 4189.5,3077 4089.5,2904 "/>
<polygon points="4089.5,2904 4189.5,2731 4289.5,2904 "/>
<polygon points="4289.5,2904 4389.5,2731 4489.5,2904 "/>
<polygon points="4389.5,2731 4289.5,2904 4189.5,2731 "/>
<polygon fill="#FFFFFF" points="4189.5,2731 4289.5,2558 4389.5,2731 "/>
<polygon points="4489.5,2558 4389.5,2731 4289.5,2558 "/>
<polygon fill="#FFFFFF" points="4289.5,2558 4189.5,2731 4089.5,2558 "/>
<polygon fill="#FFFFFF" points="4089.5,2558 4189.5,2385 4289.5,2558 "/>
<polygon points="4289.5,2558 4389.5,2385 4489.5,2558 "/>
<polygon points="4389.5,2385 4289.5,2558 4189.5,2385 "/>
<polygon fill="#ED1C24" points="4189.5,2385 4289.5,2212 4389.5,2385 "/>
<polygon fill="#ED1C24" points="4489.5,2212 4389.5,2385 4289.5,2212 "/>
<polygon fill="#ED1C24" points="4289.5,2212 4189.5,2385 4089.5,2212 "/>
<polygon fill="#ED1C24" points="4089.5,2212 4189.5,2039 4289.5,2212 "/>
<polygon fill="#ED1C24" points="4289.5,2212 4389.5,2039 4489.5,2212 "/>
<polygon fill="#ED1C24" points="4389.5,2039 4289.5,2212 4189.5,2039 "/>
<polygon points="4189.5,2039 4289.5,1866 4389.5,2039 "/>
<polygon points="4489.5,1866 4389.5,2039 4289.5,1866 "/>
<polygon fill="#ED1C24" points="4289.5,3942 4389.5,3769 4489.5,3942 "/>
<polygon points="4289.5,1866 4189.5,2039 4089.5,1866 "/>
<polygon fill="#ED1C24" points="4089.5,3942 4189.5,3769 4289.5,3942 "/>
<polygon fill="#ED1C24" points="4389.5,3769 4289.5,3942 4189.5,3769 "/>
<polygon fill="#F15A24" points="4089.5,1866 4189.5,1693 4289.5,1866 "/>
<polygon fill="#F15A24" points="4289.5,1866 4389.5,1693 4489.5,1866 "/>
<polygon fill="#F15A24" points="4389.5,1693 4289.5,1866 4189.5,1693 "/>
<polygon fill="#F15A24" points="4189.5,1693 4289.5,1520 4389.5,1693 "/>
<polygon fill="#F15A24" points="4489.5,1520 4389.5,1693 4289.5,1520 "/>
<polygon fill="#F15A24" points="4089.5,1520 4189.5,1347 4289.5,1520 "/>
<polygon fill="#F15A24" points="4289.5,1520 4389.5,1347 4489.5,1520 "/>
<polygon fill="#F15A24" points="4389.5,1347 4289.5,1520 4189.5,1347 "/>
<polygon fill="#F15A24" points="4189.5,1347 4289.5,1174 4389.5,1347 "/>
<polygon fill="#F15A24" points="4489.5,1174 4389.5,1347 4289.5,1174 "/>
<polygon fill="#F15A24" points="4289.5,1520 4189.5,1693 4089.5,1520 "/>
<polygon fill="#F15A24" points="4289.5,1174 4189.5,1347 4089.5,1174 "/>
<polygon points="3989.5,5845 4089.5,5672 4189.5,5845 "/>
<polygon fill="#42210B" points="4189.5,5499 4089.5,5672 3989.5,5499 "/>
<polygon fill="#42210B" points="3989.5,5499 4089.5,5326 4189.5,5499 "/>
<polygon fill="#42210B" points="4189.5,5153 4089.5,5326 3989.5,5153 "/>
<polygon fill="#42210B" points="3989.5,5153 4089.5,4980 4189.5,5153 "/>
<polygon fill="#ED1C24" points="4189.5,4807 4089.5,4980 3989.5,4807 "/>
<polygon fill="#ED1C24" points="3989.5,4807 4089.5,4634 4189.5,4807 "/>
<polygon fill="#ED1C24" points="4189.5,4461 4089.5,4634 3989.5,4461 "/>
<polygon points="4189.5,5845 4089.5,6018 3989.5,5845 "/>
<polygon fill="#42210B" points="1589.5,4115 1689.5,3942 1789.5,4115 "/>
<polygon points="1689.5,3942 1589.5,4115 1489.5,3942 "/>
<polygon points="1489.5,4288 1589.5,4115 1689.5,4288 "/>
<polygon fill="#42210B" points="1789.5,4115 1689.5,4288 1589.5,4115 "/>
<polygon fill="#42210B" points="1789.5,4115 1889.5,3942 1989.5,4115 "/>
<polygon fill="#42210B" points="1889.5,3942 1789.5,4115 1689.5,3942 "/>
<polygon points="1689.5,3942 1789.5,3769 1889.5,3942 "/>
<polygon points="1989.5,3769 1889.5,3942 1789.5,3769 "/>
<polygon points="1689.5,4288 1789.5,4115 1889.5,4288 "/>
<polygon points="1989.5,4115 1889.5,4288 1789.5,4115 "/>
<polygon points="1989.5,4115 2089.5,3942 2189.5,4115 "/>
<polygon fill="#42210B" points="2089.5,3942 1989.5,4115 1889.5,3942 "/>
<polygon fill="#42210B" points="1889.5,3942 1989.5,3769 2089.5,3942 "/>
<polygon fill="#42210B" points="2189.5,3769 2089.5,3942 1989.5,3769 "/>
<polygon points="1989.5,3769 2089.5,3596 2189.5,3769 "/>
<polygon fill="#F15A24" points="1889.5,4288 1989.5,4115 2089.5,4288 "/>
<polygon fill="#F15A24" points="2189.5,4115 2089.5,4288 1989.5,4115 "/>
<polygon fill="#F15A24" points="2189.5,4115 2289.5,3942 2389.5,4115 "/>
<polygon points="2289.5,3942 2189.5,4115 2089.5,3942 "/>
<polygon fill="#42210B" points="2089.5,3942 2189.5,3769 2289.5,3942 "/>
<polygon fill="#42210B" points="2389.5,3769 2289.5,3942 2189.5,3769 "/>
<polygon points="2189.5,3769 2289.5,3596 2389.5,3769 "/>
<polygon points="2289.5,3596 2189.5,3769 2089.5,3596 "/>
<polygon fill="#F15A24" points="2089.5,4288 2189.5,4115 2289.5,4288 "/>
<polygon fill="#F15A24" points="2389.5,4115 2289.5,4288 2189.5,4115 "/>
<polygon fill="#F15A24" points="2389.5,4115 2489.5,3942 2589.5,4115 "/>
<polygon fill="#F15A24" points="2489.5,3942 2389.5,4115 2289.5,3942 "/>
<polygon points="2289.5,3942 2389.5,3769 2489.5,3942 "/>
<polygon points="2589.5,3769 2489.5,3942 2389.5,3769 "/>
<polygon points="2389.5,3769 2489.5,3596 2589.5,3769 "/>
<polygon points="2489.5,3596 2389.5,3769 2289.5,3596 "/>
<polygon fill="#F15A24" points="2289.5,4288 2389.5,4115 2489.5,4288 "/>
<polygon fill="#F15A24" points="2589.5,4115 2489.5,4288 2389.5,4115 "/>
<polygon points="2589.5,4115 2689.5,3942 2789.5,4115 "/>
<polygon fill="#F15A24" points="2689.5,3942 2589.5,4115 2489.5,3942 "/>
<polygon points="2489.5,3942 2589.5,3769 2689.5,3942 "/>
<polygon points="2789.5,3769 2689.5,3942 2589.5,3769 "/>
<polygon points="2589.5,3769 2689.5,3596 2789.5,3769 "/>
<polygon points="2689.5,3596 2589.5,3769 2489.5,3596 "/>
<polygon points="2789.5,3077 2689.5,3250 2589.5,3077 "/>
<polygon points="2589.5,3077 2689.5,2904 2789.5,3077 "/>
<polygon points="2789.5,2731 2689.5,2904 2589.5,2731 "/>
<polygon points="2489.5,4288 2589.5,4115 2689.5,4288 "/>
<polygon points="2789.5,4115 2689.5,4288 2589.5,4115 "/>
<polygon fill="#ED1C24" points="2789.5,4115 2889.5,3942 2989.5,4115 "/>
<polygon fill="#ED1C24" points="2889.5,3942 2789.5,4115 2689.5,3942 "/>
<polygon fill="#ED1C24" points="2689.5,3942 2789.5,3769 2889.5,3942 "/>
<polygon fill="#ED1C24" points="2989.5,3769 2889.5,3942 2789.5,3769 "/>
<polygon fill="#ED1C24" points="2789.5,3769 2889.5,3596 2989.5,3769 "/>
<polygon fill="#ED1C24" points="2889.5,3596 2789.5,3769 2689.5,3596 "/>
<polygon points="2689.5,3596 2789.5,3423 2889.5,3596 "/>
<polygon points="2989.5,3423 2889.5,3596 2789.5,3423 "/>
<polygon points="2789.5,3423 2889.5,3250 2989.5,3423 "/>
<polygon points="2889.5,3250 2789.5,3423 2689.5,3250 "/>
<polygon points="2689.5,3250 2789.5,3077 2889.5,3250 "/>
<polygon points="2989.5,3077 2889.5,3250 2789.5,3077 "/>
<polygon fill="#F15A24" points="2789.5,3084 2889.5,2911 2989.5,3084 "/>
<polygon fill="#F15A24" points="2889.5,2911 2789.5,3084 2689.5,2911 "/>
<polygon points="2689.5,2904 2789.5,2731 2889.5,2904 "/>
<polygon points="2989.5,2731 2889.5,2904 2789.5,2731 "/>
<polygon fill="#ED1C24" points="2689.5,4288 2789.5,4115 2889.5,4288 "/>
<polygon fill="#ED1C24" points="2989.5,4115 2889.5,4288 2789.5,4115 "/>
<polygon fill="#ED1C24" points="2989.5,4115 3089.5,3942 3189.5,4115 "/>
<polygon fill="#ED1C24" points="3089.5,3942 2989.5,4115 2889.5,3942 "/>
<polygon fill="#ED1C24" points="2889.5,3942 2989.5,3769 3089.5,3942 "/>
<polygon fill="#ED1C24" points="3189.5,3769 3089.5,3942 2989.5,3769 "/>
<polygon points="2989.5,3769 3089.5,3596 3189.5,3769 "/>
<polygon points="3089.5,3596 2989.5,3769 2889.5,3596 "/>
<polygon points="2889.5,3596 2989.5,3423 3089.5,3596 "/>
<polygon fill="#F15A24" points="3189.5,3423 3089.5,3596 2989.5,3423 "/>
<polygon fill="#F15A24" points="2989.5,3423 3089.5,3250 3189.5,3423 "/>
<polygon fill="#F15A24" points="3089.5,3250 2989.5,3423 2889.5,3250 "/>
<polygon points="2889.5,3250 2989.5,3077 3089.5,3250 "/>
<polygon points="3189.5,3077 3089.5,3250 2989.5,3077 "/>
<polygon points="2989.5,3077 3089.5,2904 3189.5,3077 "/>
<polygon fill="#F15A24" points="3089.5,2911 2989.5,3084 2889.5,2911 "/>
<polygon points="2889.5,2904 2989.5,2731 3089.5,2904 "/>
<polygon fill="#F15A24" points="3189.5,2738 3089.5,2911 2989.5,2738 "/>
<polygon fill="#ED1C24" points="2889.5,4288 2989.5,4115 3089.5,4288 "/>
<polygon fill="#ED1C24" points="3189.5,4115 3089.5,4288 2989.5,4115 "/>
<polygon fill="#ED1C24" points="3189.5,4115 3289.5,3942 3389.5,4115 "/>
<polygon fill="#ED1C24" points="3289.5,3942 3189.5,4115 3089.5,3942 "/>
<polygon fill="#ED1C24" points="3089.5,3942 3189.5,3769 3289.5,3942 "/>
<polygon fill="#ED1C24" points="3389.5,3769 3289.5,3942 3189.5,3769 "/>
<polygon fill="#ED1C24" points="3189.5,3769 3289.5,3596 3389.5,3769 "/>
<polygon points="3289.5,3596 3189.5,3769 3089.5,3596 "/>
<polygon points="3089.5,3596 3189.5,3423 3289.5,3596 "/>
<polygon points="3389.5,3423 3289.5,3596 3189.5,3423 "/>
<polygon points="3189.5,3423 3289.5,3250 3389.5,3423 "/>
<polygon fill="#F15A24" points="3289.5,3250 3189.5,3423 3089.5,3250 "/>
<polygon fill="#F15A24" points="3089.5,3250 3189.5,3077 3289.5,3250 "/>
<polygon fill="#F15A24" points="3389.5,3077 3289.5,3250 3189.5,3077 "/>
<polygon fill="#F15A24" points="3189.5,3077 3289.5,2904 3389.5,3077 "/>
<polygon points="3289.5,2904 3189.5,3077 3089.5,2904 "/>
<polygon points="3089.5,2904 3189.5,2731 3289.5,2904 "/>
<polygon points="3389.5,2731 3289.5,2904 3189.5,2731 "/>
<polygon fill="#ED1C24" points="3089.5,4288 3189.5,4115 3289.5,4288 "/>
<polygon fill="#ED1C24" points="3389.5,4115 3289.5,4288 3189.5,4115 "/>
<polygon fill="#ED1C24" points="3389.5,4115 3489.5,3942 3589.5,4115 "/>
<polygon fill="#ED1C24" points="3489.5,3942 3389.5,4115 3289.5,3942 "/>
<polygon fill="#ED1C24" points="3289.5,3942 3389.5,3769 3489.5,3942 "/>
<polygon fill="#ED1C24" points="3589.5,3769 3489.5,3942 3389.5,3769 "/>
<polygon fill="#ED1C24" points="3389.5,3769 3489.5,3596 3589.5,3769 "/>
<polygon fill="#ED1C24" points="3489.5,3596 3389.5,3769 3289.5,3596 "/>
<polygon fill="#ED1C24" points="3289.5,3596 3389.5,3423 3489.5,3596 "/>
<polygon fill="#ED1C24" points="3589.5,3423 3489.5,3596 3389.5,3423 "/>
<polygon fill="#ED1C24" points="3389.5,3423 3489.5,3250 3589.5,3423 "/>
<polygon points="3489.5,3250 3389.5,3423 3289.5,3250 "/>
<polygon points="3289.5,3250 3389.5,3077 3489.5,3250 "/>
<polygon points="3589.5,3077 3489.5,3250 3389.5,3077 "/>
<polygon points="3389.5,3077 3489.5,2904 3589.5,3077 "/>
<polygon fill="#F15A24" points="3489.5,2904 3389.5,3077 3289.5,2904 "/>
<polygon fill="#F15A24" points="3289.5,2904 3389.5,2731 3489.5,2904 "/>
<polygon fill="#F15A24" points="3589.5,2731 3489.5,2904 3389.5,2731 "/>
<polygon fill="#ED1C24" points="3289.5,4288 3389.5,4115 3489.5,4288 "/>
<polygon fill="#ED1C24" points="3589.5,4115 3489.5,4288 3389.5,4115 "/>
<polygon fill="#ED1C24" points="3589.5,4115 3689.5,3942 3789.5,4115 "/>
<polygon fill="#ED1C24" points="3689.5,3942 3589.5,4115 3489.5,3942 "/>
<polygon fill="#ED1C24" points="3489.5,3942 3589.5,3769 3689.5,3942 "/>
<polygon fill="#ED1C24" points="3789.5,3769 3689.5,3942 3589.5,3769 "/>
<polygon fill="#ED1C24" points="3589.5,3769 3689.5,3596 3789.5,3769 "/>
<polygon fill="#ED1C24" points="3689.5,3596 3589.5,3769 3489.5,3596 "/>
<polygon fill="#ED1C24" points="3489.5,3596 3589.5,3423 3689.5,3596 "/>
<polygon fill="#ED1C24" points="3789.5,3423 3689.5,3596 3589.5,3423 "/>
<polygon fill="#ED1C24" points="3589.5,3423 3689.5,3250 3789.5,3423 "/>
<polygon fill="#ED1C24" points="3689.5,3250 3589.5,3423 3489.5,3250 "/>
<polygon fill="#ED1C24" points="3489.5,3250 3589.5,3077 3689.5,3250 "/>
<polygon points="3789.5,3077 3689.5,3250 3589.5,3077 "/>
<polygon fill="#ED1C24" points="3589.5,3077 3689.5,2904 3789.5,3077 "/>
<polygon points="3689.5,2904 3589.5,3077 3489.5,2904 "/>
<polygon points="3489.5,2904 3589.5,2731 3689.5,2904 "/>
<polygon fill="#ED1C24" points="3789.5,2731 3689.5,2904 3589.5,2731 "/>
<polygon fill="#ED1C24" points="3489.5,4288 3589.5,4115 3689.5,4288 "/>
<polygon fill="#ED1C24" points="3789.5,4115 3689.5,4288 3589.5,4115 "/>
<polygon fill="#ED1C24" points="3789.5,4115 3889.5,3942 3989.5,4115 "/>
<polygon fill="#ED1C24" points="4089.5,3942 3989.5,4115 3889.5,3942 "/>
<polygon fill="#ED1C24" points="3889.5,3942 3789.5,4115 3689.5,3942 "/>
<polygon fill="#ED1C24" points="3689.5,3942 3789.5,3769 3889.5,3942 "/>
<polygon fill="#ED1C24" points="3889.5,3942 3989.5,3769 4089.5,3942 "/>
<polygon fill="#ED1C24" points="3989.5,3769 3889.5,3942 3789.5,3769 "/>
<polygon fill="#ED1C24" points="3789.5,3769 3889.5,3596 3989.5,3769 "/>
<polygon fill="#ED1C24" points="4089.5,3596 3989.5,3769 3889.5,3596 "/>
<polygon fill="#ED1C24" points="3889.5,3596 3789.5,3769 3689.5,3596 "/>
<polygon fill="#ED1C24" points="3689.5,3596 3789.5,3423 3889.5,3596 "/>
<polygon fill="#ED1C24" points="3889.5,3596 3989.5,3423 4089.5,3596 "/>
<polygon fill="#ED1C24" points="3989.5,3423 3889.5,3596 3789.5,3423 "/>
<polygon fill="#ED1C24" points="3789.5,3423 3889.5,3250 3989.5,3423 "/>
<polygon points="4089.5,3250 3989.5,3423 3889.5,3250 "/>
<polygon fill="#ED1C24" points="3889.5,3250 3789.5,3423 3689.5,3250 "/>
<polygon points="3689.5,3250 3789.5,3077 3889.5,3250 "/>
<polygon fill="#ED1C24" points="3889.5,3250 3989.5,3077 4089.5,3250 "/>
<polygon fill="#ED1C24" points="3989.5,3077 3889.5,3250 3789.5,3077 "/>
<polygon fill="#ED1C24" points="3789.5,3077 3889.5,2904 3989.5,3077 "/>
<polygon fill="#ED1C24" points="4089.5,2904 3989.5,3077 3889.5,2904 "/>
<polygon fill="#ED1C24" points="3889.5,2904 3789.5,3077 3689.5,2904 "/>
<polygon fill="#ED1C24" points="3689.5,2904 3789.5,2731 3889.5,2904 "/>
<polygon fill="#ED1C24" points="3889.5,2904 3989.5,2731 4089.5,2904 "/>
<polygon fill="#ED1C24" points="3989.5,2731 3889.5,2904 3789.5,2731 "/>
<polygon fill="#ED1C24" points="3889.5,4288 3989.5,4115 4089.5,4288 "/>
<polygon fill="#ED1C24" points="3689.5,4288 3789.5,4115 3889.5,4288 "/>
<polygon fill="#ED1C24" points="3989.5,4115 3889.5,4288 3789.5,4115 "/>
<polygon fill="#ED1C24" points="3989.5,4115 4089.5,3942 4189.5,4115 "/>
<polygon fill="#ED1C24" points="4189.5,3769 4089.5,3942 3989.5,3769 "/>
<polygon fill="#ED1C24" points="3989.5,3769 4089.5,3596 4189.5,3769 "/>
<polygon fill="#ED1C24" points="4189.5,3423 4089.5,3596 3989.5,3423 "/>
<polygon points="3989.5,3423 4089.5,3250 4189.5,3423 "/>
<polygon fill="#ED1C24" points="4189.5,3077 4089.5,3250 3989.5,3077 "/>
<polygon fill="#ED1C24" points="3989.5,3077 4089.5,2904 4189.5,3077 "/>
<polygon points="4189.5,2731 4089.5,2904 3989.5,2731 "/>
<polygon fill="#ED1C24" points="4189.5,4115 4089.5,4288 3989.5,4115 "/>
<polygon points="2689.5,2558 2589.5,2731 2489.5,2558 "/>
<polygon fill="#F15A24" points="2589.5,2392 2689.5,2219 2789.5,2392 "/>
<polygon points="2689.5,2212 2589.5,2385 2489.5,2212 "/>
<polygon points="2489.5,2212 2589.5,2039 2689.5,2212 "/>
<polygon fill="#F15A24" points="2789.5,2046 2689.5,2219 2589.5,2046 "/>
<polygon points="2589.5,2039 2689.5,1866 2789.5,2039 "/>
<polygon points="2589.5,2731 2689.5,2558 2789.5,2731 "/>
<polygon fill="#F15A24" points="2889.5,2565 2789.5,2738 2689.5,2565 "/>
<polygon points="2489.5,2558 2589.5,2385 2689.5,2558 "/>
<polygon fill="#F15A24" points="2789.5,2392 2689.5,2565 2589.5,2392 "/>
<polygon fill="#F15A24" points="2789.5,2392 2889.5,2219 2989.5,2392 "/>
<polygon points="2889.5,2212 2789.5,2385 2689.5,2212 "/>
<polygon points="2689.5,2212 2789.5,2039 2889.5,2212 "/>
<polygon fill="#F15A24" points="2989.5,2046 2889.5,2219 2789.5,2046 "/>
<polygon points="2789.5,2039 2889.5,1866 2989.5,2039 "/>
<polygon fill="#F15A24" points="2889.5,1873 2789.5,2046 2689.5,1873 "/>
<polygon points="2689.5,1866 2789.5,1693 2889.5,1866 "/>
<polygon fill="#F15A24" points="2989.5,1700 2889.5,1873 2789.5,1700 "/>
<polygon points="2789.5,1693 2889.5,1520 2989.5,1693 "/>
<polygon fill="#F15A24" points="2789.5,2738 2889.5,2565 2989.5,2738 "/>
<polygon fill="#F15A24" points="3089.5,2565 2989.5,2738 2889.5,2565 "/>
<polygon points="2689.5,2558 2789.5,2385 2889.5,2558 "/>
<polygon points="2989.5,2385 2889.5,2558 2789.5,2385 "/>
<polygon fill="#F15A24" points="2989.5,2392 3089.5,2219 3189.5,2392 "/>
<polygon points="3089.5,2212 2989.5,2385 2889.5,2212 "/>
<polygon fill="#F15A24" points="2889.5,2219 2989.5,2046 3089.5,2219 "/>
<polygon points="3189.5,2039 3089.5,2212 2989.5,2039 "/>
<polygon points="2989.5,2039 3089.5,1866 3189.5,2039 "/>
<polygon fill="#F15A24" points="3089.5,1873 2989.5,2046 2889.5,1873 "/>
<polygon points="2889.5,1866 2989.5,1693 3089.5,1866 "/>
<polygon points="3189.5,1693 3089.5,1866 2989.5,1693 "/>
<polygon fill="#F15A24" points="2989.5,1700 3089.5,1527 3189.5,1700 "/>
<polygon points="3089.5,1520 2989.5,1693 2889.5,1520 "/>
<polygon points="2989.5,2731 3089.5,2558 3189.5,2731 "/>
<polygon fill="#F15A24" points="3289.5,2565 3189.5,2738 3089.5,2565 "/>
<polygon fill="#F15A24" points="2889.5,2565 2989.5,2392 3089.5,2565 "/>
<polygon fill="#F15A24" points="3189.5,2392 3089.5,2565 2989.5,2392 "/>
<polygon points="3189.5,2385 3289.5,2212 3389.5,2385 "/>
<polygon fill="#F15A24" points="3289.5,2219 3189.5,2392 3089.5,2219 "/>
<polygon fill="#F15A24" points="3089.5,2219 3189.5,2046 3289.5,2219 "/>
<polygon fill="#F15A24" points="3389.5,2046 3289.5,2219 3189.5,2046 "/>
<polygon fill="#F15A24" points="3189.5,2046 3289.5,1873 3389.5,2046 "/>
<polygon fill="#F15A24" points="3289.5,1873 3189.5,2046 3089.5,1873 "/>
<polygon fill="#F15A24" points="3089.5,1873 3189.5,1700 3289.5,1873 "/>
<polygon fill="#F15A24" points="3389.5,1700 3289.5,1873 3189.5,1700 "/>
<polygon fill="#F15A24" points="3189.5,1700 3289.5,1527 3389.5,1700 "/>
<polygon fill="#F15A24" points="3289.5,1527 3189.5,1700 3089.5,1527 "/>
<polygon points="3089.5,1520 3189.5,1347 3289.5,1520 "/>
<polygon fill="#F15A24" points="3389.5,1354 3289.5,1527 3189.5,1354 "/>
<polygon points="3189.5,1347 3289.5,1174 3389.5,1347 "/>
<polygon points="3189.5,2731 3289.5,2558 3389.5,2731 "/>
<polygon points="3489.5,2558 3389.5,2731 3289.5,2558 "/>
<polygon points="3089.5,2558 3189.5,2385 3289.5,2558 "/>
<polygon fill="#F15A24" points="3389.5,2392 3289.5,2565 3189.5,2392 "/>
<polygon points="3389.5,2385 3489.5,2212 3589.5,2385 "/>
<polygon fill="#F15A24" points="3489.5,2219 3389.5,2392 3289.5,2219 "/>
<polygon points="3289.5,2212 3389.5,2039 3489.5,2212 "/>
<polygon fill="#F15A24" points="3589.5,2046 3489.5,2219 3389.5,2046 "/>
<polygon fill="#F15A24" points="3389.5,2046 3489.5,1873 3589.5,2046 "/>
<polygon points="3489.5,1866 3389.5,2039 3289.5,1866 "/>
<polygon points="3289.5,1866 3389.5,1693 3489.5,1866 "/>
<polygon fill="#F15A24" points="3589.5,1700 3489.5,1873 3389.5,1700 "/>
<polygon fill="#F15A24" points="3389.5,1700 3489.5,1527 3589.5,1700 "/>
<polygon points="3489.5,1520 3389.5,1693 3289.5,1520 "/>
<polygon fill="#F15A24" points="3289.5,1527 3389.5,1354 3489.5,1527 "/>
<polygon points="3589.5,1347 3489.5,1520 3389.5,1347 "/>
<polygon points="3389.5,1347 3489.5,1174 3589.5,1347 "/>
<polygon points="3489.5,1174 3389.5,1347 3289.5,1174 "/>
<polygon fill="#F15A24" points="3389.5,2731 3489.5,2558 3589.5,2731 "/>
<polygon points="3689.5,2558 3589.5,2731 3489.5,2558 "/>
<polygon points="3289.5,2558 3389.5,2385 3489.5,2558 "/>
<polygon points="3589.5,2385 3489.5,2558 3389.5,2385 "/>
<polygon points="3589.5,2385 3689.5,2212 3789.5,2385 "/>
<polygon fill="#F15A24" points="3689.5,2212 3589.5,2385 3489.5,2212 "/>
<polygon points="3489.5,2212 3589.5,2039 3689.5,2212 "/>
<polygon fill="#F15A24" points="3789.5,2039 3689.5,2212 3589.5,2039 "/>
<polygon fill="#F15A24" points="3589.5,2039 3689.5,1866 3789.5,2039 "/>
<polygon points="3689.5,1866 3589.5,2039 3489.5,1866 "/>
<polygon points="3489.5,1866 3589.5,1693 3689.5,1866 "/>
<polygon fill="#F15A24" points="3789.5,1693 3689.5,1866 3589.5,1693 "/>
<polygon fill="#F15A24" points="3589.5,1693 3689.5,1520 3789.5,1693 "/>
<polygon points="3689.5,1520 3589.5,1693 3489.5,1520 "/>
<polygon points="3489.5,1520 3589.5,1347 3689.5,1520 "/>
<polygon fill="#F15A24" points="3789.5,1347 3689.5,1520 3589.5,1347 "/>
<polygon fill="#F15A24" points="3589.5,1347 3689.5,1174 3789.5,1347 "/>
<polygon fill="#F15A24" points="3689.5,1174 3589.5,1347 3489.5,1174 "/>
<polygon fill="#ED1C24" points="3589.5,2731 3689.5,2558 3789.5,2731 "/>
<polygon fill="#ED1C24" points="3889.5,2558 3789.5,2731 3689.5,2558 "/>
<polygon points="3489.5,2558 3589.5,2385 3689.5,2558 "/>
<polygon points="3789.5,2385 3689.5,2558 3589.5,2385 "/>
<polygon fill="#ED1C24" points="3789.5,2385 3889.5,2212 3989.5,2385 "/>
<polygon points="4089.5,2212 3989.5,2385 3889.5,2212 "/>
<polygon points="3889.5,2212 3789.5,2385 3689.5,2212 "/>
<polygon points="3689.5,2212 3789.5,2039 3889.5,2212 "/>
<polygon fill="#ED1C24" points="3889.5,2212 3989.5,2039 4089.5,2212 "/>
<polygon points="3989.5,2039 3889.5,2212 3789.5,2039 "/>
<polygon fill="#F15A24" points="3789.5,2039 3889.5,1866 3989.5,2039 "/>
<polygon fill="#F15A24" points="4089.5,1866 3989.5,2039 3889.5,1866 "/>
<polygon fill="#F15A24" points="3889.5,1866 3789.5,2039 3689.5,1866 "/>
<polygon fill="#F15A24" points="3689.5,1866 3789.5,1693 3889.5,1866 "/>
<polygon fill="#F15A24" points="3889.5,1866 3989.5,1693 4089.5,1866 "/>
<polygon fill="#F15A24" points="3989.5,1693 3889.5,1866 3789.5,1693 "/>
<polygon fill="#F15A24" points="3789.5,1693 3889.5,1520 3989.5,1693 "/>
<polygon fill="#F15A24" points="4089.5,1520 3989.5,1693 3889.5,1520 "/>
<polygon fill="#F15A24" points="3889.5,1520 3789.5,1693 3689.5,1520 "/>
<polygon fill="#F15A24" points="3689.5,1520 3789.5,1347 3889.5,1520 "/>
<polygon fill="#F15A24" points="3889.5,1520 3989.5,1347 4089.5,1520 "/>
<polygon fill="#F15A24" points="3989.5,1347 3889.5,1520 3789.5,1347 "/>
<polygon fill="#F15A24" points="3789.5,1347 3889.5,1174 3989.5,1347 "/>
<polygon fill="#F15A24" points="4089.5,1174 3989.5,1347 3889.5,1174 "/>
<polygon fill="#F15A24" points="3889.5,1174 3789.5,1347 3689.5,1174 "/>
<polygon fill="#ED1C24" points="3789.5,2731 3889.5,2558 3989.5,2731 "/>
<polygon points="3989.5,2731 4089.5,2558 4189.5,2731 "/>
<polygon points="4089.5,2558 3989.5,2731 3889.5,2558 "/>
<polygon points="3889.5,2558 3989.5,2385 4089.5,2558 "/>
<polygon fill="#ED1C24" points="3689.5,2558 3789.5,2385 3889.5,2558 "/>
<polygon fill="#ED1C24" points="3989.5,2385 3889.5,2558 3789.5,2385 "/>
<polygon points="3989.5,2385 4089.5,2212 4189.5,2385 "/>
<polygon fill="#ED1C24" points="4189.5,2039 4089.5,2212 3989.5,2039 "/>
<polygon points="3989.5,2039 4089.5,1866 4189.5,2039 "/>
<polygon fill="#F15A24" points="4189.5,1693 4089.5,1866 3989.5,1693 "/>
<polygon fill="#F15A24" points="3989.5,1693 4089.5,1520 4189.5,1693 "/>
<polygon fill="#F15A24" points="4189.5,1347 4089.5,1520 3989.5,1347 "/>
<polygon fill="#F15A24" points="3989.5,1347 4089.5,1174 4189.5,1347 "/>
<polygon fill="#FFFFFF" points="4189.5,2385 4089.5,2558 3989.5,2385 "/>
<polygon points="1689.5,4288 1589.5,4461 1489.5,4288 "/>
<polygon points="1589.5,4461 1689.5,4288 1789.5,4461 "/>
<polygon points="1889.5,4288 1789.5,4461 1689.5,4288 "/>
<polygon points="1789.5,4461 1889.5,4288 1989.5,4461 "/>
<polygon points="2089.5,4288 1989.5,4461 1889.5,4288 "/>
<polygon points="1989.5,4461 2089.5,4288 2189.5,4461 "/>
<polygon points="2289.5,4288 2189.5,4461 2089.5,4288 "/>
<polygon points="2189.5,4461 2289.5,4288 2389.5,4461 "/>
<polygon fill="#F15A24" points="2489.5,4288 2389.5,4461 2289.5,4288 "/>
<polygon points="2389.5,4461 2489.5,4288 2589.5,4461 "/>
<polygon points="2689.5,4288 2589.5,4461 2489.5,4288 "/>
<polygon fill="#ED1C24" points="2589.5,4461 2689.5,4288 2789.5,4461 "/>
<polygon fill="#ED1C24" points="2889.5,4288 2789.5,4461 2689.5,4288 "/>
<polygon fill="#ED1C24" points="2789.5,4461 2889.5,4288 2989.5,4461 "/>
<polygon fill="#ED1C24" points="3089.5,4288 2989.5,4461 2889.5,4288 "/>
<polygon fill="#ED1C24" points="2989.5,4461 3089.5,4288 3189.5,4461 "/>
<polygon fill="#ED1C24" points="3289.5,4288 3189.5,4461 3089.5,4288 "/>
<polygon fill="#ED1C24" points="3189.5,4461 3289.5,4288 3389.5,4461 "/>
<polygon fill="#ED1C24" points="3489.5,4288 3389.5,4461 3289.5,4288 "/>
<polygon fill="#ED1C24" points="3389.5,4461 3489.5,4288 3589.5,4461 "/>
<polygon fill="#ED1C24" points="3689.5,4288 3589.5,4461 3489.5,4288 "/>
<polygon fill="#ED1C24" points="3589.5,4461 3689.5,4288 3789.5,4461 "/>
<polygon fill="#ED1C24" points="3889.5,4288 3789.5,4461 3689.5,4288 "/>
<polygon fill="#ED1C24" points="3789.5,4461 3889.5,4288 3989.5,4461 "/>
<polygon fill="#ED1C24" points="3989.5,4461 4089.5,4288 4189.5,4461 "/>
<polygon fill="#ED1C24" points="4089.5,4288 3989.5,4461 3889.5,4288 "/>
<polygon points="4289.5,6018 4189.5,6191 4089.5,6018 "/>
<polygon fill="#FFAF00" points="1189.5,6883 1289.5,6710 1389.5,6883 "/>
<polygon fill="#F15A24" points="1389.5,6883 1489.5,6710 1589.5,6883 "/>
<polygon fill="#FFAF00" points="1489.5,6710 1389.5,6883 1289.5,6710 "/>
<polygon fill="#FFAF00" points="1289.5,6710 1389.5,6537 1489.5,6710 "/>
<polygon fill="#FFAF00" points="1589.5,6537 1489.5,6710 1389.5,6537 "/>
<polygon fill="#FFAF00" points="1389.5,6537 1489.5,6364 1589.5,6537 "/>
<polygon fill="#FFAF00" points="1589.5,6191 1489.5,6364 1389.5,6191 "/>
<polygon fill="#FFAF00" points="1389.5,6191 1489.5,6018 1589.5,6191 "/>
<polygon fill="#F15A24" points="1589.5,6883 1689.5,6710 1789.5,6883 "/>
<polygon fill="#F15A24" points="1689.5,6710 1589.5,6883 1489.5,6710 "/>
<polygon fill="#F15A24" points="1489.5,6710 1589.5,6537 1689.5,6710 "/>
<polygon fill="#F15A24" points="1789.5,6537 1689.5,6710 1589.5,6537 "/>
<polygon fill="#F15A24" points="1589.5,6537 1689.5,6364 1789.5,6537 "/>
<polygon fill="#FFAF00" points="1689.5,6364 1589.5,6537 1489.5,6364 "/>
<polygon fill="#FFAF00" points="1489.5,6364 1589.5,6191 1689.5,6364 "/>
<polygon fill="#F15A24" points="1789.5,6191 1689.5,6364 1589.5,6191 "/>
<polygon fill="#F15A24" points="1589.5,6191 1689.5,6018 1789.5,6191 "/>
<polygon fill="#FFAF00" points="1689.5,6018 1589.5,6191 1489.5,6018 "/>
<polygon fill="#FFAF00" points="1789.5,6883 1889.5,6710 1989.5,6883 "/>
<polygon fill="#F15A24" points="1889.5,6710 1789.5,6883 1689.5,6710 "/>
<polygon fill="#F15A24" points="1689.5,6710 1789.5,6537 1889.5,6710 "/>
<polygon fill="#F15A24" points="1989.5,6537 1889.5,6710 1789.5,6537 "/>
<polygon fill="#F15A24" points="1789.5,6537 1889.5,6364 1989.5,6537 "/>
<polygon fill="#F15A24" points="1889.5,6364 1789.5,6537 1689.5,6364 "/>
<polygon fill="#F15A24" points="1689.5,6364 1789.5,6191 1889.5,6364 "/>
<polygon fill="#F15A24" points="1989.5,6191 1889.5,6364 1789.5,6191 "/>
<polygon fill="#F15A24" points="1789.5,6191 1889.5,6018 1989.5,6191 "/>
<polygon fill="#F15A24" points="1889.5,6018 1789.5,6191 1689.5,6018 "/>
<polygon fill="#FFAF00" points="1989.5,6883 2089.5,6710 2189.5,6883 "/>
<polygon fill="#FFAF00" points="2089.5,6710 1989.5,6883 1889.5,6710 "/>
<polygon fill="#F15A24" points="1889.5,6710 1989.5,6537 2089.5,6710 "/>
<polygon fill="#F15A24" points="2189.5,6537 2089.5,6710 1989.5,6537 "/>
<polygon fill="#F15A24" points="1989.5,6537 2089.5,6364 2189.5,6537 "/>
<polygon fill="#F15A24" points="2089.5,6364 1989.5,6537 1889.5,6364 "/>
<polygon fill="#F15A24" points="1889.5,6364 1989.5,6191 2089.5,6364 "/>
<polygon fill="#F15A24" points="2189.5,6191 2089.5,6364 1989.5,6191 "/>
<polygon fill="#F15A24" points="1989.5,6191 2089.5,6018 2189.5,6191 "/>
<polygon fill="#F15A24" points="2089.5,6018 1989.5,6191 1889.5,6018 "/>
<polygon fill="#FFAF00" points="2289.5,6710 2189.5,6883 2089.5,6710 "/>
<polygon fill="#FFAF00" points="2089.5,6710 2189.5,6537 2289.5,6710 "/>
<polygon fill="#FFAF00" points="2389.5,6537 2289.5,6710 2189.5,6537 "/>
<polygon fill="#FFAF00" points="2189.5,6537 2289.5,6364 2389.5,6537 "/>
<polygon fill="#F15A24" points="2289.5,6364 2189.5,6537 2089.5,6364 "/>
<polygon fill="#F15A24" points="2089.5,6364 2189.5,6191 2289.5,6364 "/>
<polygon fill="#F15A24" points="2389.5,6191 2289.5,6364 2189.5,6191 "/>
<polygon fill="#F15A24" points="2189.5,6191 2289.5,6018 2389.5,6191 "/>
<polygon fill="#F15A24" points="2289.5,6018 2189.5,6191 2089.5,6018 "/>
<polygon fill="#FFAF00" points="2489.5,6364 2389.5,6537 2289.5,6364 "/>
<polygon fill="#FFAF00" points="2289.5,6364 2389.5,6191 2489.5,6364 "/>
<polygon fill="#FFAF00" points="2589.5,6191 2489.5,6364 2389.5,6191 "/>
<polygon fill="#FFAF00" points="2389.5,6191 2489.5,6018 2589.5,6191 "/>
<polygon fill="#F15A24" points="2489.5,6018 2389.5,6191 2289.5,6018 "/>
<polygon fill="#FFAF00" points="2589.5,6191 2689.5,6018 2789.5,6191 "/>
<polygon fill="#FFAF00" points="2689.5,6018 2589.5,6191 2489.5,6018 "/>
<polygon fill="#FFAF00" points="2889.5,6018 2789.5,6191 2689.5,6018 "/>
<polygon points="4089.5,6018 3989.5,6191 3889.5,6018 "/>
<polygon points="3989.5,6191 4089.5,6018 4189.5,6191 "/>
<polygon points="4589.5,5499 4489.5,5672 4389.5,5499 "/>
<polygon points="4389.5,5499 4489.5,5326 4589.5,5499 "/>
<polygon points="4589.5,5153 4489.5,5326 4389.5,5153 "/>
<polygon points="4389.5,5153 4489.5,4980 4589.5,5153 "/>
<polygon points="4589.5,4807 4489.5,4980 4389.5,4807 "/>
<polygon fill="#ED1C24" points="4389.5,4807 4489.5,4634 4589.5,4807 "/>
<polygon fill="#ED1C24" points="4589.5,4461 4489.5,4634 4389.5,4461 "/>
<polygon points="4489.5,4980 4589.5,4807 4689.5,4980 "/>
<polygon points="4789.5,4807 4689.5,4980 4589.5,4807 "/>
<polygon points="4589.5,4807 4689.5,4634 4789.5,4807 "/>
<polygon fill="#ED1C24" points="4689.5,4634 4589.5,4807 4489.5,4634 "/>
<polygon fill="#ED1C24" points="4489.5,4634 4589.5,4461 4689.5,4634 "/>
<polygon fill="#ED1C24" points="4789.5,4461 4689.5,4634 4589.5,4461 "/>
<polygon points="4889.5,4634 4789.5,4807 4689.5,4634 "/>
<polygon fill="#ED1C24" points="4689.5,4634 4789.5,4461 4889.5,4634 "/>
<polygon fill="#ED1C24" points="4989.5,4461 4889.5,4634 4789.5,4461 "/>
<polygon points="4889.5,4634 4989.5,4461 5089.5,4634 "/>
<polygon points="5189.5,4461 5089.5,4634 4989.5,4461 "/>
<polygon fill="#ED1C24" points="4389.5,4115 4489.5,3942 4589.5,4115 "/>
<polygon fill="#ED1C24" points="4589.5,3769 4489.5,3942 4389.5,3769 "/>
<polygon fill="#ED1C24" points="4389.5,3769 4489.5,3596 4589.5,3769 "/>
<polygon fill="#ED1C24" points="4589.5,3423 4489.5,3596 4389.5,3423 "/>
<polygon points="4389.5,3423 4489.5,3250 4589.5,3423 "/>
<polygon fill="#ED1C24" points="4589.5,3077 4489.5,3250 4389.5,3077 "/>
<polygon fill="#ED1C24" points="4389.5,3077 4489.5,2904 4589.5,3077 "/>
<polygon points="4589.5,2731 4489.5,2904 4389.5,2731 "/>
<polygon fill="#ED1C24" points="4589.5,4115 4489.5,4288 4389.5,4115 "/>
<polygon fill="#ED1C24" points="4589.5,4115 4689.5,3942 4789.5,4115 "/>
<polygon fill="#ED1C24" points="4689.5,3942 4589.5,4115 4489.5,3942 "/>
<polygon fill="#ED1C24" points="4489.5,3942 4589.5,3769 4689.5,3942 "/>
<polygon fill="#ED1C24" points="4789.5,3769 4689.5,3942 4589.5,3769 "/>
<polygon fill="#ED1C24" points="4589.5,3769 4689.5,3596 4789.5,3769 "/>
<polygon fill="#ED1C24" points="4689.5,3596 4589.5,3769 4489.5,3596 "/>
<polygon fill="#ED1C24" points="4489.5,3596 4589.5,3423 4689.5,3596 "/>
<polygon points="4789.5,3423 4689.5,3596 4589.5,3423 "/>
<polygon points="4589.5,3423 4689.5,3250 4789.5,3423 "/>
<polygon points="4689.5,3250 4589.5,3423 4489.5,3250 "/>
<polygon fill="#ED1C24" points="4489.5,3250 4589.5,3077 4689.5,3250 "/>
<polygon fill="#ED1C24" points="4789.5,3077 4689.5,3250 4589.5,3077 "/>
<polygon fill="#ED1C24" points="4589.5,3077 4689.5,2904 4789.5,3077 "/>
<polygon fill="#ED1C24" points="4689.5,2904 4589.5,3077 4489.5,2904 "/>
<polygon points="4489.5,2904 4589.5,2731 4689.5,2904 "/>
<polygon points="4789.5,2731 4689.5,2904 4589.5,2731 "/>
<polygon fill="#ED1C24" points="4489.5,4288 4589.5,4115 4689.5,4288 "/>
<polygon fill="#ED1C24" points="4789.5,4115 4689.5,4288 4589.5,4115 "/>
<polygon fill="#ED1C24" points="4789.5,4115 4889.5,3942 4989.5,4115 "/>
<polygon fill="#ED1C24" points="4889.5,3942 4789.5,4115 4689.5,3942 "/>
<polygon fill="#ED1C24" points="4689.5,3942 4789.5,3769 4889.5,3942 "/>
<polygon fill="#ED1C24" points="4989.5,3769 4889.5,3942 4789.5,3769 "/>
<polygon fill="#ED1C24" points="4789.5,3769 4889.5,3596 4989.5,3769 "/>
<polygon fill="#ED1C24" points="4889.5,3596 4789.5,3769 4689.5,3596 "/>
<polygon points="4689.5,3596 4789.5,3423 4889.5,3596 "/>
<polygon points="4989.5,3423 4889.5,3596 4789.5,3423 "/>
<polygon fill="#ED1C24" points="4789.5,3423 4889.5,3250 4989.5,3423 "/>
<polygon fill="#ED1C24" points="4889.5,3250 4789.5,3423 4689.5,3250 "/>
<polygon fill="#ED1C24" points="4689.5,3250 4789.5,3077 4889.5,3250 "/>
<polygon fill="#ED1C24" points="4989.5,3077 4889.5,3250 4789.5,3077 "/>
<polygon fill="#ED1C24" points="4789.5,3077 4889.5,2904 4989.5,3077 "/>
<polygon fill="#ED1C24" points="4889.5,2904 4789.5,3077 4689.5,2904 "/>
<polygon fill="#ED1C24" points="4689.5,2904 4789.5,2731 4889.5,2904 "/>
<polygon fill="#ED1C24" points="4989.5,2731 4889.5,2904 4789.5,2731 "/>
<polygon fill="#ED1C24" points="4689.5,4288 4789.5,4115 4889.5,4288 "/>
<polygon fill="#ED1C24" points="4989.5,4115 4889.5,4288 4789.5,4115 "/>
<polygon fill="#ED1C24" points="4989.5,4115 5089.5,3942 5189.5,4115 "/>
<polygon fill="#ED1C24" points="5089.5,3942 4989.5,4115 4889.5,3942 "/>
<polygon fill="#ED1C24" points="4889.5,3942 4989.5,3769 5089.5,3942 "/>
<polygon fill="#ED1C24" points="5189.5,3769 5089.5,3942 4989.5,3769 "/>
<polygon fill="#ED1C24" points="4989.5,3769 5089.5,3596 5189.5,3769 "/>
<polygon fill="#ED1C24" points="5089.5,3596 4989.5,3769 4889.5,3596 "/>
<polygon points="4889.5,3596 4989.5,3423 5089.5,3596 "/>
<polygon points="5189.5,3423 5089.5,3596 4989.5,3423 "/>
<polygon fill="#ED1C24" points="4989.5,3423 5089.5,3250 5189.5,3423 "/>
<polygon fill="#ED1C24" points="5089.5,3250 4989.5,3423 4889.5,3250 "/>
<polygon fill="#ED1C24" points="4889.5,3250 4989.5,3077 5089.5,3250 "/>
<polygon fill="#ED1C24" points="5189.5,3077 5089.5,3250 4989.5,3077 "/>
<polygon fill="#ED1C24" points="4989.5,3077 5089.5,2904 5189.5,3077 "/>
<polygon fill="#ED1C24" points="5089.5,2904 4989.5,3077 4889.5,2904 "/>
<polygon fill="#ED1C24" points="4889.5,2904 4989.5,2731 5089.5,2904 "/>
<polygon points="5189.5,2731 5089.5,2904 4989.5,2731 "/>
<polygon fill="#ED1C24" points="4889.5,4288 4989.5,4115 5089.5,4288 "/>
<polygon fill="#ED1C24" points="5189.5,4115 5089.5,4288 4989.5,4115 "/>
<polygon points="5189.5,4115 5289.5,3942 5389.5,4115 "/>
<polygon fill="#ED1C24" points="5289.5,3942 5189.5,4115 5089.5,3942 "/>
<polygon fill="#ED1C24" points="5089.5,3942 5189.5,3769 5289.5,3942 "/>
<polygon points="5389.5,3769 5289.5,3942 5189.5,3769 "/>
<polygon points="5189.5,3769 5289.5,3596 5389.5,3769 "/>
<polygon fill="#ED1C24" points="5289.5,3596 5189.5,3769 5089.5,3596 "/>
<polygon points="5089.5,3596 5189.5,3423 5289.5,3596 "/>
<polygon fill="#ED1C24" points="5389.5,3423 5289.5,3596 5189.5,3423 "/>
<polygon fill="#ED1C24" points="5189.5,3423 5289.5,3250 5389.5,3423 "/>
<polygon fill="#ED1C24" points="5289.5,3250 5189.5,3423 5089.5,3250 "/>
<polygon fill="#ED1C24" points="5089.5,3250 5189.5,3077 5289.5,3250 "/>
<polygon fill="#ED1C24" points="5389.5,3077 5289.5,3250 5189.5,3077 "/>
<polygon points="5189.5,3077 5289.5,2904 5389.5,3077 "/>
<polygon points="5289.5,2904 5189.5,3077 5089.5,2904 "/>
<polygon fill="#FFFFFF" points="5089.5,2904 5189.5,2731 5289.5,2904 "/>
<polygon points="5389.5,2731 5289.5,2904 5189.5,2731 "/>
<polygon points="5089.5,4288 5189.5,4115 5289.5,4288 "/>
<polygon points="5389.5,4115 5289.5,4288 5189.5,4115 "/>
<polygon points="5489.5,3942 5389.5,4115 5289.5,3942 "/>
<polygon points="5289.5,3942 5389.5,3769 5489.5,3942 "/>
<polygon points="5589.5,3769 5489.5,3942 5389.5,3769 "/>
<polygon points="5389.5,3769 5489.5,3596 5589.5,3769 "/>
<polygon points="5489.5,3596 5389.5,3769 5289.5,3596 "/>
<polygon points="5289.5,3596 5389.5,3423 5489.5,3596 "/>
<polygon points="5589.5,3423 5489.5,3596 5389.5,3423 "/>
<polygon points="5389.5,3423 5489.5,3250 5589.5,3423 "/>
<polygon fill="#ED1C24" points="5489.5,3250 5389.5,3423 5289.5,3250 "/>
<polygon fill="#ED1C24" points="5289.5,3250 5389.5,3077 5489.5,3250 "/>
<polygon fill="#ED1C24" points="5589.5,3077 5489.5,3250 5389.5,3077 "/>
<polygon fill="#ED1C24" points="5389.5,3077 5489.5,2904 5589.5,3077 "/>
<polygon points="5489.5,2904 5389.5,3077 5289.5,2904 "/>
<polygon fill="#FFFFFF" points="5289.5,2904 5389.5,2731 5489.5,2904 "/>
<polygon fill="#FFFFFF" points="5589.5,2731 5489.5,2904 5389.5,2731 "/>
<polygon points="5689.5,3596 5589.5,3769 5489.5,3596 "/>
<polygon points="5489.5,3596 5589.5,3423 5689.5,3596 "/>
<polygon points="5689.5,3250 5589.5,3423 5489.5,3250 "/>
<polygon points="5489.5,3250 5589.5,3077 5689.5,3250 "/>
<polygon points="5689.5,2904 5589.5,3077 5489.5,2904 "/>
<polygon points="5489.5,2904 5589.5,2731 5689.5,2904 "/>
<polygon fill="#ED1C24" points="4389.5,2385 4489.5,2212 4589.5,2385 "/>
<polygon fill="#ED1C24" points="4589.5,2039 4489.5,2212 4389.5,2039 "/>
<polygon points="4389.5,2039 4489.5,1866 4589.5,2039 "/>
<polygon fill="#F15A24" points="4589.5,1693 4489.5,1866 4389.5,1693 "/>
<polygon fill="#F15A24" points="4389.5,1693 4489.5,1520 4589.5,1693 "/>
<polygon fill="#F15A24" points="4589.5,1347 4489.5,1520 4389.5,1347 "/>
<polygon fill="#F15A24" points="4389.5,1347 4489.5,1174 4589.5,1347 "/>
<polygon fill="#FFFFFF" points="4389.5,2731 4489.5,2558 4589.5,2731 "/>
<polygon points="4689.5,2558 4589.5,2731 4489.5,2558 "/>
<polygon fill="#ED1C24" points="4589.5,2385 4489.5,2558 4389.5,2385 "/>
<polygon fill="#ED1C24" points="4589.5,2385 4689.5,2212 4789.5,2385 "/>
<polygon fill="#ED1C24" points="4689.5,2212 4589.5,2385 4489.5,2212 "/>
<polygon fill="#ED1C24" points="4489.5,2212 4589.5,2039 4689.5,2212 "/>
<polygon fill="#ED1C24" points="4789.5,2039 4689.5,2212 4589.5,2039 "/>
<polygon points="4589.5,2039 4689.5,1866 4789.5,2039 "/>
<polygon points="4689.5,1866 4589.5,2039 4489.5,1866 "/>
<polygon fill="#F15A24" points="4489.5,1866 4589.5,1693 4689.5,1866 "/>
<polygon fill="#F15A24" points="4789.5,1693 4689.5,1866 4589.5,1693 "/>
<polygon fill="#F15A24" points="4589.5,1693 4689.5,1520 4789.5,1693 "/>
<polygon fill="#F15A24" points="4689.5,1520 4589.5,1693 4489.5,1520 "/>
<polygon fill="#F15A24" points="4489.5,1520 4589.5,1347 4689.5,1520 "/>
<polygon points="4789.5,1347 4689.5,1520 4589.5,1347 "/>
<polygon points="4589.5,1347 4689.5,1174 4789.5,1347 "/>
<polygon points="4689.5,1174 4589.5,1347 4489.5,1174 "/>
<polygon points="4589.5,2731 4689.5,2558 4789.5,2731 "/>
<polygon fill="#ED1C24" points="4889.5,2558 4789.5,2731 4689.5,2558 "/>
<polygon fill="#ED1C24" points="4489.5,2558 4589.5,2385 4689.5,2558 "/>
<polygon fill="#ED1C24" points="4789.5,2385 4689.5,2558 4589.5,2385 "/>
<polygon fill="#ED1C24" points="4789.5,2385 4889.5,2212 4989.5,2385 "/>
<polygon fill="#ED1C24" points="4889.5,2212 4789.5,2385 4689.5,2212 "/>
<polygon fill="#ED1C24" points="4689.5,2212 4789.5,2039 4889.5,2212 "/>
<polygon fill="#ED1C24" points="4989.5,2039 4889.5,2212 4789.5,2039 "/>
<polygon points="4789.5,2039 4889.5,1866 4989.5,2039 "/>
<polygon points="4889.5,1866 4789.5,2039 4689.5,1866 "/>
<polygon fill="#F15A24" points="4689.5,1866 4789.5,1693 4889.5,1866 "/>
<polygon fill="#F15A24" points="4989.5,1693 4889.5,1866 4789.5,1693 "/>
<polygon points="4789.5,1693 4889.5,1520 4989.5,1693 "/>
<polygon points="4889.5,1520 4789.5,1693 4689.5,1520 "/>
<polygon points="4689.5,1520 4789.5,1347 4889.5,1520 "/>
<polygon fill="#F7621E" points="4989.5,1347 4889.5,1520 4789.5,1347 "/>
<polygon fill="#F7621E" points="4789.5,1347 4889.5,1174 4989.5,1347 "/>
<polygon fill="#F7621E" points="4889.5,1174 4789.5,1347 4689.5,1174 "/>
<polygon fill="#ED1C24" points="4789.5,2731 4889.5,2558 4989.5,2731 "/>
<polygon fill="#ED1C24" points="5089.5,2558 4989.5,2731 4889.5,2558 "/>
<polygon fill="#ED1C24" points="4689.5,2558 4789.5,2385 4889.5,2558 "/>
<polygon fill="#ED1C24" points="4989.5,2385 4889.5,2558 4789.5,2385 "/>
<polygon fill="#ED1C24" points="4989.5,2385 5089.5,2212 5189.5,2385 "/>
<polygon fill="#ED1C24" points="5089.5,2212 4989.5,2385 4889.5,2212 "/>
<polygon fill="#ED1C24" points="4889.5,2212 4989.5,2039 5089.5,2212 "/>
<polygon points="5189.5,2039 5089.5,2212 4989.5,2039 "/>
<polygon fill="#C7B299" points="4989.5,2039 5089.5,1866 5189.5,2039 "/>
<polygon fill="#C7B299" points="5089.5,1866 4989.5,2039 4889.5,1866 "/>
<polygon fill="#C7B299" points="4889.5,1866 4989.5,1693 5089.5,1866 "/>
<polygon points="5189.5,1693 5089.5,1866 4989.5,1693 "/>
<polygon fill="#C7B299" points="4989.5,1693 5089.5,1520 5189.5,1693 "/>
<polygon fill="#F7621E" points="5089.5,1520 4989.5,1693 4889.5,1520 "/>
<polygon fill="#F7621E" points="4889.5,1520 4989.5,1347 5089.5,1520 "/>
<polygon fill="#C7B299" points="5189.5,1347 5089.5,1520 4989.5,1347 "/>
<polygon fill="#C7B299" points="4989.5,1347 5089.5,1174 5189.5,1347 "/>
<polygon fill="#C7B299" points="5089.5,1174 4989.5,1347 4889.5,1174 "/>
<polygon points="4989.5,2731 5089.5,2558 5189.5,2731 "/>
<polygon points="5289.5,2558 5189.5,2731 5089.5,2558 "/>
<polygon fill="#ED1C24" points="4889.5,2558 4989.5,2385 5089.5,2558 "/>
<polygon fill="#ED1C24" points="5189.5,2385 5089.5,2558 4989.5,2385 "/>
<polygon fill="#ED1C24" points="5189.5,2385 5289.5,2212 5389.5,2385 "/>
<polygon fill="#ED1C24" points="5289.5,2212 5189.5,2385 5089.5,2212 "/>
<polygon points="5089.5,2212 5189.5,2039 5289.5,2212 "/>
<polygon points="5389.5,2039 5289.5,2212 5189.5,2039 "/>
<polygon fill="#F15A24" points="5189.5,2039 5289.5,1866 5389.5,2039 "/>
<polygon fill="#C7B299" points="5289.5,1866 5189.5,2039 5089.5,1866 "/>
<polygon points="5089.5,1866 5189.5,1693 5289.5,1866 "/>
<polygon points="5389.5,1693 5289.5,1866 5189.5,1693 "/>
<polygon fill="#F7621E" points="5189.5,1693 5289.5,1520 5389.5,1693 "/>
<polygon fill="#C7B299" points="5289.5,1520 5189.5,1693 5089.5,1520 "/>
<polygon fill="#C7B299" points="5089.5,1520 5189.5,1347 5289.5,1520 "/>
<polygon fill="#F7621E" points="5389.5,1347 5289.5,1520 5189.5,1347 "/>
<polygon fill="#F7621E" points="5189.5,1347 5289.5,1174 5389.5,1347 "/>
<polygon fill="#F7621E" points="5289.5,1174 5189.5,1347 5089.5,1174 "/>
<polygon points="5189.5,2731 5289.5,2558 5389.5,2731 "/>
<polygon points="5489.5,2558 5389.5,2731 5289.5,2558 "/>
<polygon fill="#ED1C24" points="5089.5,2558 5189.5,2385 5289.5,2558 "/>
<polygon fill="#ED1C24" points="5389.5,2385 5289.5,2558 5189.5,2385 "/>
<polygon points="5389.5,2385 5489.5,2212 5589.5,2385 "/>
<polygon points="5489.5,2212 5389.5,2385 5289.5,2212 "/>
<polygon points="5289.5,2212 5389.5,2039 5489.5,2212 "/>
<polygon fill="#F15A24" points="5589.5,2039 5489.5,2212 5389.5,2039 "/>
<polygon fill="#F15A24" points="5389.5,2039 5489.5,1866 5589.5,2039 "/>
<polygon fill="#F15A24" points="5489.5,1866 5389.5,2039 5289.5,1866 "/>
<polygon points="5289.5,1866 5389.5,1693 5489.5,1866 "/>
<polygon fill="#F15A24" points="5589.5,1693 5489.5,1866 5389.5,1693 "/>
<polygon fill="#F15A24" points="5389.5,1693 5489.5,1520 5589.5,1693 "/>
<polygon points="5489.5,1520 5389.5,1693 5289.5,1520 "/>
<polygon points="5289.5,1520 5389.5,1347 5489.5,1520 "/>
<polygon points="5589.5,1347 5489.5,1520 5389.5,1347 "/>
<polygon points="5389.5,1347 5489.5,1174 5589.5,1347 "/>
<polygon points="5489.5,1174 5389.5,1347 5289.5,1174 "/>
<polygon points="5389.5,2731 5489.5,2558 5589.5,2731 "/>
<polygon points="5689.5,2558 5589.5,2731 5489.5,2558 "/>
<polygon fill="#ED1C24" points="5289.5,2558 5389.5,2385 5489.5,2558 "/>
<polygon points="5589.5,2385 5489.5,2558 5389.5,2385 "/>
<polygon fill="#F15A24" points="5689.5,2212 5589.5,2385 5489.5,2212 "/>
<polygon fill="#F15A24" points="5489.5,2212 5589.5,2039 5689.5,2212 "/>
<polygon fill="#F15A24" points="5689.5,1866 5589.5,2039 5489.5,1866 "/>
<polygon fill="#F15A24" points="5489.5,1866 5589.5,1693 5689.5,1866 "/>
<polygon points="5689.5,1520 5589.5,1693 5489.5,1520 "/>
<polygon points="5489.5,1520 5589.5,1347 5689.5,1520 "/>
<polygon points="5489.5,2558 5589.5,2385 5689.5,2558 "/>
<polygon fill="#ED1C24" points="4389.5,4461 4489.5,4288 4589.5,4461 "/>
<polygon fill="#ED1C24" points="4689.5,4288 4589.5,4461 4489.5,4288 "/>
<polygon fill="#ED1C24" points="4589.5,4461 4689.5,4288 4789.5,4461 "/>
<polygon fill="#ED1C24" points="4889.5,4288 4789.5,4461 4689.5,4288 "/>
<polygon fill="#ED1C24" points="4789.5,4461 4889.5,4288 4989.5,4461 "/>
<polygon fill="#ED1C24" points="5089.5,4288 4989.5,4461 4889.5,4288 "/>
<polygon points="4989.5,4461 5089.5,4288 5189.5,4461 "/>
<polygon points="5289.5,4288 5189.5,4461 5089.5,4288 "/>
<polygon points="5789.5,3423 5689.5,3596 5589.5,3423 "/>
<polygon points="5589.5,3423 5689.5,3250 5789.5,3423 "/>
<polygon fill="#F15A24" points="5789.5,3077 5689.5,3250 5589.5,3077 "/>
<polygon fill="#F15A24" points="5589.5,3077 5689.5,2904 5789.5,3077 "/>
<polygon points="5789.5,2731 5689.5,2904 5589.5,2731 "/>
<polygon points="5789.5,3423 5889.5,3250 5989.5,3423 "/>
<polygon points="5889.5,3250 5789.5,3423 5689.5,3250 "/>
<polygon points="5689.5,3250 5789.5,3077 5889.5,3250 "/>
<polygon fill="#F15A24" points="5989.5,3077 5889.5,3250 5789.5,3077 "/>
<polygon fill="#F15A24" points="5789.5,3077 5889.5,2904 5989.5,3077 "/>
<polygon points="5889.5,2904 5789.5,3077 5689.5,2904 "/>
<polygon points="5689.5,2904 5789.5,2731 5889.5,2904 "/>
<polygon fill="#F7621E" points="5989.5,2731 5889.5,2904 5789.5,2731 "/>
<polygon points="6089.5,3250 5989.5,3423 5889.5,3250 "/>
<polygon points="5889.5,3250 5989.5,3077 6089.5,3250 "/>
<polygon points="6089.5,2904 5989.5,3077 5889.5,2904 "/>
<polygon points="5889.5,2904 5989.5,2731 6089.5,2904 "/>
<polygon fill="#F15A24" points="5589.5,2385 5689.5,2212 5789.5,2385 "/>
<polygon fill="#F15A24" points="5789.5,2039 5689.5,2212 5589.5,2039 "/>
<polygon fill="#F15A24" points="5589.5,2039 5689.5,1866 5789.5,2039 "/>
<polygon points="5789.5,1693 5689.5,1866 5589.5,1693 "/>
<polygon points="5589.5,1693 5689.5,1520 5789.5,1693 "/>
<polygon points="5589.5,2731 5689.5,2558 5789.5,2731 "/>
<polygon points="5889.5,2558 5789.5,2731 5689.5,2558 "/>
<polygon fill="#F15A24" points="5789.5,2385 5689.5,2558 5589.5,2385 "/>
<polygon points="5789.5,2385 5889.5,2212 5989.5,2385 "/>
<polygon fill="#F15A24" points="5889.5,2212 5789.5,2385 5689.5,2212 "/>
<polygon fill="#F15A24" points="5689.5,2212 5789.5,2039 5889.5,2212 "/>
<polygon points="5989.5,2039 5889.5,2212 5789.5,2039 "/>
<polygon points="5789.5,2039 5889.5,1866 5989.5,2039 "/>
<polygon points="5889.5,1866 5789.5,2039 5689.5,1866 "/>
<polygon points="5689.5,1866 5789.5,1693 5889.5,1866 "/>
<polygon fill="#F7621E" points="5789.5,2731 5889.5,2558 5989.5,2731 "/>
<polygon points="5689.5,2558 5789.5,2385 5889.5,2558 "/>
<polygon points="6089.5,2558 5989.5,2731 5889.5,2558 "/>
<polygon points="5889.5,2558 5989.5,2385 6089.5,2558 "/>
<polygon points="5989.5,2385 5889.5,2558 5789.5,2385 "/>
<polygon fill="#F15A24" points="4089.5,1174 4189.5,1001 4289.5,1174 "/>
<polygon fill="#F15A24" points="4389.5,1001 4289.5,1174 4189.5,1001 "/>
<polygon fill="#F15A24" points="4189.5,1001 4089.5,1174 3989.5,1001 "/>
<polygon points="3989.5,1001 4089.5,828 4189.5,1001 "/>
<polygon points="4189.5,1001 4289.5,828 4389.5,1001 "/>
<polygon points="4289.5,828 4189.5,1001 4089.5,828 "/>
<polygon points="4089.5,828 4189.5,655 4289.5,828 "/>
<polygon points="4389.5,655 4289.5,828 4189.5,655 "/>
<polygon points="3489.5,1174 3589.5,1001 3689.5,1174 "/>
<polygon points="3789.5,1001 3689.5,1174 3589.5,1001 "/>
<polygon fill="#F15A24" points="3689.5,1174 3789.5,1001 3889.5,1174 "/>
<polygon fill="#F15A24" points="3889.5,1174 3989.5,1001 4089.5,1174 "/>
<polygon fill="#F15A24" points="3989.5,1001 3889.5,1174 3789.5,1001 "/>
<polygon points="3789.5,1001 3889.5,828 3989.5,1001 "/>
<polygon points="4089.5,828 3989.5,1001 3889.5,828 "/>
<polygon points="4289.5,828 4389.5,655 4489.5,828 "/>
<polygon fill="#F15A24" points="4289.5,1174 4389.5,1001 4489.5,1174 "/>
<polygon points="4589.5,1001 4489.5,1174 4389.5,1001 "/>
<polygon fill="#42210B" points="4489.5,828 4389.5,1001 4289.5,828 "/>
<polygon points="4489.5,828 4589.5,655 4689.5,828 "/>
<polygon points="4589.5,655 4489.5,828 4389.5,655 "/>
<polygon points="4489.5,1174 4589.5,1001 4689.5,1174 "/>
<polygon fill="#F7621E" points="4789.5,1001 4689.5,1174 4589.5,1001 "/>
<polygon fill="#42210B" points="4389.5,1001 4489.5,828 4589.5,1001 "/>
<polygon points="4689.5,828 4589.5,1001 4489.5,828 "/>
<polygon points="4689.5,828 4789.5,655 4889.5,828 "/>
<polygon points="4789.5,655 4689.5,828 4589.5,655 "/>
<polygon fill="#F7621E" points="4689.5,1174 4789.5,1001 4889.5,1174 "/>
<polygon fill="#C7B299" points="4989.5,1001 4889.5,1174 4789.5,1001 "/>
<polygon fill="#F7621E" points="4589.5,1001 4689.5,828 4789.5,1001 "/>
<polygon fill="#C7B299" points="4889.5,828 4789.5,1001 4689.5,828 "/>
<polygon fill="#C7B299" points="4889.5,1174 4989.5,1001 5089.5,1174 "/>
<polygon fill="#F7621E" points="5189.5,1001 5089.5,1174 4989.5,1001 "/>
<polygon fill="#C7B299" points="4789.5,1001 4889.5,828 4989.5,1001 "/>
<polygon points="5089.5,828 4989.5,1001 4889.5,828 "/>
<polygon fill="#F7621E" points="5089.5,1174 5189.5,1001 5289.5,1174 "/>
<polygon points="5389.5,1001 5289.5,1174 5189.5,1001 "/>
<polygon points="4989.5,1001 5089.5,828 5189.5,1001 "/>
<polygon points="5289.5,1174 5389.5,1001 5489.5,1174 "/>
</svg>
