<?xml version="1.0" encoding="utf-8"?>
<!-- Generator: Adobe Illustrator 18.1.1, SVG Export Plug-In . SVG Version: 6.00 Build 0)  -->
<svg version="1.1" id="Ebene_1" xmlns="http://www.w3.org/2000/svg" xmlns:xlink="http://www.w3.org/1999/xlink" x="0px" y="0px"
	 viewBox="0 0 10313.2 5443.6" enable-background="new 0 0 10313.2 5443.6" xml:space="preserve">
<polygon points="4329.5,3395 4229.5,3568 4129.5,3395 "/>
<polygon points="4329.5,3741 4429.5,3568 4529.5,3741 "/>
<polygon points="4429.5,3568 4329.5,3741 4229.5,3568 "/>
<polygon points="4229.5,3568 4329.5,3395 4429.5,3568 "/>
<polygon points="4529.5,3395 4429.5,3568 4329.5,3395 "/>
<polygon points="4729.5,3741 4629.5,3914 4529.5,3741 "/>
<polygon points="4529.5,3741 4629.5,3568 4729.5,3741 "/>
<polygon points="4629.5,3568 4529.5,3741 4429.5,3568 "/>
<polygon points="4429.5,3568 4529.5,3395 4629.5,3568 "/>
<polygon points="4729.5,3395 4629.5,3568 4529.5,3395 "/>
<polygon points="4629.5,3914 4729.5,3741 4829.5,3914 "/>
<polygon points="4929.5,3741 4829.5,3914 4729.5,3741 "/>
<polygon points="4729.5,3741 4829.5,3568 4929.5,3741 "/>
<polygon points="4829.5,3568 4729.5,3741 4629.5,3568 "/>
<polygon points="4629.5,3568 4729.5,3395 4829.5,3568 "/>
<polygon points="4929.5,3395 4829.5,3568 4729.5,3395 "/>
<polygon points="4929.5,4087 5029.5,3914 5129.5,4087 "/>
<polygon points="5029.5,3914 4929.5,4087 4829.5,3914 "/>
<polygon points="4829.5,3914 4929.5,3741 5029.5,3914 "/>
<polygon points="5129.5,3741 5029.5,3914 4929.5,3741 "/>
<polygon points="4929.5,3741 5029.5,3568 5129.5,3741 "/>
<polygon points="5029.5,3568 4929.5,3741 4829.5,3568 "/>
<polygon points="4829.5,3568 4929.5,3395 5029.5,3568 "/>
<polygon points="5129.5,3395 5029.5,3568 4929.5,3395 "/>
<polygon points="5129.5,4087 5229.5,3914 5329.5,4087 "/>
<polygon points="5229.5,3914 5129.5,4087 5029.5,3914 "/>
<polygon points="5029.5,3914 5129.5,3741 5229.5,3914 "/>
<polygon points="5329.5,3741 5229.5,3914 5129.5,3741 "/>
<polygon points="5129.5,3741 5229.5,3568 5329.5,3741 "/>
<polygon points="5229.5,3568 5129.5,3741 5029.5,3568 "/>
<polygon points="5029.5,3568 5129.5,3395 5229.5,3568 "/>
<polygon points="5329.5,3395 5229.5,3568 5129.5,3395 "/>
<polygon points="5329.5,4087 5429.5,3914 5529.5,4087 "/>
<polygon points="5429.5,3914 5329.5,4087 5229.5,3914 "/>
<polygon points="5229.5,3914 5329.5,3741 5429.5,3914 "/>
<polygon points="5529.5,3741 5429.5,3914 5329.5,3741 "/>
<polygon points="5329.5,3741 5429.5,3568 5529.5,3741 "/>
<polygon points="5429.5,3568 5329.5,3741 5229.5,3568 "/>
<polygon points="5229.5,3568 5329.5,3395 5429.5,3568 "/>
<polygon points="5529.5,3395 5429.5,3568 5329.5,3395 "/>
<polygon points="5629.5,3914 5529.5,4087 5429.5,3914 "/>
<polygon points="5429.5,3914 5529.5,3741 5629.5,3914 "/>
<polygon points="5729.5,3741 5629.5,3914 5529.5,3741 "/>
<polygon points="5529.5,3741 5629.5,3568 5729.5,3741 "/>
<polygon points="5629.5,3568 5529.5,3741 5429.5,3568 "/>
<polygon points="5429.5,3568 5529.5,3395 5629.5,3568 "/>
<polygon points="5729.5,3395 5629.5,3568 5529.5,3395 "/>
<polygon points="5629.5,3914 5729.5,3741 5829.5,3914 "/>
<polygon points="5929.5,3741 5829.5,3914 5729.5,3741 "/>
<polygon points="5729.5,3741 5829.5,3568 5929.5,3741 "/>
<polygon points="5829.5,3568 5729.5,3741 5629.5,3568 "/>
<polygon points="5629.5,3568 5729.5,3395 5829.5,3568 "/>
<polygon points="5929.5,3395 5829.5,3568 5729.5,3395 "/>
<polygon points="5929.5,3741 6029.5,3568 6129.5,3741 "/>
<polygon points="6229.5,3568 6129.5,3741 6029.5,3568 "/>
<polygon points="6029.5,3568 5929.5,3741 5829.5,3568 "/>
<polygon points="5829.5,3568 5929.5,3395 6029.5,3568 "/>
<polygon points="6029.5,3568 6129.5,3395 6229.5,3568 "/>
<polygon points="6129.5,3395 6029.5,3568 5929.5,3395 "/>
<polygon points="6429.5,3222 6329.5,3395 6229.5,3222 "/>
<polygon fill="#E6E6A5" points="6229.5,3222 6329.5,3049 6429.5,3222 "/>
<polygon fill="#FFFFFF" points="6429.5,2876 6329.5,3049 6229.5,2876 "/>
<polygon points="6429.5,2530 6329.5,2703 6229.5,2530 "/>
<polygon points="6229.5,2530 6329.5,2357 6429.5,2530 "/>
<polygon fill="#FFFFFF" points="6229.5,2876 6329.5,2703 6429.5,2876 "/>
<polygon points="6329.5,3395 6229.5,3568 6129.5,3395 "/>
<polygon fill="#FFFFFF" points="4129.5,3049 4229.5,2876 4329.5,3049 "/>
<polygon fill="#FFFFFF" points="4229.5,2876 4129.5,3049 4029.5,2876 "/>
<polygon fill="#FFFFFF" points="4029.5,2876 4129.5,2703 4229.5,2876 "/>
<polygon points="4329.5,2703 4229.5,2876 4129.5,2703 "/>
<polygon points="4129.5,2703 4229.5,2530 4329.5,2703 "/>
<polygon points="4229.5,2530 4129.5,2703 4029.5,2530 "/>
<polygon points="4029.5,2530 4129.5,2357 4229.5,2530 "/>
<polygon points="4329.5,2357 4229.5,2530 4129.5,2357 "/>
<polygon points="4129.5,2357 4229.5,2184 4329.5,2357 "/>
<polygon fill="#E6E6A5" points="4029.5,3222 4129.5,3049 4229.5,3222 "/>
<polygon fill="#FFFFFF" points="4329.5,3049 4229.5,3222 4129.5,3049 "/>
<polygon fill="#FFFFFF" points="4329.5,3049 4429.5,2876 4529.5,3049 "/>
<polygon fill="#FFFFFF" points="4429.5,2876 4329.5,3049 4229.5,2876 "/>
<polygon points="4229.5,2876 4329.5,2703 4429.5,2876 "/>
<polygon points="4529.5,2703 4429.5,2876 4329.5,2703 "/>
<polygon points="4329.5,2703 4429.5,2530 4529.5,2703 "/>
<polygon points="4429.5,2530 4329.5,2703 4229.5,2530 "/>
<polygon points="4229.5,2530 4329.5,2357 4429.5,2530 "/>
<polygon points="4529.5,2357 4429.5,2530 4329.5,2357 "/>
<polygon points="4329.5,2357 4429.5,2184 4529.5,2357 "/>
<polygon points="4429.5,2184 4329.5,2357 4229.5,2184 "/>
<polygon points="4229.5,2184 4329.5,2011 4429.5,2184 "/>
<polygon points="4529.5,2011 4429.5,2184 4329.5,2011 "/>
<polygon fill="#FFFFFF" points="4229.5,3222 4329.5,3049 4429.5,3222 "/>
<polygon fill="#FFFFFF" points="4529.5,3049 4429.5,3222 4329.5,3049 "/>
<polygon fill="#FFFFFF" points="4529.5,3049 4629.5,2876 4729.5,3049 "/>
<polygon fill="#FFFFFF" points="4629.5,2876 4529.5,3049 4429.5,2876 "/>
<polygon points="4429.5,2876 4529.5,2703 4629.5,2876 "/>
<polygon points="4729.5,2703 4629.5,2876 4529.5,2703 "/>
<polygon points="4529.5,2703 4629.5,2530 4729.5,2703 "/>
<polygon points="4629.5,2530 4529.5,2703 4429.5,2530 "/>
<polygon points="4429.5,2530 4529.5,2357 4629.5,2530 "/>
<polygon points="4729.5,2357 4629.5,2530 4529.5,2357 "/>
<polygon points="4529.5,2357 4629.5,2184 4729.5,2357 "/>
<polygon points="4629.5,2184 4529.5,2357 4429.5,2184 "/>
<polygon points="4429.5,2184 4529.5,2011 4629.5,2184 "/>
<polygon points="4729.5,2011 4629.5,2184 4529.5,2011 "/>
<polygon points="4529.5,2011 4629.5,1838 4729.5,2011 "/>
<polygon fill="#FFFFFF" points="4429.5,3222 4529.5,3049 4629.5,3222 "/>
<polygon fill="#FFFFFF" points="4729.5,3049 4629.5,3222 4529.5,3049 "/>
<polygon fill="#FFFFFF" points="4729.5,3049 4829.5,2876 4929.5,3049 "/>
<polygon fill="#FFFFFF" points="4829.5,2876 4729.5,3049 4629.5,2876 "/>
<polygon points="4629.5,2876 4729.5,2703 4829.5,2876 "/>
<polygon points="4929.5,2703 4829.5,2876 4729.5,2703 "/>
<polygon points="4729.5,2703 4829.5,2530 4929.5,2703 "/>
<polygon points="4829.5,2530 4729.5,2703 4629.5,2530 "/>
<polygon points="4629.5,2530 4729.5,2357 4829.5,2530 "/>
<polygon points="4929.5,2357 4829.5,2530 4729.5,2357 "/>
<polygon points="4729.5,2357 4829.5,2184 4929.5,2357 "/>
<polygon points="4829.5,2184 4729.5,2357 4629.5,2184 "/>
<polygon points="4629.5,2184 4729.5,2011 4829.5,2184 "/>
<polygon points="4929.5,2011 4829.5,2184 4729.5,2011 "/>
<polygon points="4729.5,2011 4829.5,1838 4929.5,2011 "/>
<polygon points="4829.5,1838 4729.5,2011 4629.5,1838 "/>
<polygon fill="#FFFFFF" points="4629.5,3222 4729.5,3049 4829.5,3222 "/>
<polygon fill="#FFFFFF" points="4929.5,3049 4829.5,3222 4729.5,3049 "/>
<polygon fill="#FFFFFF" points="4929.5,3049 5029.5,2876 5129.5,3049 "/>
<polygon fill="#FFFFFF" points="5029.5,2876 4929.5,3049 4829.5,2876 "/>
<polygon points="4829.5,2876 4929.5,2703 5029.5,2876 "/>
<polygon points="5129.5,2703 5029.5,2876 4929.5,2703 "/>
<polygon points="4929.5,2703 5029.5,2530 5129.5,2703 "/>
<polygon points="5029.5,2530 4929.5,2703 4829.5,2530 "/>
<polygon points="4829.5,2530 4929.5,2357 5029.5,2530 "/>
<polygon points="5129.5,2357 5029.5,2530 4929.5,2357 "/>
<polygon points="4929.5,2357 5029.5,2184 5129.5,2357 "/>
<polygon points="5029.5,2184 4929.5,2357 4829.5,2184 "/>
<polygon points="4829.5,2184 4929.5,2011 5029.5,2184 "/>
<polygon points="5129.5,2011 5029.5,2184 4929.5,2011 "/>
<polygon points="4929.5,2011 5029.5,1838 5129.5,2011 "/>
<polygon points="5029.5,1838 4929.5,2011 4829.5,1838 "/>
<polygon points="4829.5,1838 4929.5,1665 5029.5,1838 "/>
<polygon points="5129.5,1665 5029.5,1838 4929.5,1665 "/>
<polygon fill="#FFFFFF" points="4829.5,3222 4929.5,3049 5029.5,3222 "/>
<polygon fill="#FFFFFF" points="5129.5,3049 5029.5,3222 4929.5,3049 "/>
<polygon fill="#FFFFFF" points="5129.5,3049 5229.5,2876 5329.5,3049 "/>
<polygon fill="#FFFFFF" points="5229.5,2876 5129.5,3049 5029.5,2876 "/>
<polygon points="5029.5,2876 5129.5,2703 5229.5,2876 "/>
<polygon points="5329.5,2703 5229.5,2876 5129.5,2703 "/>
<polygon points="5129.5,2703 5229.5,2530 5329.5,2703 "/>
<polygon points="5229.5,2530 5129.5,2703 5029.5,2530 "/>
<polygon points="5029.5,2530 5129.5,2357 5229.5,2530 "/>
<polygon points="5329.5,2357 5229.5,2530 5129.5,2357 "/>
<polygon points="5129.5,2357 5229.5,2184 5329.5,2357 "/>
<polygon points="5229.5,2184 5129.5,2357 5029.5,2184 "/>
<polygon points="5029.5,2184 5129.5,2011 5229.5,2184 "/>
<polygon points="5329.5,2011 5229.5,2184 5129.5,2011 "/>
<polygon points="5129.5,2011 5229.5,1838 5329.5,2011 "/>
<polygon points="5229.5,1838 5129.5,2011 5029.5,1838 "/>
<polygon points="5029.5,1838 5129.5,1665 5229.5,1838 "/>
<polygon points="5329.5,1665 5229.5,1838 5129.5,1665 "/>
<polygon fill="#FFFFFF" points="5029.5,3222 5129.5,3049 5229.5,3222 "/>
<polygon fill="#FFFFFF" points="5329.5,3049 5229.5,3222 5129.5,3049 "/>
<polygon fill="#FFFFFF" points="5329.5,3049 5429.5,2876 5529.5,3049 "/>
<polygon fill="#FFFFFF" points="5429.5,2876 5329.5,3049 5229.5,2876 "/>
<polygon points="5229.5,2876 5329.5,2703 5429.5,2876 "/>
<polygon points="5529.5,2703 5429.5,2876 5329.5,2703 "/>
<polygon points="5329.5,2703 5429.5,2530 5529.5,2703 "/>
<polygon points="5429.5,2530 5329.5,2703 5229.5,2530 "/>
<polygon points="5229.5,2530 5329.5,2357 5429.5,2530 "/>
<polygon points="5529.5,2357 5429.5,2530 5329.5,2357 "/>
<polygon points="5329.5,2357 5429.5,2184 5529.5,2357 "/>
<polygon points="5429.5,2184 5329.5,2357 5229.5,2184 "/>
<polygon points="5229.5,2184 5329.5,2011 5429.5,2184 "/>
<polygon points="5529.5,2011 5429.5,2184 5329.5,2011 "/>
<polygon points="5329.5,2011 5429.5,1838 5529.5,2011 "/>
<polygon points="5429.5,1838 5329.5,2011 5229.5,1838 "/>
<polygon points="5229.5,1838 5329.5,1665 5429.5,1838 "/>
<polygon points="5529.5,1665 5429.5,1838 5329.5,1665 "/>
<polygon fill="#FFFFFF" points="5229.5,3222 5329.5,3049 5429.5,3222 "/>
<polygon fill="#FFFFFF" points="5529.5,3049 5429.5,3222 5329.5,3049 "/>
<polygon fill="#FFFFFF" points="5529.5,3049 5629.5,2876 5729.5,3049 "/>
<polygon fill="#FFFFFF" points="5629.5,2876 5529.5,3049 5429.5,2876 "/>
<polygon points="5429.5,2876 5529.5,2703 5629.5,2876 "/>
<polygon points="5729.5,2703 5629.5,2876 5529.5,2703 "/>
<polygon points="5529.5,2703 5629.5,2530 5729.5,2703 "/>
<polygon points="5629.5,2530 5529.5,2703 5429.5,2530 "/>
<polygon points="5429.5,2530 5529.5,2357 5629.5,2530 "/>
<polygon points="5729.5,2357 5629.5,2530 5529.5,2357 "/>
<polygon points="5529.5,2357 5629.5,2184 5729.5,2357 "/>
<polygon points="5629.5,2184 5529.5,2357 5429.5,2184 "/>
<polygon points="5429.5,2184 5529.5,2011 5629.5,2184 "/>
<polygon points="5729.5,2011 5629.5,2184 5529.5,2011 "/>
<polygon points="5529.5,2011 5629.5,1838 5729.5,2011 "/>
<polygon points="5629.5,1838 5529.5,2011 5429.5,1838 "/>
<polygon points="5429.5,1838 5529.5,1665 5629.5,1838 "/>
<polygon fill="#FFFFFF" points="5429.5,3222 5529.5,3049 5629.5,3222 "/>
<polygon fill="#FFFFFF" points="5729.5,3049 5629.5,3222 5529.5,3049 "/>
<polygon fill="#FFFFFF" points="5729.5,3049 5829.5,2876 5929.5,3049 "/>
<polygon fill="#FFFFFF" points="5829.5,2876 5729.5,3049 5629.5,2876 "/>
<polygon points="5629.5,2876 5729.5,2703 5829.5,2876 "/>
<polygon points="5929.5,2703 5829.5,2876 5729.5,2703 "/>
<polygon points="5729.5,2703 5829.5,2530 5929.5,2703 "/>
<polygon points="5829.5,2530 5729.5,2703 5629.5,2530 "/>
<polygon points="5629.5,2530 5729.5,2357 5829.5,2530 "/>
<polygon points="5929.5,2357 5829.5,2530 5729.5,2357 "/>
<polygon points="5729.5,2357 5829.5,2184 5929.5,2357 "/>
<polygon points="5829.5,2184 5729.5,2357 5629.5,2184 "/>
<polygon points="5629.5,2184 5729.5,2011 5829.5,2184 "/>
<polygon points="5929.5,2011 5829.5,2184 5729.5,2011 "/>
<polygon points="5729.5,2011 5829.5,1838 5929.5,2011 "/>
<polygon points="5829.5,1838 5729.5,2011 5629.5,1838 "/>
<polygon fill="#FFFFFF" points="5629.5,3222 5729.5,3049 5829.5,3222 "/>
<polygon fill="#FFFFFF" points="5929.5,3049 5829.5,3222 5729.5,3049 "/>
<polygon fill="#FFFFFF" points="5929.5,3049 6029.5,2876 6129.5,3049 "/>
<polygon fill="#FFFFFF" points="6229.5,2876 6129.5,3049 6029.5,2876 "/>
<polygon fill="#FFFFFF" points="6029.5,2876 5929.5,3049 5829.5,2876 "/>
<polygon points="5829.5,2876 5929.5,2703 6029.5,2876 "/>
<polygon points="6029.5,2876 6129.5,2703 6229.5,2876 "/>
<polygon points="6129.5,2703 6029.5,2876 5929.5,2703 "/>
<polygon points="5929.5,2703 6029.5,2530 6129.5,2703 "/>
<polygon points="6229.5,2530 6129.5,2703 6029.5,2530 "/>
<polygon points="6029.5,2530 5929.5,2703 5829.5,2530 "/>
<polygon points="5829.5,2530 5929.5,2357 6029.5,2530 "/>
<polygon points="6029.5,2530 6129.5,2357 6229.5,2530 "/>
<polygon points="6129.5,2357 6029.5,2530 5929.5,2357 "/>
<polygon points="5929.5,2357 6029.5,2184 6129.5,2357 "/>
<polygon points="6229.5,2184 6129.5,2357 6029.5,2184 "/>
<polygon points="6029.5,2184 5929.5,2357 5829.5,2184 "/>
<polygon points="5829.5,2184 5929.5,2011 6029.5,2184 "/>
<polygon points="6029.5,2184 6129.5,2011 6229.5,2184 "/>
<polygon points="6129.5,2011 6029.5,2184 5929.5,2011 "/>
<polygon fill="#FFFFFF" points="6029.5,3222 6129.5,3049 6229.5,3222 "/>
<polygon fill="#FFFFFF" points="5829.5,3222 5929.5,3049 6029.5,3222 "/>
<polygon fill="#FFFFFF" points="6129.5,3049 6029.5,3222 5929.5,3049 "/>
<polygon fill="#FFFFFF" points="6129.5,3049 6229.5,2876 6329.5,3049 "/>
<polygon points="6329.5,2703 6229.5,2876 6129.5,2703 "/>
<polygon points="6129.5,2703 6229.5,2530 6329.5,2703 "/>
<polygon points="6329.5,2357 6229.5,2530 6129.5,2357 "/>
<polygon points="6129.5,2357 6229.5,2184 6329.5,2357 "/>
<polygon fill="#FFFFFF" points="6329.5,3049 6229.5,3222 6129.5,3049 "/>
<polygon points="4229.5,3222 4129.5,3395 4029.5,3222 "/>
<polygon points="4129.5,3395 4229.5,3222 4329.5,3395 "/>
<polygon fill="#E6E6A5" points="4429.5,3222 4329.5,3395 4229.5,3222 "/>
<polygon fill="#E6E6A5" points="4329.5,3395 4429.5,3222 4529.5,3395 "/>
<polygon fill="#E6E6A5" points="4629.5,3222 4529.5,3395 4429.5,3222 "/>
<polygon fill="#E6E6A5" points="4529.5,3395 4629.5,3222 4729.5,3395 "/>
<polygon fill="#E6E6A5" points="4829.5,3222 4729.5,3395 4629.5,3222 "/>
<polygon fill="#E6E6A5" points="4729.5,3395 4829.5,3222 4929.5,3395 "/>
<polygon fill="#E6E6A5" points="5029.5,3222 4929.5,3395 4829.5,3222 "/>
<polygon fill="#E6E6A5" points="4929.5,3395 5029.5,3222 5129.5,3395 "/>
<polygon fill="#E6E6A5" points="5229.5,3222 5129.5,3395 5029.5,3222 "/>
<polygon fill="#E6E6A5" points="5129.5,3395 5229.5,3222 5329.5,3395 "/>
<polygon fill="#E6E6A5" points="5429.5,3222 5329.5,3395 5229.5,3222 "/>
<polygon fill="#E6E6A5" points="5329.5,3395 5429.5,3222 5529.5,3395 "/>
<polygon fill="#E6E6A5" points="5629.5,3222 5529.5,3395 5429.5,3222 "/>
<polygon fill="#E6E6A5" points="5529.5,3395 5629.5,3222 5729.5,3395 "/>
<polygon fill="#E6E6A5" points="5829.5,3222 5729.5,3395 5629.5,3222 "/>
<polygon fill="#E6E6A5" points="5729.5,3395 5829.5,3222 5929.5,3395 "/>
<polygon fill="#E6E6A5" points="6029.5,3222 5929.5,3395 5829.5,3222 "/>
<polygon fill="#E6E6A5" points="5929.5,3395 6029.5,3222 6129.5,3395 "/>
<polygon points="6129.5,3395 6229.5,3222 6329.5,3395 "/>
<polygon fill="#E6E6A5" points="6229.5,3222 6129.5,3395 6029.5,3222 "/>
<polygon fill="#FFFFFF" points="4129.5,2703 4029.5,2876 3929.5,2703 "/>
<polygon fill="#FFFFFF" points="3929.5,2703 4029.5,2530 4129.5,2703 "/>
<polygon fill="#FFFFFF" points="6529.5,2703 6429.5,2876 6329.5,2703 "/>
<polygon fill="#FFFFFF" points="6329.5,2703 6429.5,2530 6529.5,2703 "/>
<polygon fill="#FFFFFF" points="4129.5,3049 4029.5,3222 3929.5,3049 "/>
<polygon fill="#FFFFFF" points="3929.5,3049 4029.5,2876 4129.5,3049 "/>
<polygon fill="#FFFFFF" points="6529.5,3049 6429.5,3222 6329.5,3049 "/>
<polygon fill="#FFFFFF" points="6329.5,3049 6429.5,2876 6529.5,3049 "/>
<polygon fill="#F2F2F2" points="4029.5,2876 3929.5,3049 3829.5,2876 "/>
<polygon fill="#F2F2F2" points="3829.5,2876 3929.5,2703 4029.5,2876 "/>
<polygon fill="#F2F2F2" points="6629.5,2876 6529.5,3049 6429.5,2876 "/>
<polygon fill="#F2F2F2" points="6429.5,2876 6529.5,2703 6629.5,2876 "/>
<polygon fill="#F2F2F2" points="4029.5,2530 3929.5,2703 3829.5,2530 "/>
<polygon fill="#F2F2F2" points="3829.5,2530 3929.5,2357 4029.5,2530 "/>
<polygon fill="#F2F2F2" points="3929.5,2703 3829.5,2876 3729.5,2703 "/>
<polygon fill="#F2F2F2" points="3729.5,2703 3829.5,2530 3929.5,2703 "/>
<polygon fill="#FFFFFF" points="4229.5,2184 4129.5,2357 4029.5,2184 "/>
<polygon fill="#FFFFFF" points="4029.5,2184 4129.5,2011 4229.5,2184 "/>
<polygon fill="#FFFFFF" points="4129.5,2357 4029.5,2530 3929.5,2357 "/>
<polygon fill="#FFFFFF" points="3929.5,2357 4029.5,2184 4129.5,2357 "/>
<polygon fill="#F2F2F2" points="4429.5,1838 4329.5,2011 4229.5,1838 "/>
<polygon fill="#FFFFFF" points="4329.5,2011 4429.5,1838 4529.5,2011 "/>
<polygon fill="#FFFFFF" points="4329.5,2011 4229.5,2184 4129.5,2011 "/>
<polygon fill="#F2F2F2" points="4129.5,2011 4229.5,1838 4329.5,2011 "/>
<polygon fill="#F2F2F2" points="4729.5,1665 4629.5,1838 4529.5,1665 "/>
<polygon fill="#F2F2F2" points="4529.5,1665 4629.5,1492 4729.5,1665 "/>
<polygon fill="#FFFFFF" points="4629.5,1838 4529.5,2011 4429.5,1838 "/>
<polygon fill="#F2F2F2" points="4429.5,1838 4529.5,1665 4629.5,1838 "/>
<polygon fill="#F2F2F2" points="6629.5,2530 6529.5,2357 6429.5,2530 "/>
<polygon fill="#FFFFFF" points="6429.5,2184 6329.5,2011 6229.5,2184 "/>
<polygon fill="#FFFFFF" points="6329.5,2357 6429.5,2530 6529.5,2357 "/>
<polygon fill="#FFFFFF" points="6529.5,2357 6429.5,2184 6329.5,2357 "/>
<polygon fill="#F2F2F2" points="6029.5,1838 6129.5,2011 6229.5,1838 "/>
<polygon fill="#FFFFFF" points="6129.5,2011 6029.5,1838 5929.5,2011 "/>
<polygon fill="#FFFFFF" points="6129.5,2011 6229.5,2184 6329.5,2011 "/>
<polygon fill="#F2F2F2" points="6329.5,2011 6229.5,1838 6129.5,2011 "/>
<polygon fill="#F2F2F2" points="5729.5,1665 5829.5,1838 5929.5,1665 "/>
<polygon fill="#F2F2F2" points="5929.5,1665 5829.5,1492 5729.5,1665 "/>
<polygon fill="#FFFFFF" points="5829.5,1838 5929.5,2011 6029.5,1838 "/>
<polygon fill="#F2F2F2" points="6029.5,1838 5929.5,1665 5829.5,1838 "/>
<polygon fill="#FFFFFF" points="6229.5,2184 6329.5,2357 6429.5,2184 "/>
<polygon fill="#F2F2F2" points="6429.5,2530 6529.5,2703 6629.5,2530 "/>
<polygon fill="#FFFFFF" points="4929.5,1665 4829.5,1838 4729.5,1665 "/>
<polygon fill="#F2F2F2" points="4729.5,1665 4829.5,1492 4929.5,1665 "/>
<polygon fill="#FFFFFF" points="4629.5,1838 4729.5,1665 4829.5,1838 "/>
<polygon fill="#FFFFFF" points="5529.5,1665 5629.5,1838 5729.5,1665 "/>
<polygon fill="#F2F2F2" points="5729.5,1665 5629.5,1492 5529.5,1665 "/>
<polygon fill="#FFFFFF" points="5829.5,1838 5729.5,1665 5629.5,1838 "/>
<polygon fill="#F2F2F2" points="4829.5,1492 4729.5,1665 4629.5,1492 "/>
<polygon fill="#F2F2F2" points="5829.5,1492 5729.5,1665 5629.5,1492 "/>
<polygon fill="#FFFFFF" points="5529.5,1665 5429.5,1492 5329.5,1665 "/>
<polygon fill="#FFFFFF" points="5329.5,1665 5229.5,1492 5129.5,1665 "/>
<polygon fill="#FFFFFF" points="5429.5,1492 5329.5,1665 5229.5,1492 "/>
<polygon fill="#FFFFFF" points="4929.5,1665 5029.5,1492 5129.5,1665 "/>
<polygon fill="#F2F2F2" points="5029.5,1492 4929.5,1665 4829.5,1492 "/>
<polygon fill="#FFFFFF" points="5229.5,1492 5129.5,1665 5029.5,1492 "/>
<polygon fill="#F2F2F2" points="5629.5,1492 5529.5,1665 5429.5,1492 "/>
<polygon fill="#F2F2F2" points="4029.5,3222 3929.5,3395 3829.5,3222 "/>
<polygon fill="#F2F2F2" points="3829.5,3222 3929.5,3049 4029.5,3222 "/>
<polygon fill="#F2F2F2" points="3929.5,3049 3829.5,3222 3729.5,3049 "/>
<polygon fill="#F2F2F2" points="3729.5,3049 3829.5,2876 3929.5,3049 "/>
<polygon fill="#F2F2F2" points="3829.5,2876 3729.5,3049 3629.5,2876 "/>
<polygon fill="#F2F2F2" points="3629.5,2876 3729.5,2703 3829.5,2876 "/>
<polygon fill="#F2F2F2" points="4329.5,3741 4229.5,3914 4129.5,3741 "/>
<polygon fill="#FFFFFF" points="4129.5,3741 4229.5,3568 4329.5,3741 "/>
<polygon fill="#FFFFFF" points="4229.5,3568 4129.5,3741 4029.5,3568 "/>
<polygon fill="#FFFFFF" points="4029.5,3568 4129.5,3395 4229.5,3568 "/>
<polygon fill="#FFFFFF" points="4129.5,3395 4029.5,3568 3929.5,3395 "/>
<polygon fill="#FFFFFF" points="3929.5,3395 4029.5,3222 4129.5,3395 "/>
<polygon fill="#F2F2F2" points="4929.5,4087 4829.5,4260 4729.5,4087 "/>
<polygon fill="#FFFFFF" points="4729.5,4087 4829.5,3914 4929.5,4087 "/>
<polygon fill="#FFFFFF" points="4829.5,3914 4729.5,4087 4629.5,3914 "/>
<polygon fill="#F2F2F2" points="4529.5,4087 4629.5,3914 4729.5,4087 "/>
<polygon fill="#F2F2F2" points="4629.5,3914 4529.5,4087 4429.5,3914 "/>
<polygon fill="#FFFFFF" points="4429.5,3914 4529.5,3741 4629.5,3914 "/>
<polygon fill="#FFFFFF" points="4529.5,3741 4429.5,3914 4329.5,3741 "/>
<polygon fill="#F2F2F2" points="4229.5,3914 4329.5,3741 4429.5,3914 "/>
<polygon fill="#F2F2F2" points="6429.5,3222 6529.5,3395 6629.5,3222 "/>
<polygon fill="#F2F2F2" points="6629.5,3222 6529.5,3049 6429.5,3222 "/>
<polygon fill="#F2F2F2" points="6529.5,3049 6629.5,3222 6729.5,3049 "/>
<polygon fill="#F2F2F2" points="6729.5,3049 6629.5,2876 6529.5,3049 "/>
<polygon fill="#F2F2F2" points="6629.5,2876 6729.5,3049 6829.5,2876 "/>
<polygon fill="#F2F2F2" points="6829.5,2876 6729.5,2703 6629.5,2876 "/>
<polygon fill="#F2F2F2" points="6129.5,3741 6229.5,3914 6329.5,3741 "/>
<polygon fill="#FFFFFF" points="6329.5,3741 6229.5,3568 6129.5,3741 "/>
<polygon fill="#FFFFFF" points="6229.5,3568 6329.5,3741 6429.5,3568 "/>
<polygon fill="#FFFFFF" points="6429.5,3568 6329.5,3395 6229.5,3568 "/>
<polygon fill="#FFFFFF" points="6329.5,3395 6429.5,3568 6529.5,3395 "/>
<polygon fill="#FFFFFF" points="6529.5,3395 6429.5,3222 6329.5,3395 "/>
<polygon fill="#F2F2F2" points="5529.5,4087 5629.5,4260 5729.5,4087 "/>
<polygon fill="#FFFFFF" points="5729.5,4087 5629.5,3914 5529.5,4087 "/>
<polygon fill="#FFFFFF" points="5629.5,3914 5729.5,4087 5829.5,3914 "/>
<polygon fill="#F2F2F2" points="5929.5,4087 5829.5,3914 5729.5,4087 "/>
<polygon fill="#F2F2F2" points="5829.5,3914 5929.5,4087 6029.5,3914 "/>
<polygon fill="#FFFFFF" points="6029.5,3914 5929.5,3741 5829.5,3914 "/>
<polygon fill="#FFFFFF" points="5929.5,3741 6029.5,3914 6129.5,3741 "/>
<polygon fill="#F2F2F2" points="6229.5,3914 6129.5,3741 6029.5,3914 "/>
<polygon fill="#F2F2F2" points="6529.5,2703 6629.5,2876 6729.5,2703 "/>
<polygon fill="#F2F2F2" points="6729.5,2703 6629.5,2530 6529.5,2703 "/>
<polygon fill="#FFFFFF" points="5429.5,4260 5329.5,4087 5229.5,4260 "/>
<polygon fill="#FFFFFF" points="5229.5,4260 5129.5,4087 5029.5,4260 "/>
<polygon fill="#FFFFFF" points="5329.5,4087 5229.5,4260 5129.5,4087 "/>
<polygon fill="#F2F2F2" points="4829.5,4260 4929.5,4087 5029.5,4260 "/>
<polygon fill="#FFFFFF" points="5129.5,4087 5029.5,4260 4929.5,4087 "/>
<polygon fill="#FFFFFF" points="5529.5,4087 5429.5,4260 5329.5,4087 "/>
<polygon fill="#F2F2F2" points="5629.5,4260 5529.5,4087 5429.5,4260 "/>
<polygon fill="#E6E6E6" points="4629.5,1492 4729.5,1319 4829.5,1492 "/>
<polygon fill="#E6E6E6" points="6029.5,1492 5929.5,1319 5829.5,1492 "/>
<polygon fill="#F2F2F2" points="4829.5,1492 4929.5,1319 5029.5,1492 "/>
<polygon fill="#E6E6E6" points="5829.5,1492 5729.5,1319 5629.5,1492 "/>
<polygon fill="#E6E6E6" points="4929.5,1319 4829.5,1492 4729.5,1319 "/>
<polygon fill="#E6E6E6" points="5929.5,1319 5829.5,1492 5729.5,1319 "/>
<polygon fill="#F2F2F2" points="5629.5,1492 5529.5,1319 5429.5,1492 "/>
<polygon fill="#F2F2F2" points="5429.5,1492 5329.5,1319 5229.5,1492 "/>
<polygon fill="#F2F2F2" points="5529.5,1319 5429.5,1492 5329.5,1319 "/>
<polygon fill="#F2F2F2" points="5029.5,1492 5129.5,1319 5229.5,1492 "/>
<polygon fill="#F2F2F2" points="5129.5,1319 5029.5,1492 4929.5,1319 "/>
<polygon fill="#E6E6E6" points="5729.5,1319 5629.5,1492 5529.5,1319 "/>
<polygon fill="#E6E6E6" points="4429.5,1492 4529.5,1319 4629.5,1492 "/>
<polygon fill="#E6E6E6" points="4729.5,1319 4629.5,1492 4529.5,1319 "/>
<polygon fill="#F2F2F2" points="4529.5,1665 4429.5,1838 4329.5,1665 "/>
<polygon fill="#F2F2F2" points="4329.5,1665 4429.5,1492 4529.5,1665 "/>
<polygon fill="#F2F2F2" points="4229.5,1838 4329.5,1665 4429.5,1838 "/>
<polygon fill="#F2F2F2" points="4629.5,1492 4529.5,1665 4429.5,1492 "/>
<polygon fill="#F2F2F2" points="5929.5,1665 6029.5,1838 6129.5,1665 "/>
<polygon fill="#F2F2F2" points="6129.5,1665 6029.5,1492 5929.5,1665 "/>
<polygon fill="#F2F2F2" points="6229.5,1838 6129.5,1665 6029.5,1838 "/>
<polygon fill="#F2F2F2" points="6029.5,1492 5929.5,1665 5829.5,1492 "/>
<polygon fill="#F2F2F2" points="4629.5,4260 4729.5,4087 4829.5,4260 "/>
<polygon fill="#F2F2F2" points="4729.5,4087 4629.5,4260 4529.5,4087 "/>
<polygon fill="#F2F2F2" points="4429.5,4260 4529.5,4087 4629.5,4260 "/>
<polygon fill="#F2F2F2" points="4529.5,4087 4429.5,4260 4329.5,4087 "/>
<polygon fill="#F2F2F2" points="4329.5,4087 4429.5,3914 4529.5,4087 "/>
<polygon fill="#F2F2F2" points="4429.5,3914 4329.5,4087 4229.5,3914 "/>
<polygon fill="#F2F2F2" points="5829.5,4260 5729.5,4087 5629.5,4260 "/>
<polygon fill="#F2F2F2" points="5729.5,4087 5829.5,4260 5929.5,4087 "/>
<polygon fill="#F2F2F2" points="6029.5,4260 5929.5,4087 5829.5,4260 "/>
<polygon fill="#F2F2F2" points="5929.5,4087 6029.5,4260 6129.5,4087 "/>
<polygon fill="#F2F2F2" points="6129.5,4087 6029.5,3914 5929.5,4087 "/>
<polygon fill="#F2F2F2" points="6029.5,3914 6129.5,4087 6229.5,3914 "/>
<polygon fill="#E6E6E6" points="6829.5,2530 6729.5,2357 6629.5,2530 "/>
<polygon fill="#F2F2F2" points="6629.5,2184 6529.5,2011 6429.5,2184 "/>
<polygon fill="#F2F2F2" points="6529.5,2357 6629.5,2530 6729.5,2357 "/>
<polygon fill="#F2F2F2" points="6729.5,2357 6629.5,2184 6529.5,2357 "/>
<polygon fill="#F2F2F2" points="6229.5,1838 6329.5,2011 6429.5,1838 "/>
<polygon fill="#F2F2F2" points="6329.5,2011 6429.5,2184 6529.5,2011 "/>
<polygon fill="#F2F2F2" points="6429.5,2184 6529.5,2357 6629.5,2184 "/>
<polygon fill="#E6E6E6" points="6629.5,2530 6729.5,2703 6829.5,2530 "/>
<polygon fill="#E6E6E6" points="6729.5,2703 6829.5,2876 6929.5,2703 "/>
<polygon fill="#E6E6E6" points="6929.5,2703 6829.5,2530 6729.5,2703 "/>
<polygon fill="#E6E6E6" points="6129.5,1665 6229.5,1838 6329.5,1665 "/>
<polygon fill="#E6E6E6" points="6329.5,1665 6229.5,1492 6129.5,1665 "/>
<polygon fill="#E6E6E6" points="6429.5,1838 6329.5,1665 6229.5,1838 "/>
<polygon fill="#E6E6E6" points="6229.5,1492 6129.5,1665 6029.5,1492 "/>
<polygon fill="#FBB03B" points="4329.5,4087 4229.5,3914 4129.5,4087 "/>
<polygon fill="#F2F2F2" points="4129.5,3741 4029.5,3568 3929.5,3741 "/>
<polygon fill="#FBB03B" points="4029.5,3914 4129.5,4087 4229.5,3914 "/>
<polygon fill="#F2F2F2" points="4229.5,3914 4129.5,3741 4029.5,3914 "/>
<polygon fill="#F2F2F2" points="3829.5,3568 3929.5,3741 4029.5,3568 "/>
<polygon fill="#F2F2F2" points="4029.5,3568 3929.5,3395 3829.5,3568 "/>
<polygon fill="#F2F2F2" points="3929.5,3741 4029.5,3914 4129.5,3741 "/>
<polygon fill="#FBB03B" points="4129.5,4087 4229.5,4260 4329.5,4087 "/>
<polygon fill="#FBB03B" points="4429.5,4260 4329.5,4087 4229.5,4260 "/>
<polygon fill="#F2F2F2" points="3729.5,3049 3629.5,2876 3529.5,3049 "/>
<polygon fill="#F2F2F2" points="3629.5,3222 3729.5,3395 3829.5,3222 "/>
<polygon fill="#F2F2F2" points="3829.5,3222 3729.5,3049 3629.5,3222 "/>
<polygon fill="#F2F2F2" points="3929.5,3395 3829.5,3222 3729.5,3395 "/>
<polygon fill="#F2F2F2" points="3729.5,3049 3629.5,3222 3529.5,3049 "/>
<polygon fill="#E6E6E6" points="3629.5,2530 3729.5,2357 3829.5,2530 "/>
<polygon fill="#F2F2F2" points="3829.5,2184 3929.5,2011 4029.5,2184 "/>
<polygon fill="#F2F2F2" points="3929.5,2357 3829.5,2530 3729.5,2357 "/>
<polygon fill="#F2F2F2" points="3729.5,2357 3829.5,2184 3929.5,2357 "/>
<polygon fill="#F2F2F2" points="4129.5,2011 4029.5,2184 3929.5,2011 "/>
<polygon fill="#F2F2F2" points="3929.5,2011 4029.5,1838 4129.5,2011 "/>
<polygon fill="#F2F2F2" points="4029.5,2184 3929.5,2357 3829.5,2184 "/>
<polygon fill="#E6E6E6" points="3829.5,2530 3729.5,2703 3629.5,2530 "/>
<polygon fill="#E6E6E6" points="3729.5,2703 3629.5,2876 3529.5,2703 "/>
<polygon fill="#E6E6E6" points="3529.5,2703 3629.5,2530 3729.5,2703 "/>
<polygon fill="#E6E6E6" points="4329.5,1665 4229.5,1838 4129.5,1665 "/>
<polygon fill="#E6E6E6" points="4129.5,1665 4229.5,1492 4329.5,1665 "/>
<polygon fill="#E6E6E6" points="4029.5,1838 4129.5,1665 4229.5,1838 "/>
<polygon fill="#E6E6E6" points="4229.5,1492 4329.5,1665 4429.5,1492 "/>
<polygon fill="#FBB03B" points="6129.5,4087 6229.5,3914 6329.5,4087 "/>
<polygon fill="#F2F2F2" points="6329.5,3741 6429.5,3568 6529.5,3741 "/>
<polygon fill="#FBB03B" points="6429.5,3914 6329.5,4087 6229.5,3914 "/>
<polygon fill="#F2F2F2" points="6229.5,3914 6329.5,3741 6429.5,3914 "/>
<polygon fill="#F2F2F2" points="6729.5,3395 6629.5,3568 6529.5,3395 "/>
<polygon fill="#F2F2F2" points="6629.5,3568 6529.5,3741 6429.5,3568 "/>
<polygon fill="#F2F2F2" points="6429.5,3568 6529.5,3395 6629.5,3568 "/>
<polygon fill="#FBB03B" points="6329.5,4087 6229.5,4260 6129.5,4087 "/>
<polygon fill="#FBB03B" points="6029.5,4260 6129.5,4087 6229.5,4260 "/>
<polygon fill="#F2F2F2" points="6729.5,3049 6829.5,2876 6929.5,3049 "/>
<polygon fill="#F2F2F2" points="6829.5,3222 6729.5,3395 6629.5,3222 "/>
<polygon fill="#F2F2F2" points="6629.5,3222 6729.5,3049 6829.5,3222 "/>
<polygon fill="#F2F2F2" points="6529.5,3395 6629.5,3222 6729.5,3395 "/>
<polygon fill="#F2F2F2" points="6729.5,3049 6829.5,3222 6929.5,3049 "/>
<polygon fill="#FBB03B" points="4729.5,4433 4829.5,4260 4929.5,4433 "/>
<polygon fill="#F2F2F2" points="4929.5,4433 5029.5,4260 5129.5,4433 "/>
<polygon fill="#FBB03B" points="5929.5,4433 5829.5,4260 5729.5,4433 "/>
<polygon fill="#F2F2F2" points="5029.5,4260 4929.5,4433 4829.5,4260 "/>
<polygon fill="#FBB03B" points="6029.5,4260 5929.5,4433 5829.5,4260 "/>
<polygon fill="#FBB03B" points="5729.5,4433 5629.5,4260 5529.5,4433 "/>
<polygon fill="#F2F2F2" points="5629.5,4260 5529.5,4433 5429.5,4260 "/>
<polygon fill="#F2F2F2" points="5129.5,4433 5229.5,4260 5329.5,4433 "/>
<polygon fill="#F2F2F2" points="5229.5,4260 5129.5,4433 5029.5,4260 "/>
<polygon fill="#F2F2F2" points="5429.5,4260 5329.5,4433 5229.5,4260 "/>
<polygon fill="#FBB03B" points="5829.5,4260 5729.5,4433 5629.5,4260 "/>
<polygon fill="#FBB03B" points="4829.5,4260 4729.5,4433 4629.5,4260 "/>
<polygon fill="#FBB03B" points="4529.5,4433 4629.5,4260 4729.5,4433 "/>
<polygon fill="#FBB03B" points="4629.5,4260 4529.5,4433 4429.5,4260 "/>
<polygon fill="#FBB03B" points="5429.5,4606 5329.5,4433 5229.5,4606 "/>
<polygon fill="#FBB03B" points="5529.5,4433 5429.5,4606 5329.5,4433 "/>
<polygon fill="#FBB03B" points="5029.5,4606 5129.5,4433 5229.5,4606 "/>
<polygon fill="#FBB03B" points="5129.5,4433 5029.5,4606 4929.5,4433 "/>
<polygon fill="#FBB03B" points="5329.5,4433 5229.5,4606 5129.5,4433 "/>
<polygon fill="#F2F2F2" points="5529.5,4433 5429.5,4260 5329.5,4433 "/>
<polygon fill="#FBB03B" points="4029.5,3914 3929.5,3741 3829.5,3914 "/>
<polygon fill="#FBB03B" points="3629.5,3568 3729.5,3741 3829.5,3568 "/>
<polygon fill="#FBB03B" points="3729.5,3741 3829.5,3914 3929.5,3741 "/>
<polygon fill="#FBB03B" points="3929.5,3741 3829.5,3568 3729.5,3741 "/>
<polygon fill="#FBB03B" points="3829.5,3568 3729.5,3395 3629.5,3568 "/>
<polygon fill="#F2F2F2" points="3729.5,3395 3829.5,3568 3929.5,3395 "/>
<polygon fill="#FBB03B" points="6429.5,3914 6529.5,3741 6629.5,3914 "/>
<polygon fill="#FBB03B" points="6829.5,3568 6729.5,3741 6629.5,3568 "/>
<polygon fill="#FBB03B" points="6729.5,3741 6629.5,3914 6529.5,3741 "/>
<polygon fill="#FBB03B" points="6529.5,3741 6629.5,3568 6729.5,3741 "/>
<polygon fill="#FBB03B" points="6629.5,3568 6729.5,3395 6829.5,3568 "/>
<polygon fill="#F2F2F2" points="6529.5,3741 6429.5,3914 6329.5,3741 "/>
<polygon fill="#E6E6E6" points="3629.5,2184 3729.5,2011 3829.5,2184 "/>
<polygon fill="#E6E6E6" points="4029.5,1838 3929.5,2011 3829.5,1838 "/>
<polygon fill="#E6E6E6" points="3929.5,2011 3829.5,2184 3729.5,2011 "/>
<polygon fill="#E6E6E6" points="3729.5,2011 3829.5,1838 3929.5,2011 "/>
<polygon fill="#E6E6E6" points="3829.5,2184 3729.5,2357 3629.5,2184 "/>
<polygon fill="#F2F2F2" points="4229.5,1838 4129.5,2011 4029.5,1838 "/>
<polygon fill="#E6E6E6" points="6829.5,2184 6729.5,2011 6629.5,2184 "/>
<polygon fill="#E6E6E6" points="6429.5,1838 6529.5,2011 6629.5,1838 "/>
<polygon fill="#E6E6E6" points="6529.5,2011 6629.5,2184 6729.5,2011 "/>
<polygon fill="#E6E6E6" points="6729.5,2011 6629.5,1838 6529.5,2011 "/>
<polygon fill="#E6E6E6" points="6629.5,2184 6729.5,2357 6829.5,2184 "/>
<polygon fill="#F2F2F2" points="6529.5,2011 6429.5,1838 6329.5,2011 "/>
<polygon fill="#E6E6E6" points="5529.5,1319 5429.5,1146 5329.5,1319 "/>
<polygon fill="#E6E6E6" points="5329.5,1319 5229.5,1146 5129.5,1319 "/>
<polygon fill="#E6E6E6" points="5129.5,1319 5029.5,1146 4929.5,1319 "/>
<polygon fill="#E6E6E6" points="5229.5,1146 5129.5,1319 5029.5,1146 "/>
<polygon fill="#E6E6E6" points="5429.5,1146 5329.5,1319 5229.5,1146 "/>
<polygon fill="#F2F2F2" points="5329.5,1319 5229.5,1492 5129.5,1319 "/>
<polygon fill="#E6E6A5" points="3729.5,2357 3629.5,2530 3529.5,2357 "/>
<polygon fill="#E6E6A5" points="3529.5,2357 3629.5,2184 3729.5,2357 "/>
<polygon fill="#F7931E" points="6329.5,4087 6429.5,3914 6529.5,4087 "/>
<polygon fill="#F7931E" points="6629.5,3914 6529.5,4087 6429.5,3914 "/>
<polygon fill="#FBB03B" points="6929.5,3395 6829.5,3568 6729.5,3395 "/>
<polygon fill="#FBB03B" points="6729.5,3395 6829.5,3222 6929.5,3395 "/>
<polygon fill="#E6E6A5" points="6429.5,1838 6529.5,1665 6629.5,1838 "/>
<polygon fill="#E6E6A5" points="6529.5,1665 6429.5,1838 6329.5,1665 "/>
<polygon fill="#E6E6A5" points="6729.5,2357 6829.5,2184 6929.5,2357 "/>
<polygon fill="#E6E6A5" points="6929.5,2357 6829.5,2530 6729.5,2357 "/>
<polygon fill="#F7931E" points="4829.5,4606 4929.5,4433 5029.5,4606 "/>
<polygon fill="#F7931E" points="4929.5,4433 4829.5,4606 4729.5,4433 "/>
<polygon fill="#F7931E" points="5429.5,4606 5529.5,4433 5629.5,4606 "/>
<polygon fill="#F7931E" points="5729.5,4433 5629.5,4606 5529.5,4433 "/>
<polygon fill="#E6E6A5" points="5029.5,1146 4929.5,1319 4829.5,1146 "/>
<polygon fill="#E6E6A5" points="5529.5,1319 5629.5,1146 5729.5,1319 "/>
<polygon fill="#E6E6A5" points="5629.5,1146 5529.5,1319 5429.5,1146 "/>
<polygon fill="#E6E6A5" points="4729.5,1319 4829.5,1146 4929.5,1319 "/>
<polygon fill="#F7931E" points="4029.5,3914 3929.5,4087 3829.5,3914 "/>
<polygon fill="#F7931E" points="3929.5,4087 4029.5,3914 4129.5,4087 "/>
<polygon fill="#FBB03B" points="3729.5,3395 3629.5,3568 3529.5,3395 "/>
<polygon fill="#FBB03B" points="3529.5,3395 3629.5,3222 3729.5,3395 "/>
<polygon fill="#E6E6A5" points="6129.5,1319 6029.5,1492 5929.5,1319 "/>
<polygon fill="#E6E6A5" points="6029.5,1492 6129.5,1319 6229.5,1492 "/>
<polygon fill="#F7931E" points="4429.5,4260 4329.5,4433 4229.5,4260 "/>
<polygon fill="#F7931E" points="4329.5,4433 4429.5,4260 4529.5,4433 "/>
<polygon fill="#F7931E" points="6229.5,4260 6129.5,4433 6029.5,4260 "/>
<polygon fill="#F7931E" points="5929.5,4433 6029.5,4260 6129.5,4433 "/>
<polygon fill="#E6E6A5" points="4529.5,1319 4429.5,1492 4329.5,1319 "/>
<polygon fill="#E6E6A5" points="4229.5,1492 4329.5,1319 4429.5,1492 "/>
<polygon fill="#E6E6E6" points="6829.5,2876 6929.5,2703 7029.5,2876 "/>
<polygon fill="#F2F2F2" points="7029.5,2876 6929.5,3049 6829.5,2876 "/>
<polygon fill="#E6E6E6" points="3429.5,2876 3529.5,2703 3629.5,2876 "/>
<polygon fill="#F2F2F2" points="3629.5,2876 3529.5,3049 3429.5,2876 "/>
<polygon fill="#FBB03B" points="3629.5,2184 3529.5,2357 3429.5,2184 "/>
<polygon fill="#FBB03B" points="3429.5,2184 3529.5,2011 3629.5,2184 "/>
<polygon fill="#E6E6A5" points="3729.5,2011 3629.5,2184 3529.5,2011 "/>
<polygon fill="#E6E6A5" points="3529.5,2011 3629.5,1838 3729.5,2011 "/>
<polygon fill="#E6E6A5" points="3829.5,1838 3729.5,2011 3629.5,1838 "/>
<polygon fill="#FBB03B" points="3629.5,1838 3729.5,1665 3829.5,1838 "/>
<polygon fill="#FBB03B" points="3929.5,1665 3829.5,1838 3729.5,1665 "/>
<polygon fill="#FBB03B" points="3729.5,1665 3829.5,1492 3929.5,1665 "/>
<polygon fill="#FBB03B" points="4029.5,1492 3929.5,1665 3829.5,1492 "/>
<polygon fill="#FBB03B" points="4029.5,1492 4129.5,1319 4229.5,1492 "/>
<polygon fill="#FBB03B" points="4329.5,1319 4429.5,1146 4529.5,1319 "/>
<polygon fill="#FBB03B" points="4629.5,1146 4529.5,1319 4429.5,1146 "/>
<polygon fill="#FBB03B" points="4829.5,1146 4929.5,973 5029.5,1146 "/>
<polygon fill="#FBB03B" points="4929.5,973 4829.5,1146 4729.5,973 "/>
<polygon fill="#E6E6A5" points="5029.5,1146 5129.5,973 5229.5,1146 "/>
<polygon fill="#FBB03B" points="5129.5,973 5029.5,1146 4929.5,973 "/>
<polygon fill="#E6E6A5" points="5229.5,1146 5329.5,973 5429.5,1146 "/>
<polygon fill="#E6E6A5" points="5329.5,973 5229.5,1146 5129.5,973 "/>
<polygon fill="#FBB03B" points="5429.5,1146 5529.5,973 5629.5,1146 "/>
<polygon fill="#FBB03B" points="5529.5,973 5429.5,1146 5329.5,973 "/>
<polygon fill="#FBB03B" points="4629.5,1146 4729.5,973 4829.5,1146 "/>
<polygon fill="#FBB03B" points="4429.5,1146 4329.5,1319 4229.5,1146 "/>
<polygon fill="#FBB03B" points="4129.5,1319 4229.5,1146 4329.5,1319 "/>
<polygon fill="#E6E6A5" points="3329.5,2703 3429.5,2530 3529.5,2703 "/>
<polygon fill="#E6E6E6" points="3529.5,2703 3429.5,2876 3329.5,2703 "/>
<polygon fill="#E6E6A5" points="3929.5,1665 4029.5,1492 4129.5,1665 "/>
<polygon fill="#E6E6A5" points="4229.5,1492 4129.5,1665 4029.5,1492 "/>
<polygon fill="#E6E6A5" points="4829.5,1146 4729.5,1319 4629.5,1146 "/>
<polygon fill="#E6E6A5" points="4529.5,1319 4629.5,1146 4729.5,1319 "/>
<polygon fill="#E6E6A5" points="3629.5,2530 3529.5,2703 3429.5,2530 "/>
<polygon fill="#E6E6A5" points="3429.5,2530 3529.5,2357 3629.5,2530 "/>
<polygon fill="#FBB03B" points="4329.5,1319 4229.5,1492 4129.5,1319 "/>
<polygon fill="#FBB03B" points="3529.5,2357 3429.5,2530 3329.5,2357 "/>
<polygon fill="#FBB03B" points="3329.5,2357 3429.5,2184 3529.5,2357 "/>
<polygon fill="#F2F2F2" points="3529.5,3049 3429.5,3222 3329.5,3049 "/>
<polygon fill="#F2F2F2" points="3329.5,3049 3429.5,2876 3529.5,3049 "/>
<polygon fill="#F2F2F2" points="3429.5,2876 3329.5,3049 3229.5,2876 "/>
<polygon fill="#E6E6E6" points="3229.5,2876 3329.5,2703 3429.5,2876 "/>
<polygon fill="#FBB03B" points="3629.5,3222 3529.5,3395 3429.5,3222 "/>
<polygon fill="#F2F2F2" points="3429.5,3222 3529.5,3049 3629.5,3222 "/>
<polygon fill="#F7931E" points="3629.5,3568 3529.5,3741 3429.5,3568 "/>
<polygon fill="#F7931E" points="3429.5,3568 3529.5,3395 3629.5,3568 "/>
<polygon fill="#F7931E" points="3529.5,3395 3429.5,3568 3329.5,3395 "/>
<polygon fill="#F7931E" points="3329.5,3395 3429.5,3222 3529.5,3395 "/>
<polygon fill="#F7931E" points="3729.5,3741 3629.5,3914 3529.5,3741 "/>
<polygon fill="#F7931E" points="3529.5,3741 3629.5,3568 3729.5,3741 "/>
<polygon fill="#F7931E" points="3929.5,4087 3829.5,4260 3729.5,4087 "/>
<polygon fill="#F7931E" points="3729.5,4087 3829.5,3914 3929.5,4087 "/>
<polygon fill="#F7931E" points="3829.5,3914 3729.5,4087 3629.5,3914 "/>
<polygon fill="#F7931E" points="3629.5,3914 3729.5,3741 3829.5,3914 "/>
<polygon fill="#F7931E" points="3829.5,4260 3929.5,4087 4029.5,4260 "/>
<polygon fill="#F7931E" points="4129.5,4087 4029.5,4260 3929.5,4087 "/>
<polygon fill="#F7931E" points="4029.5,4260 4129.5,4087 4229.5,4260 "/>
<polygon fill="#F7931E" points="4329.5,4433 4229.5,4606 4129.5,4433 "/>
<polygon fill="#F7931E" points="4129.5,4433 4229.5,4260 4329.5,4433 "/>
<polygon fill="#F7931E" points="4229.5,4260 4129.5,4433 4029.5,4260 "/>
<polygon fill="#F7931E" points="4229.5,4606 4329.5,4433 4429.5,4606 "/>
<polygon fill="#F7931E" points="4529.5,4433 4429.5,4606 4329.5,4433 "/>
<polygon fill="#F7931E" points="4429.5,4606 4529.5,4433 4629.5,4606 "/>
<polygon fill="#F7931E" points="4829.5,4606 4729.5,4779 4629.5,4606 "/>
<polygon fill="#F7931E" points="4629.5,4606 4729.5,4433 4829.5,4606 "/>
<polygon fill="#F7931E" points="4729.5,4433 4629.5,4606 4529.5,4433 "/>
<polygon fill="#F7931E" points="4729.5,4779 4829.5,4606 4929.5,4779 "/>
<polygon fill="#F7931E" points="5029.5,4606 4929.5,4779 4829.5,4606 "/>
<polygon fill="#F7931E" points="4929.5,4779 5029.5,4606 5129.5,4779 "/>
<polygon fill="#F7931E" points="5229.5,4606 5129.5,4779 5029.5,4606 "/>
<polygon fill="#F7931E" points="5129.5,4779 5229.5,4606 5329.5,4779 "/>
<polygon fill="#F7931E" points="5429.5,4606 5329.5,4779 5229.5,4606 "/>
<polygon fill="#F7931E" points="5329.5,4779 5429.5,4606 5529.5,4779 "/>
<polygon fill="#F7931E" points="5529.5,4779 5629.5,4606 5729.5,4779 "/>
<polygon fill="#F7931E" points="5629.5,4606 5529.5,4779 5429.5,4606 "/>
<polygon fill="#FBB03B" points="5629.5,1146 5729.5,973 5829.5,1146 "/>
<polygon fill="#FBB03B" points="5729.5,973 5629.5,1146 5529.5,973 "/>
<polygon fill="#E6E6A5" points="5729.5,1319 5829.5,1146 5929.5,1319 "/>
<polygon fill="#E6E6A5" points="5829.5,1146 5729.5,1319 5629.5,1146 "/>
<polygon fill="#FBB03B" points="5929.5,1319 6029.5,1146 6129.5,1319 "/>
<polygon fill="#FBB03B" points="6029.5,1146 5929.5,1319 5829.5,1146 "/>
<polygon fill="#FBB03B" points="6129.5,1319 6229.5,1146 6329.5,1319 "/>
<polygon fill="#FBB03B" points="6229.5,1146 6129.5,1319 6029.5,1146 "/>
<polygon fill="#FBB03B" points="6229.5,1492 6329.5,1319 6429.5,1492 "/>
<polygon fill="#FBB03B" points="6329.5,1319 6229.5,1492 6129.5,1319 "/>
<polygon fill="#E6E6A5" points="6329.5,1665 6429.5,1492 6529.5,1665 "/>
<polygon fill="#E6E6A5" points="6429.5,1492 6329.5,1665 6229.5,1492 "/>
<polygon fill="#FBB03B" points="6529.5,1665 6629.5,1492 6729.5,1665 "/>
<polygon fill="#FBB03B" points="6629.5,1492 6529.5,1665 6429.5,1492 "/>
<polygon fill="#FBB03B" points="6629.5,1838 6729.5,1665 6829.5,1838 "/>
<polygon fill="#FBB03B" points="6729.5,1665 6629.5,1838 6529.5,1665 "/>
<polygon fill="#F7931E" points="5829.5,4606 5729.5,4779 5629.5,4606 "/>
<polygon fill="#F7931E" points="5629.5,4606 5729.5,4433 5829.5,4606 "/>
<polygon fill="#F7931E" points="5929.5,4433 5829.5,4606 5729.5,4433 "/>
<polygon fill="#F7931E" points="5829.5,4606 5929.5,4433 6029.5,4606 "/>
<polygon fill="#F7931E" points="6129.5,4433 6029.5,4606 5929.5,4433 "/>
<polygon fill="#F7931E" points="6029.5,4606 6129.5,4433 6229.5,4606 "/>
<polygon fill="#F7931E" points="6329.5,4433 6229.5,4606 6129.5,4433 "/>
<polygon fill="#F7931E" points="6129.5,4433 6229.5,4260 6329.5,4433 "/>
<polygon fill="#F7931E" points="6429.5,4260 6329.5,4433 6229.5,4260 "/>
<polygon fill="#F7931E" points="6229.5,4260 6329.5,4087 6429.5,4260 "/>
<polygon fill="#F7931E" points="6529.5,4087 6429.5,4260 6329.5,4087 "/>
<polygon fill="#F7931E" points="6429.5,4260 6529.5,4087 6629.5,4260 "/>
<polygon fill="#F7931E" points="6729.5,4087 6629.5,4260 6529.5,4087 "/>
<polygon fill="#F7931E" points="6529.5,4087 6629.5,3914 6729.5,4087 "/>
<polygon fill="#F7931E" points="6829.5,3914 6729.5,4087 6629.5,3914 "/>
<polygon fill="#E6E6A5" points="6729.5,2011 6829.5,1838 6929.5,2011 "/>
<polygon fill="#E6E6A5" points="6829.5,1838 6729.5,2011 6629.5,1838 "/>
<polygon fill="#FBB03B" points="6829.5,2184 6929.5,2011 7029.5,2184 "/>
<polygon fill="#E6E6A5" points="6929.5,2011 6829.5,2184 6729.5,2011 "/>
<polygon fill="#FBB03B" points="6929.5,2357 7029.5,2184 7129.5,2357 "/>
<polygon fill="#FBB03B" points="7029.5,2184 6929.5,2357 6829.5,2184 "/>
<polygon fill="#FBB03B" points="7129.5,2357 7029.5,2530 6929.5,2357 "/>
<polygon fill="#E6E6A5" points="6829.5,2530 6929.5,2357 7029.5,2530 "/>
<polygon fill="#E6E6A5" points="6929.5,2703 7029.5,2530 7129.5,2703 "/>
<polygon fill="#E6E6A5" points="7029.5,2530 6929.5,2703 6829.5,2530 "/>
<polygon fill="#E6E6E6" points="7029.5,2876 7129.5,2703 7229.5,2876 "/>
<polygon fill="#E6E6E6" points="7129.5,2703 7029.5,2876 6929.5,2703 "/>
<polygon fill="#F2F2F2" points="7229.5,2876 7129.5,3049 7029.5,2876 "/>
<polygon fill="#F7931E" points="6629.5,3914 6729.5,3741 6829.5,3914 "/>
<polygon fill="#F7931E" points="6929.5,3741 6829.5,3914 6729.5,3741 "/>
<polygon fill="#F7931E" points="6729.5,3741 6829.5,3568 6929.5,3741 "/>
<polygon fill="#F7931E" points="7029.5,3568 6929.5,3741 6829.5,3568 "/>
<polygon fill="#F7931E" points="6829.5,3568 6929.5,3395 7029.5,3568 "/>
<polygon fill="#F7931E" points="7129.5,3395 7029.5,3568 6929.5,3395 "/>
<polygon fill="#F7931E" points="6929.5,3395 7029.5,3222 7129.5,3395 "/>
<polygon fill="#FBB03B" points="7029.5,3222 6929.5,3395 6829.5,3222 "/>
<polygon fill="#F2F2F2" points="6829.5,3222 6929.5,3049 7029.5,3222 "/>
<polygon fill="#F2F2F2" points="7129.5,3049 7029.5,3222 6929.5,3049 "/>
<polygon fill="#F2F2F2" points="6929.5,3049 7029.5,2876 7129.5,3049 "/>
<polygon fill="#E6E6A5" points="3829.5,1838 3929.5,1665 4029.5,1838 "/>
<polygon fill="#E6E6A5" points="4129.5,1665 4029.5,1838 3929.5,1665 "/>
<polygon fill="#F7931E" points="3329.5,2011 3229.5,2184 3129.5,2011 "/>
<polygon fill="#F7931E" points="3129.5,2011 3229.5,1838 3329.5,2011 "/>
<polygon fill="#F7931E" points="3429.5,1838 3329.5,2011 3229.5,1838 "/>
<polygon fill="#F7931E" points="3229.5,1838 3329.5,1665 3429.5,1838 "/>
<polygon fill="#F7931E" points="3529.5,1665 3429.5,1838 3329.5,1665 "/>
<polygon fill="#F7931E" points="3329.5,1665 3429.5,1492 3529.5,1665 "/>
<polygon fill="#F7931E" points="3629.5,1492 3529.5,1665 3429.5,1492 "/>
<polygon fill="#F7931E" points="3429.5,1492 3529.5,1319 3629.5,1492 "/>
<polygon fill="#F7931E" points="3729.5,1319 3629.5,1492 3529.5,1319 "/>
<polygon fill="#F7931E" points="7429.5,2184 7329.5,2357 7229.5,2184 "/>
<polygon fill="#F7931E" points="3029.5,2184 3129.5,2011 3229.5,2184 "/>
<polygon fill="#F7931E" points="7329.5,2357 7429.5,2184 7529.5,2357 "/>
<polygon fill="#F7931E" points="7129.5,2011 7229.5,2184 7329.5,2011 "/>
<polygon fill="#F7931E" points="7329.5,2011 7229.5,1838 7129.5,2011 "/>
<polygon fill="#F7931E" points="7029.5,1838 7129.5,2011 7229.5,1838 "/>
<polygon fill="#F7931E" points="7229.5,1838 7129.5,1665 7029.5,1838 "/>
<polygon fill="#F7931E" points="6929.5,1665 7029.5,1838 7129.5,1665 "/>
<polygon fill="#F7931E" points="7129.5,1665 7029.5,1492 6929.5,1665 "/>
<polygon fill="#F7931E" points="6829.5,1492 6929.5,1665 7029.5,1492 "/>
<polygon fill="#F7931E" points="7029.5,1492 6929.5,1319 6829.5,1492 "/>
<polygon fill="#F7931E" points="6729.5,1319 6829.5,1492 6929.5,1319 "/>
<polygon fill="#F7931E" points="3029.5,2184 3129.5,2357 3229.5,2184 "/>
<polygon fill="#F7931E" points="7429.5,2184 7329.5,2011 7229.5,2184 "/>
<polygon fill="#F7931E" points="3129.5,2357 3029.5,2184 2929.5,2357 "/>
<polygon fill="#F7931E" points="4029.5,1146 3929.5,1319 3829.5,1146 "/>
<polygon fill="#F7931E" points="3829.5,1146 3929.5,973 4029.5,1146 "/>
<polygon fill="#F7931E" points="4129.5,973 4029.5,1146 3929.5,973 "/>
<polygon fill="#F7931E" points="4129.5,973 4229.5,800 4329.5,973 "/>
<polygon fill="#F7931E" points="4429.5,800 4329.5,973 4229.5,800 "/>
<polygon fill="#F7931E" points="4329.5,973 4429.5,800 4529.5,973 "/>
<polygon fill="#F7931E" points="4629.5,800 4529.5,973 4429.5,800 "/>
<polygon fill="#F7931E" points="3729.5,1319 3829.5,1146 3929.5,1319 "/>
<polygon fill="#F7931E" points="6429.5,1146 6529.5,1319 6629.5,1146 "/>
<polygon fill="#F7931E" points="6629.5,1146 6529.5,973 6429.5,1146 "/>
<polygon fill="#F7931E" points="6329.5,973 6429.5,1146 6529.5,973 "/>
<polygon fill="#F7931E" points="6329.5,973 6229.5,800 6129.5,973 "/>
<polygon fill="#F7931E" points="6029.5,800 6129.5,973 6229.5,800 "/>
<polygon fill="#F7931E" points="5829.5,800 5729.5,627 5629.5,800 "/>
<polygon fill="#F7931E" points="6729.5,1319 6629.5,1146 6529.5,1319 "/>
<polygon fill="#F7931E" points="5429.5,800 5529.5,627 5629.5,800 "/>
<polygon fill="#F7931E" points="5729.5,627 5629.5,800 5529.5,627 "/>
<polygon fill="#F7931E" points="5029.5,800 4929.5,627 4829.5,800 "/>
<polygon fill="#F7931E" points="4729.5,627 4829.5,800 4929.5,627 "/>
<polygon fill="#F7931E" points="5029.5,800 5129.5,627 5229.5,800 "/>
<polygon fill="#F7931E" points="5229.5,800 5329.5,627 5429.5,800 "/>
<polygon fill="#F7931E" points="5329.5,627 5229.5,800 5129.5,627 "/>
<polygon fill="#F7931E" points="6129.5,973 6029.5,800 5929.5,973 "/>
<polygon fill="#F7931E" points="5829.5,800 5929.5,973 6029.5,800 "/>
<polygon fill="#F7931E" points="4829.5,800 4729.5,627 4629.5,800 "/>
<polygon fill="#F7931E" points="4929.5,627 5029.5,800 5129.5,627 "/>
<polygon fill="#F7931E" points="5529.5,627 5429.5,800 5329.5,627 "/>
<polygon fill="#F7771E" points="3229.5,3222 3129.5,3395 3029.5,3222 "/>
<polygon fill="#F7771E" points="3329.5,3395 3229.5,3568 3129.5,3395 "/>
<polygon fill="#F7771E" points="3129.5,3395 3229.5,3222 3329.5,3395 "/>
<polygon fill="#F7771E" points="3029.5,3222 2929.5,3395 2829.5,3222 "/>
<polygon fill="#F7771E" points="2929.5,3395 3029.5,3222 3129.5,3395 "/>
<polygon fill="#F7771E" points="3229.5,3568 3329.5,3395 3429.5,3568 "/>
<polygon fill="#F7771E" points="2629.5,3222 2529.5,3395 2429.5,3222 "/>
<polygon fill="#F7771E" points="2829.5,3222 2729.5,3395 2629.5,3222 "/>
<polygon fill="#F7771E" points="2529.5,3395 2629.5,3222 2729.5,3395 "/>
<polygon fill="#F7771E" points="2429.5,3222 2329.5,3395 2229.5,3222 "/>
<polygon fill="#F7771E" points="2329.5,3395 2429.5,3222 2529.5,3395 "/>
<polygon fill="#F7771E" points="2729.5,3395 2829.5,3222 2929.5,3395 "/>
<polygon fill="#F7771E" points="7229.5,3222 7329.5,3395 7429.5,3222 "/>
<polygon fill="#F7771E" points="7129.5,3395 7229.5,3568 7329.5,3395 "/>
<polygon fill="#F7771E" points="7329.5,3395 7229.5,3222 7129.5,3395 "/>
<polygon fill="#F7771E" points="7429.5,3222 7529.5,3395 7629.5,3222 "/>
<polygon fill="#F7771E" points="7529.5,3395 7429.5,3222 7329.5,3395 "/>
<polygon fill="#F7771E" points="7229.5,3568 7129.5,3395 7029.5,3568 "/>
<polygon fill="#F7771E" points="7829.5,3222 7929.5,3395 8029.5,3222 "/>
<polygon fill="#F7771E" points="7629.5,3222 7729.5,3395 7829.5,3222 "/>
<polygon fill="#F7771E" points="7929.5,3395 7829.5,3222 7729.5,3395 "/>
<polygon fill="#F7771E" points="8029.5,3222 8129.5,3395 8229.5,3222 "/>
<polygon fill="#F7771E" points="8129.5,3395 8029.5,3222 7929.5,3395 "/>
<polygon fill="#F7771E" points="7729.5,3395 7629.5,3222 7529.5,3395 "/>
<polygon fill="#F7771E" points="8329.5,3049 8429.5,3222 8529.5,3049 "/>
<polygon fill="#F7771E" points="8229.5,3222 8329.5,3395 8429.5,3222 "/>
<polygon fill="#F7771E" points="8429.5,3222 8329.5,3049 8229.5,3222 "/>
<polygon fill="#F7771E" points="8529.5,3049 8629.5,3222 8729.5,3049 "/>
<polygon fill="#F7771E" points="8629.5,3222 8529.5,3049 8429.5,3222 "/>
<polygon fill="#F7771E" points="8329.5,3395 8229.5,3222 8129.5,3395 "/>
<polygon fill="#F7771E" points="8929.5,3049 9029.5,3222 9129.5,3049 "/>
<polygon fill="#F7771E" points="8729.5,3049 8829.5,3222 8929.5,3049 "/>
<polygon fill="#F7771E" points="9029.5,3222 8929.5,3049 8829.5,3222 "/>
<polygon fill="#F7771E" points="9129.5,3049 9229.5,3222 9329.5,3049 "/>
<polygon fill="#F7771E" points="9229.5,3222 9129.5,3049 9029.5,3222 "/>
<polygon fill="#F7771E" points="8829.5,3222 8729.5,3049 8629.5,3222 "/>
<polygon fill="#F7771E" points="2129.5,3049 2029.5,3222 1929.5,3049 "/>
<polygon fill="#F7771E" points="2229.5,3222 2129.5,3395 2029.5,3222 "/>
<polygon fill="#F7771E" points="2029.5,3222 2129.5,3049 2229.5,3222 "/>
<polygon fill="#F7771E" points="1929.5,3049 1829.5,3222 1729.5,3049 "/>
<polygon fill="#F7771E" points="1829.5,3222 1929.5,3049 2029.5,3222 "/>
<polygon fill="#F7771E" points="2129.5,3395 2229.5,3222 2329.5,3395 "/>
<polygon fill="#F7771E" points="1529.5,3049 1429.5,3222 1329.5,3049 "/>
<polygon fill="#F7771E" points="1729.5,3049 1629.5,3222 1529.5,3049 "/>
<polygon fill="#F7771E" points="1429.5,3222 1529.5,3049 1629.5,3222 "/>
<polygon fill="#F7771E" points="1329.5,3049 1229.5,3222 1129.5,3049 "/>
<polygon fill="#F7771E" points="1229.5,3222 1329.5,3049 1429.5,3222 "/>
<polygon fill="#F7771E" points="1629.5,3222 1729.5,3049 1829.5,3222 "/>
<polygon fill="#F7931E" points="7629.5,2530 7729.5,2357 7829.5,2530 "/>
<polygon fill="#F7931E" points="7729.5,2357 7629.5,2530 7529.5,2357 "/>
<polygon fill="#F7771E" points="8029.5,2530 8129.5,2357 8229.5,2530 "/>
<polygon fill="#F7771E" points="7829.5,2530 7929.5,2357 8029.5,2530 "/>
<polygon fill="#F7771E" points="8129.5,2357 8029.5,2530 7929.5,2357 "/>
<polygon fill="#F7771E" points="8229.5,2530 8329.5,2357 8429.5,2530 "/>
<polygon fill="#F7771E" points="8329.5,2357 8229.5,2530 8129.5,2357 "/>
<polygon fill="#F7771E" points="7929.5,2357 7829.5,2530 7729.5,2357 "/>
<polygon fill="#F7771E" points="8529.5,2703 8629.5,2530 8729.5,2703 "/>
<polygon fill="#F7771E" points="8429.5,2530 8529.5,2357 8629.5,2530 "/>
<polygon fill="#F7771E" points="8629.5,2530 8529.5,2703 8429.5,2530 "/>
<polygon fill="#F7771E" points="8729.5,2703 8829.5,2530 8929.5,2703 "/>
<polygon fill="#F7771E" points="8829.5,2530 8729.5,2703 8629.5,2530 "/>
<polygon fill="#F7771E" points="8529.5,2357 8429.5,2530 8329.5,2357 "/>
<polygon fill="#F7771E" points="9129.5,2703 9229.5,2530 9329.5,2703 "/>
<polygon fill="#F7771E" points="8929.5,2703 9029.5,2530 9129.5,2703 "/>
<polygon fill="#F7771E" points="9229.5,2530 9129.5,2703 9029.5,2530 "/>
<polygon fill="#F7771E" points="9329.5,2703 9429.5,2530 9529.5,2703 "/>
<polygon fill="#F7771E" points="9429.5,2530 9329.5,2703 9229.5,2530 "/>
<polygon fill="#F7771E" points="9029.5,2530 8929.5,2703 8829.5,2530 "/>
<polygon fill="#F7931E" points="2829.5,2530 2729.5,2357 2629.5,2530 "/>
<polygon fill="#F7931E" points="2729.5,2357 2829.5,2530 2929.5,2357 "/>
<polygon fill="#F7771E" points="2429.5,2530 2329.5,2357 2229.5,2530 "/>
<polygon fill="#F7771E" points="2629.5,2530 2529.5,2357 2429.5,2530 "/>
<polygon fill="#F7771E" points="2329.5,2357 2429.5,2530 2529.5,2357 "/>
<polygon fill="#F7771E" points="2229.5,2530 2129.5,2357 2029.5,2530 "/>
<polygon fill="#F7771E" points="2129.5,2357 2229.5,2530 2329.5,2357 "/>
<polygon fill="#F7771E" points="2529.5,2357 2629.5,2530 2729.5,2357 "/>
<polygon fill="#F7771E" points="1929.5,2703 1829.5,2530 1729.5,2703 "/>
<polygon fill="#F7771E" points="2029.5,2530 1929.5,2357 1829.5,2530 "/>
<polygon fill="#F7771E" points="1829.5,2530 1929.5,2703 2029.5,2530 "/>
<polygon fill="#F7771E" points="1729.5,2703 1629.5,2530 1529.5,2703 "/>
<polygon fill="#F7771E" points="1629.5,2530 1729.5,2703 1829.5,2530 "/>
<polygon fill="#F7771E" points="1929.5,2357 2029.5,2530 2129.5,2357 "/>
<polygon fill="#F7771E" points="1329.5,2703 1229.5,2530 1129.5,2703 "/>
<polygon fill="#F7771E" points="1529.5,2703 1429.5,2530 1329.5,2703 "/>
<polygon fill="#F7771E" points="1229.5,2530 1329.5,2703 1429.5,2530 "/>
<polygon fill="#F7771E" points="1129.5,2703 1029.5,2530 929.5,2703 "/>
<polygon fill="#F7771E" points="1029.5,2530 1129.5,2703 1229.5,2530 "/>
<polygon fill="#F7771E" points="1429.5,2530 1529.5,2703 1629.5,2530 "/>
<polygon fill="#F7771E" points="9429.5,2876 9529.5,3049 9629.5,2876 "/>
<polygon fill="#F7771E" points="9529.5,3049 9429.5,2876 9329.5,3049 "/>
<polygon fill="#F7771E" points="9829.5,2876 9929.5,3049 10029.5,2876 "/>
<polygon fill="#F7771E" points="9629.5,2876 9729.5,3049 9829.5,2876 "/>
<polygon fill="#F7771E" points="9929.5,3049 9829.5,2876 9729.5,3049 "/>
<polygon fill="#F7771E" points="9729.5,3049 9629.5,2876 9529.5,3049 "/>
<polygon fill="#F7771E" points="829.5,2876 729.5,3049 629.5,2876 "/>
<polygon fill="#F7771E" points="1029.5,2876 929.5,3049 829.5,2876 "/>
<polygon fill="#F7771E" points="729.5,3049 829.5,2876 929.5,3049 "/>
<polygon fill="#F7771E" points="629.5,2876 529.5,3049 429.5,2876 "/>
<polygon fill="#F7771E" points="529.5,3049 629.5,2876 729.5,3049 "/>
<polygon fill="#F7771E" points="929.5,3049 1029.5,2876 1129.5,3049 "/>
<polygon fill="#F7771E" points="829.5,2876 729.5,2703 629.5,2876 "/>
<polygon fill="#F7771E" points="729.5,2703 829.5,2876 929.5,2703 "/>
<polygon fill="#F7771E" points="629.5,2876 529.5,2703 429.5,2876 "/>
<polygon fill="#F7771E" points="529.5,2703 629.5,2876 729.5,2703 "/>
<polygon fill="#F7771E" points="9629.5,2876 9729.5,2703 9829.5,2876 "/>
<polygon fill="#F7771E" points="9729.5,2703 9629.5,2876 9529.5,2703 "/>
<polygon fill="#F7771E" points="9829.5,2876 9929.5,2703 10029.5,2876 "/>
<polygon fill="#F7771E" points="9929.5,2703 9829.5,2876 9729.5,2703 "/>
<polygon fill="#F7931E" points="3329.5,3049 3229.5,3222 3129.5,3049 "/>
<polygon fill="#F7931E" points="3429.5,3222 3329.5,3395 3229.5,3222 "/>
<polygon fill="#F7931E" points="3229.5,3222 3329.5,3049 3429.5,3222 "/>
<polygon fill="#F7931E" points="3129.5,3049 3029.5,3222 2929.5,3049 "/>
<polygon fill="#F7931E" points="3029.5,3222 3129.5,3049 3229.5,3222 "/>
<polygon fill="#F7931E" points="2729.5,3049 2629.5,3222 2529.5,3049 "/>
<polygon fill="#F7931E" points="2929.5,3049 2829.5,3222 2729.5,3049 "/>
<polygon fill="#F7931E" points="2629.5,3222 2729.5,3049 2829.5,3222 "/>
<polygon fill="#F7931E" points="2529.5,3049 2429.5,3222 2329.5,3049 "/>
<polygon fill="#F7931E" points="2429.5,3222 2529.5,3049 2629.5,3222 "/>
<polygon fill="#F7931E" points="2829.5,3222 2929.5,3049 3029.5,3222 "/>
<polygon fill="#F7931E" points="2229.5,3222 2329.5,3049 2429.5,3222 "/>
<polygon fill="#F7931E" points="2229.5,2876 2129.5,3049 2029.5,2876 "/>
<polygon fill="#F7931E" points="2329.5,3049 2229.5,3222 2129.5,3049 "/>
<polygon fill="#F7931E" points="2129.5,3049 2229.5,2876 2329.5,3049 "/>
<polygon fill="#F7931E" points="2029.5,2876 1929.5,3049 1829.5,2876 "/>
<polygon fill="#F7931E" points="1929.5,3049 2029.5,2876 2129.5,3049 "/>
<polygon fill="#F7931E" points="1629.5,2876 1529.5,3049 1429.5,2876 "/>
<polygon fill="#F7931E" points="1829.5,2876 1729.5,3049 1629.5,2876 "/>
<polygon fill="#F7931E" points="1529.5,3049 1629.5,2876 1729.5,3049 "/>
<polygon fill="#F7931E" points="1429.5,2876 1329.5,3049 1229.5,2876 "/>
<polygon fill="#F7931E" points="1329.5,3049 1429.5,2876 1529.5,3049 "/>
<polygon fill="#F7931E" points="1729.5,3049 1829.5,2876 1929.5,3049 "/>
<polygon fill="#F7931E" points="1129.5,3049 1229.5,2876 1329.5,3049 "/>
<polygon fill="#F7931E" points="7129.5,3049 7229.5,3222 7329.5,3049 "/>
<polygon fill="#F7931E" points="7029.5,3222 7129.5,3395 7229.5,3222 "/>
<polygon fill="#F7931E" points="7229.5,3222 7129.5,3049 7029.5,3222 "/>
<polygon fill="#F7931E" points="7329.5,3049 7429.5,3222 7529.5,3049 "/>
<polygon fill="#F7931E" points="7429.5,3222 7329.5,3049 7229.5,3222 "/>
<polygon fill="#F7931E" points="7729.5,3049 7829.5,3222 7929.5,3049 "/>
<polygon fill="#F7931E" points="7529.5,3049 7629.5,3222 7729.5,3049 "/>
<polygon fill="#F7931E" points="7829.5,3222 7729.5,3049 7629.5,3222 "/>
<polygon fill="#F7931E" points="7929.5,3049 8029.5,3222 8129.5,3049 "/>
<polygon fill="#F7931E" points="8029.5,3222 7929.5,3049 7829.5,3222 "/>
<polygon fill="#F7931E" points="7629.5,3222 7529.5,3049 7429.5,3222 "/>
<polygon fill="#F7931E" points="8229.5,3222 8129.5,3049 8029.5,3222 "/>
<polygon fill="#F7931E" points="8229.5,2876 8329.5,3049 8429.5,2876 "/>
<polygon fill="#F7931E" points="8129.5,3049 8229.5,3222 8329.5,3049 "/>
<polygon fill="#F7931E" points="8329.5,3049 8229.5,2876 8129.5,3049 "/>
<polygon fill="#F7931E" points="8429.5,2876 8529.5,3049 8629.5,2876 "/>
<polygon fill="#F7931E" points="8529.5,3049 8429.5,2876 8329.5,3049 "/>
<polygon fill="#F7931E" points="8829.5,2876 8929.5,3049 9029.5,2876 "/>
<polygon fill="#F7931E" points="8629.5,2876 8729.5,3049 8829.5,2876 "/>
<polygon fill="#F7931E" points="8929.5,3049 8829.5,2876 8729.5,3049 "/>
<polygon fill="#F7931E" points="9029.5,2876 9129.5,3049 9229.5,2876 "/>
<polygon fill="#F7931E" points="9129.5,3049 9029.5,2876 8929.5,3049 "/>
<polygon fill="#F7931E" points="8729.5,3049 8629.5,2876 8529.5,3049 "/>
<polygon fill="#F7931E" points="9329.5,3049 9229.5,2876 9129.5,3049 "/>
<polygon fill="#F7931E" points="9329.5,2703 9429.5,2876 9529.5,2703 "/>
<polygon fill="#F7931E" points="9229.5,2876 9329.5,3049 9429.5,2876 "/>
<polygon fill="#F7931E" points="9429.5,2876 9329.5,2703 9229.5,2876 "/>
<polygon fill="#F7931E" points="9629.5,2876 9529.5,2703 9429.5,2876 "/>
<polygon fill="#F7931E" points="1129.5,2703 1029.5,2876 929.5,2703 "/>
<polygon fill="#F7931E" points="1229.5,2876 1129.5,3049 1029.5,2876 "/>
<polygon fill="#F7931E" points="1029.5,2876 1129.5,2703 1229.5,2876 "/>
<polygon fill="#F7931E" points="829.5,2876 929.5,2703 1029.5,2876 "/>
<polygon fill="#FBB03B" points="3229.5,2876 3129.5,3049 3029.5,2876 "/>
<polygon fill="#FBB03B" points="3129.5,3049 3229.5,2876 3329.5,3049 "/>
<polygon fill="#FBB03B" points="3029.5,2876 2929.5,3049 2829.5,2876 "/>
<polygon fill="#FBB03B" points="2929.5,3049 3029.5,2876 3129.5,3049 "/>
<polygon fill="#FBB03B" points="2629.5,2876 2529.5,3049 2429.5,2876 "/>
<polygon fill="#FBB03B" points="2829.5,2876 2729.5,3049 2629.5,2876 "/>
<polygon fill="#FBB03B" points="2529.5,3049 2629.5,2876 2729.5,3049 "/>
<polygon fill="#FBB03B" points="2429.5,2876 2329.5,3049 2229.5,2876 "/>
<polygon fill="#FBB03B" points="2329.5,3049 2429.5,2876 2529.5,3049 "/>
<polygon fill="#FBB03B" points="2729.5,3049 2829.5,2876 2929.5,3049 "/>
<polygon fill="#FBB03B" points="2129.5,2703 2029.5,2876 1929.5,2703 "/>
<polygon fill="#FBB03B" points="1929.5,2703 1829.5,2876 1729.5,2703 "/>
<polygon fill="#FBB03B" points="1829.5,2876 1929.5,2703 2029.5,2876 "/>
<polygon fill="#FBB03B" points="1529.5,2703 1429.5,2876 1329.5,2703 "/>
<polygon fill="#FBB03B" points="1729.5,2703 1629.5,2876 1529.5,2703 "/>
<polygon fill="#FBB03B" points="1429.5,2876 1529.5,2703 1629.5,2876 "/>
<polygon fill="#FBB03B" points="1329.5,2703 1229.5,2876 1129.5,2703 "/>
<polygon fill="#FBB03B" points="1229.5,2876 1329.5,2703 1429.5,2876 "/>
<polygon fill="#FBB03B" points="1629.5,2876 1729.5,2703 1829.5,2876 "/>
<polygon fill="#FBB03B" points="2829.5,2530 2729.5,2703 2629.5,2530 "/>
<polygon fill="#FBB03B" points="2629.5,2530 2529.5,2703 2429.5,2530 "/>
<polygon fill="#FBB03B" points="2529.5,2703 2629.5,2530 2729.5,2703 "/>
<polygon fill="#FBB03B" points="2229.5,2530 2129.5,2703 2029.5,2530 "/>
<polygon fill="#FBB03B" points="2429.5,2530 2329.5,2703 2229.5,2530 "/>
<polygon fill="#FBB03B" points="2129.5,2703 2229.5,2530 2329.5,2703 "/>
<polygon fill="#FBB03B" points="1929.5,2703 2029.5,2530 2129.5,2703 "/>
<polygon fill="#FBB03B" points="2329.5,2703 2429.5,2530 2529.5,2703 "/>
<polygon fill="#FBB03B" points="2929.5,2703 2829.5,2876 2729.5,2703 "/>
<polygon fill="#FBB03B" points="2729.5,2703 2629.5,2876 2529.5,2703 "/>
<polygon fill="#FBB03B" points="2629.5,2876 2729.5,2703 2829.5,2876 "/>
<polygon fill="#FBB03B" points="2329.5,2703 2229.5,2876 2129.5,2703 "/>
<polygon fill="#FBB03B" points="2529.5,2703 2429.5,2876 2329.5,2703 "/>
<polygon fill="#FBB03B" points="2229.5,2876 2329.5,2703 2429.5,2876 "/>
<polygon fill="#FBB03B" points="2029.5,2876 2129.5,2703 2229.5,2876 "/>
<polygon fill="#FBB03B" points="2429.5,2876 2529.5,2703 2629.5,2876 "/>
<polygon fill="#FBB03B" points="7229.5,2876 7329.5,3049 7429.5,2876 "/>
<polygon fill="#FBB03B" points="7329.5,3049 7229.5,2876 7129.5,3049 "/>
<polygon fill="#FBB03B" points="7429.5,2876 7529.5,3049 7629.5,2876 "/>
<polygon fill="#FBB03B" points="7529.5,3049 7429.5,2876 7329.5,3049 "/>
<polygon fill="#FBB03B" points="7829.5,2876 7929.5,3049 8029.5,2876 "/>
<polygon fill="#FBB03B" points="7629.5,2876 7729.5,3049 7829.5,2876 "/>
<polygon fill="#FBB03B" points="7929.5,3049 7829.5,2876 7729.5,3049 "/>
<polygon fill="#FBB03B" points="8029.5,2876 8129.5,3049 8229.5,2876 "/>
<polygon fill="#FBB03B" points="8129.5,3049 8029.5,2876 7929.5,3049 "/>
<polygon fill="#FBB03B" points="7729.5,3049 7629.5,2876 7529.5,3049 "/>
<polygon fill="#FBB03B" points="8329.5,2703 8429.5,2876 8529.5,2703 "/>
<polygon fill="#FBB03B" points="8529.5,2703 8629.5,2876 8729.5,2703 "/>
<polygon fill="#FBB03B" points="8629.5,2876 8529.5,2703 8429.5,2876 "/>
<polygon fill="#FBB03B" points="8929.5,2703 9029.5,2876 9129.5,2703 "/>
<polygon fill="#FBB03B" points="8729.5,2703 8829.5,2876 8929.5,2703 "/>
<polygon fill="#FBB03B" points="9029.5,2876 8929.5,2703 8829.5,2876 "/>
<polygon fill="#FBB03B" points="9129.5,2703 9229.5,2876 9329.5,2703 "/>
<polygon fill="#FBB03B" points="9229.5,2876 9129.5,2703 9029.5,2876 "/>
<polygon fill="#FBB03B" points="8829.5,2876 8729.5,2703 8629.5,2876 "/>
<polygon fill="#FBB03B" points="7629.5,2530 7729.5,2703 7829.5,2530 "/>
<polygon fill="#FBB03B" points="7829.5,2530 7929.5,2703 8029.5,2530 "/>
<polygon fill="#FBB03B" points="7929.5,2703 7829.5,2530 7729.5,2703 "/>
<polygon fill="#FBB03B" points="8229.5,2530 8329.5,2703 8429.5,2530 "/>
<polygon fill="#FBB03B" points="8029.5,2530 8129.5,2703 8229.5,2530 "/>
<polygon fill="#FBB03B" points="8329.5,2703 8229.5,2530 8129.5,2703 "/>
<polygon fill="#FBB03B" points="8529.5,2703 8429.5,2530 8329.5,2703 "/>
<polygon fill="#FBB03B" points="8129.5,2703 8029.5,2530 7929.5,2703 "/>
<polygon fill="#FBB03B" points="7529.5,2703 7629.5,2876 7729.5,2703 "/>
<polygon fill="#FBB03B" points="7729.5,2703 7829.5,2876 7929.5,2703 "/>
<polygon fill="#FBB03B" points="7829.5,2876 7729.5,2703 7629.5,2876 "/>
<polygon fill="#FBB03B" points="8129.5,2703 8229.5,2876 8329.5,2703 "/>
<polygon fill="#FBB03B" points="7929.5,2703 8029.5,2876 8129.5,2703 "/>
<polygon fill="#FBB03B" points="8229.5,2876 8129.5,2703 8029.5,2876 "/>
<polygon fill="#FBB03B" points="8429.5,2876 8329.5,2703 8229.5,2876 "/>
<polygon fill="#FBB03B" points="8029.5,2876 7929.5,2703 7829.5,2876 "/>
<polygon fill="#E6E6E6" points="7729.5,2703 7629.5,2530 7529.5,2703 "/>
<polygon fill="#FBB03B" points="7629.5,2876 7529.5,2703 7429.5,2876 "/>
<polygon fill="#E6E6E6" points="2729.5,2703 2829.5,2530 2929.5,2703 "/>
<polygon fill="#FBB03B" points="2829.5,2876 2929.5,2703 3029.5,2876 "/>
<polygon fill="#E6E6E6" points="3129.5,2357 3029.5,2530 2929.5,2357 "/>
<polygon fill="#E6E6E6" points="2829.5,2530 2929.5,2357 3029.5,2530 "/>
<polygon fill="#E6E6E6" points="7329.5,2357 7429.5,2530 7529.5,2357 "/>
<polygon fill="#E6E6E6" points="7629.5,2530 7529.5,2357 7429.5,2530 "/>
<polygon fill="#E6E6E6" points="3329.5,2703 3229.5,2876 3129.5,2703 "/>
<polygon fill="#F2F2F2" points="3029.5,2876 3129.5,2703 3229.5,2876 "/>
<polygon fill="#F2F2F2" points="3129.5,2703 3029.5,2876 2929.5,2703 "/>
<polygon fill="#E6E6E6" points="3229.5,2530 3129.5,2703 3029.5,2530 "/>
<polygon fill="#F2F2F2" points="2929.5,2703 3029.5,2530 3129.5,2703 "/>
<polygon fill="#E6E6E6" points="3029.5,2530 2929.5,2703 2829.5,2530 "/>
<polygon fill="#FBB03B" points="3329.5,2357 3229.5,2530 3129.5,2357 "/>
<polygon fill="#FBB03B" points="3029.5,2530 3129.5,2357 3229.5,2530 "/>
<polygon fill="#E6E6A5" points="3429.5,2530 3329.5,2703 3229.5,2530 "/>
<polygon fill="#FBB03B" points="3229.5,2530 3329.5,2357 3429.5,2530 "/>
<polygon fill="#E6E6E6" points="3129.5,2703 3229.5,2530 3329.5,2703 "/>
<polygon fill="#E6E6E6" points="7129.5,2703 7229.5,2876 7329.5,2703 "/>
<polygon fill="#F2F2F2" points="7429.5,2876 7329.5,2703 7229.5,2876 "/>
<polygon fill="#F2F2F2" points="7329.5,2703 7429.5,2876 7529.5,2703 "/>
<polygon fill="#E6E6E6" points="7229.5,2530 7329.5,2703 7429.5,2530 "/>
<polygon fill="#F2F2F2" points="7529.5,2703 7429.5,2530 7329.5,2703 "/>
<polygon fill="#E6E6E6" points="7429.5,2530 7529.5,2703 7629.5,2530 "/>
<polygon fill="#E6E6A5" points="7029.5,2530 7129.5,2703 7229.5,2530 "/>
<polygon fill="#E6E6E6" points="7329.5,2703 7229.5,2530 7129.5,2703 "/>
<polygon fill="#666666" points="3529.5,2011 3429.5,2184 3329.5,2011 "/>
<polygon fill="#666666" points="3329.5,2011 3429.5,1838 3529.5,2011 "/>
<polygon fill="#666666" points="3629.5,1838 3529.5,2011 3429.5,1838 "/>
<polygon fill="#666666" points="3429.5,1838 3529.5,1665 3629.5,1838 "/>
<polygon fill="#666666" points="3729.5,1665 3629.5,1838 3529.5,1665 "/>
<polygon fill="#666666" points="3529.5,1665 3629.5,1492 3729.5,1665 "/>
<polygon fill="#666666" points="3829.5,1492 3729.5,1665 3629.5,1492 "/>
<polygon fill="#666666" points="3629.5,1492 3729.5,1319 3829.5,1492 "/>
<polygon fill="#666666" points="3929.5,1319 3829.5,1492 3729.5,1319 "/>
<polygon fill="#666666" points="3229.5,2184 3329.5,2011 3429.5,2184 "/>
<polygon fill="#666666" points="3229.5,2184 3329.5,2357 3429.5,2184 "/>
<polygon fill="#666666" points="3329.5,2357 3229.5,2184 3129.5,2357 "/>
<polygon fill="#666666" points="3829.5,1492 3929.5,1319 4029.5,1492 "/>
<polygon fill="#666666" points="4129.5,1319 4029.5,1492 3929.5,1319 "/>
<polygon fill="#666666" points="3929.5,1319 4029.5,1146 4129.5,1319 "/>
<polygon fill="#666666" points="4229.5,1146 4129.5,1319 4029.5,1146 "/>
<polygon fill="#666666" points="4029.5,1146 4129.5,973 4229.5,1146 "/>
<polygon fill="#666666" points="4329.5,973 4229.5,1146 4129.5,973 "/>
<polygon fill="#666666" points="4229.5,1146 4329.5,973 4429.5,1146 "/>
<polygon fill="#666666" points="4529.5,973 4429.5,1146 4329.5,973 "/>
<polygon fill="#666666" points="4429.5,1146 4529.5,973 4629.5,1146 "/>
<polygon fill="#666666" points="4729.5,973 4629.5,1146 4529.5,973 "/>
<polygon fill="#666666" points="4529.5,973 4629.5,800 4729.5,973 "/>
<polygon fill="#666666" points="4829.5,800 4729.5,973 4629.5,800 "/>
<polygon fill="#666666" points="4729.5,973 4829.5,800 4929.5,973 "/>
<polygon fill="#666666" points="5029.5,800 4929.5,973 4829.5,800 "/>
<polygon fill="#666666" points="4929.5,973 5029.5,800 5129.5,973 "/>
<polygon fill="#666666" points="5229.5,800 5129.5,973 5029.5,800 "/>
<polygon fill="#666666" points="5129.5,973 5229.5,800 5329.5,973 "/>
<polygon fill="#666666" points="5429.5,800 5329.5,973 5229.5,800 "/>
<polygon fill="#666666" points="5329.5,973 5429.5,800 5529.5,973 "/>
<polygon fill="#666666" points="5629.5,800 5529.5,973 5429.5,800 "/>
<polygon fill="#666666" points="5529.5,973 5629.5,800 5729.5,973 "/>
<polygon fill="#666666" points="5829.5,800 5729.5,973 5629.5,800 "/>
<polygon fill="#666666" points="6429.5,1146 6329.5,973 6229.5,1146 "/>
<polygon fill="#666666" points="6129.5,973 6229.5,1146 6329.5,973 "/>
<polygon fill="#666666" points="6229.5,1146 6129.5,973 6029.5,1146 "/>
<polygon fill="#666666" points="5929.5,973 6029.5,1146 6129.5,973 "/>
<polygon fill="#666666" points="6029.5,1146 5929.5,973 5829.5,1146 "/>
<polygon fill="#666666" points="5729.5,973 5829.5,1146 5929.5,973 "/>
<polygon fill="#666666" points="5929.5,973 5829.5,800 5729.5,973 "/>
<polygon fill="#666666" points="6429.5,1146 6329.5,1319 6229.5,1146 "/>
<polygon fill="#666666" points="6629.5,1492 6529.5,1319 6429.5,1492 "/>
<polygon fill="#666666" points="6329.5,1319 6429.5,1492 6529.5,1319 "/>
<polygon fill="#666666" points="6529.5,1319 6429.5,1146 6329.5,1319 "/>
<polygon fill="#666666" points="6729.5,1319 6629.5,1492 6529.5,1319 "/>
<polygon fill="#666666" points="6929.5,1665 6829.5,1492 6729.5,1665 "/>
<polygon fill="#666666" points="6629.5,1492 6729.5,1665 6829.5,1492 "/>
<polygon fill="#666666" points="6829.5,1492 6729.5,1319 6629.5,1492 "/>
<polygon fill="#666666" points="6929.5,1665 6829.5,1838 6729.5,1665 "/>
<polygon fill="#666666" points="7129.5,2011 7029.5,1838 6929.5,2011 "/>
<polygon fill="#666666" points="6829.5,1838 6929.5,2011 7029.5,1838 "/>
<polygon fill="#666666" points="7029.5,1838 6929.5,1665 6829.5,1838 "/>
<polygon fill="#666666" points="7129.5,2011 7029.5,2184 6929.5,2011 "/>
<polygon fill="#666666" points="7329.5,2357 7229.5,2184 7129.5,2357 "/>
<polygon fill="#666666" points="7029.5,2184 7129.5,2357 7229.5,2184 "/>
<polygon fill="#666666" points="7229.5,2184 7129.5,2011 7029.5,2184 "/>
<polygon fill="#FBB03B" points="7329.5,2357 7229.5,2530 7129.5,2357 "/>
<polygon fill="#FBB03B" points="7029.5,2530 7129.5,2357 7229.5,2530 "/>
<polygon fill="#FBB03B" points="7229.5,2530 7329.5,2357 7429.5,2530 "/>
<polygon fill="#4D4D4D" points="6929.5,4087 6829.5,4260 6729.5,4087 "/>
<polygon fill="#4D4D4D" points="6729.5,4087 6829.5,3914 6929.5,4087 "/>
<polygon fill="#4D4D4D" points="7029.5,3914 6929.5,4087 6829.5,3914 "/>
<polygon fill="#4D4D4D" points="6829.5,3914 6929.5,3741 7029.5,3914 "/>
<polygon fill="#4D4D4D" points="7129.5,3741 7029.5,3914 6929.5,3741 "/>
<polygon fill="#4D4D4D" points="6929.5,3741 7029.5,3568 7129.5,3741 "/>
<polygon fill="#4D4D4D" points="7229.5,3568 7129.5,3741 7029.5,3568 "/>
<polygon fill="#4D4D4D" points="6629.5,4260 6729.5,4087 6829.5,4260 "/>
<polygon fill="#4D4D4D" points="6629.5,4260 6729.5,4433 6829.5,4260 "/>
<polygon fill="#4D4D4D" points="6729.5,4433 6629.5,4260 6529.5,4433 "/>
<polygon fill="#4D4D4D" points="3529.5,4087 3629.5,4260 3729.5,4087 "/>
<polygon fill="#4D4D4D" points="3729.5,4087 3629.5,3914 3529.5,4087 "/>
<polygon fill="#4D4D4D" points="3429.5,3914 3529.5,4087 3629.5,3914 "/>
<polygon fill="#4D4D4D" points="3629.5,3914 3529.5,3741 3429.5,3914 "/>
<polygon fill="#4D4D4D" points="3329.5,3741 3429.5,3914 3529.5,3741 "/>
<polygon fill="#4D4D4D" points="3529.5,3741 3429.5,3568 3329.5,3741 "/>
<polygon fill="#4D4D4D" points="3229.5,3568 3329.5,3741 3429.5,3568 "/>
<polygon fill="#4D4D4D" points="3829.5,4260 3729.5,4087 3629.5,4260 "/>
<polygon fill="#4D4D4D" points="3829.5,4260 3729.5,4433 3629.5,4260 "/>
<polygon fill="#4D4D4D" points="3729.5,4433 3829.5,4260 3929.5,4433 "/>
<polygon fill="#4D4D4D" points="6529.5,4433 6429.5,4606 6329.5,4433 "/>
<polygon fill="#4D4D4D" points="6329.5,4433 6429.5,4260 6529.5,4433 "/>
<polygon fill="#4D4D4D" points="6629.5,4260 6529.5,4433 6429.5,4260 "/>
<polygon fill="#4D4D4D" points="6229.5,4606 6329.5,4433 6429.5,4606 "/>
<polygon fill="#4D4D4D" points="6229.5,4606 6329.5,4779 6429.5,4606 "/>
<polygon fill="#4D4D4D" points="6329.5,4779 6229.5,4606 6129.5,4779 "/>
<polygon fill="#4D4D4D" points="6029.5,4606 6129.5,4779 6229.5,4606 "/>
<polygon fill="#4D4D4D" points="6129.5,4779 6029.5,4606 5929.5,4779 "/>
<polygon fill="#4D4D4D" points="5729.5,4779 5829.5,4606 5929.5,4779 "/>
<polygon fill="#4D4D4D" points="6029.5,4606 5929.5,4779 5829.5,4606 "/>
<polygon fill="#4D4D4D" points="5729.5,4779 5829.5,4952 5929.5,4779 "/>
<polygon fill="#4D4D4D" points="5829.5,4952 5729.5,4779 5629.5,4952 "/>
<polygon fill="#4D4D4D" points="5429.5,4952 5529.5,4779 5629.5,4952 "/>
<polygon fill="#4D4D4D" points="5729.5,4779 5629.5,4952 5529.5,4779 "/>
<polygon fill="#4D4D4D" points="5329.5,4779 5429.5,4952 5529.5,4779 "/>
<polygon fill="#4D4D4D" points="5429.5,4952 5329.5,4779 5229.5,4952 "/>
<polygon fill="#4D4D4D" points="5029.5,4952 5129.5,4779 5229.5,4952 "/>
<polygon fill="#4D4D4D" points="5329.5,4779 5229.5,4952 5129.5,4779 "/>
<polygon fill="#4D4D4D" points="4429.5,4606 4529.5,4779 4629.5,4606 "/>
<polygon fill="#4D4D4D" points="4529.5,4779 4429.5,4606 4329.5,4779 "/>
<polygon fill="#4D4D4D" points="4129.5,4779 4229.5,4606 4329.5,4779 "/>
<polygon fill="#4D4D4D" points="4429.5,4606 4329.5,4779 4229.5,4606 "/>
<polygon fill="#4D4D4D" points="3929.5,4433 4029.5,4606 4129.5,4433 "/>
<polygon fill="#4D4D4D" points="4129.5,4433 4029.5,4260 3929.5,4433 "/>
<polygon fill="#4D4D4D" points="3829.5,4260 3929.5,4433 4029.5,4260 "/>
<polygon fill="#4D4D4D" points="4229.5,4606 4129.5,4433 4029.5,4606 "/>
<polygon fill="#4D4D4D" points="4229.5,4606 4129.5,4779 4029.5,4606 "/>
<polygon fill="#4D4D4D" points="4929.5,4779 5029.5,4952 5129.5,4779 "/>
<polygon fill="#4D4D4D" points="5029.5,4952 4929.5,4779 4829.5,4952 "/>
<polygon fill="#4D4D4D" points="4629.5,4952 4729.5,4779 4829.5,4952 "/>
<polygon fill="#4D4D4D" points="4929.5,4779 4829.5,4952 4729.5,4779 "/>
<polygon fill="#4D4D4D" points="4729.5,4779 4629.5,4606 4529.5,4779 "/>
<polygon fill="#4D4D4D" points="4729.5,4779 4629.5,4952 4529.5,4779 "/>
<polygon fill="#4D4D4D" points="3029.5,3568 3129.5,3741 3229.5,3568 "/>
<polygon fill="#4D4D4D" points="3229.5,3568 3129.5,3395 3029.5,3568 "/>
<polygon fill="#4D4D4D" points="2929.5,3395 3029.5,3568 3129.5,3395 "/>
<polygon fill="#4D4D4D" points="3329.5,3741 3229.5,3568 3129.5,3741 "/>
<polygon fill="#4D4D4D" points="7429.5,3568 7329.5,3741 7229.5,3568 "/>
<polygon fill="#4D4D4D" points="7229.5,3568 7329.5,3395 7429.5,3568 "/>
<polygon fill="#4D4D4D" points="7529.5,3395 7429.5,3568 7329.5,3395 "/>
<polygon fill="#4D4D4D" points="7129.5,3741 7229.5,3568 7329.5,3741 "/>
<polygon fill="#333333" points="3429.5,4260 3529.5,4433 3629.5,4260 "/>
<polygon fill="#333333" points="3629.5,4260 3529.5,4087 3429.5,4260 "/>
<polygon fill="#333333" points="3329.5,4087 3429.5,4260 3529.5,4087 "/>
<polygon fill="#333333" points="3529.5,4087 3429.5,3914 3329.5,4087 "/>
<polygon fill="#333333" points="3229.5,3914 3329.5,4087 3429.5,3914 "/>
<polygon fill="#333333" points="3429.5,3914 3329.5,3741 3229.5,3914 "/>
<polygon fill="#333333" points="3129.5,3741 3229.5,3914 3329.5,3741 "/>
<polygon fill="#333333" points="3729.5,4433 3629.5,4260 3529.5,4433 "/>
<polygon fill="#333333" points="3729.5,4433 3629.5,4606 3529.5,4433 "/>
<polygon fill="#333333" points="3629.5,4606 3729.5,4433 3829.5,4606 "/>
<polygon fill="#333333" points="2929.5,3741 3029.5,3914 3129.5,3741 "/>
<polygon fill="#333333" points="3129.5,3741 3029.5,3568 2929.5,3741 "/>
<polygon fill="#333333" points="2829.5,3568 2929.5,3741 3029.5,3568 "/>
<polygon fill="#333333" points="3229.5,3914 3129.5,3741 3029.5,3914 "/>
<polygon fill="#333333" points="7029.5,4260 6929.5,4433 6829.5,4260 "/>
<polygon fill="#333333" points="6829.5,4260 6929.5,4087 7029.5,4260 "/>
<polygon fill="#333333" points="7129.5,4087 7029.5,4260 6929.5,4087 "/>
<polygon fill="#333333" points="6929.5,4087 7029.5,3914 7129.5,4087 "/>
<polygon fill="#333333" points="7229.5,3914 7129.5,4087 7029.5,3914 "/>
<polygon fill="#333333" points="7029.5,3914 7129.5,3741 7229.5,3914 "/>
<polygon fill="#333333" points="7329.5,3741 7229.5,3914 7129.5,3741 "/>
<polygon fill="#333333" points="6729.5,4433 6829.5,4260 6929.5,4433 "/>
<polygon fill="#333333" points="6729.5,4433 6829.5,4606 6929.5,4433 "/>
<polygon fill="#333333" points="6829.5,4606 6729.5,4433 6629.5,4606 "/>
<polygon fill="#333333" points="7529.5,3741 7429.5,3914 7329.5,3741 "/>
<polygon fill="#333333" points="7329.5,3741 7429.5,3568 7529.5,3741 "/>
<polygon fill="#333333" points="7629.5,3568 7529.5,3741 7429.5,3568 "/>
<polygon fill="#333333" points="7229.5,3914 7329.5,3741 7429.5,3914 "/>
<polygon fill="#333333" points="7429.5,3568 7529.5,3395 7629.5,3568 "/>
<polygon fill="#333333" points="7729.5,3395 7629.5,3568 7529.5,3395 "/>
<polygon fill="#333333" points="6729.5,4433 6629.5,4606 6529.5,4433 "/>
<polygon fill="#333333" points="6429.5,4606 6529.5,4433 6629.5,4606 "/>
<polygon fill="#333333" points="6429.5,4606 6529.5,4779 6629.5,4606 "/>
<polygon fill="#333333" points="6529.5,4779 6429.5,4606 6329.5,4779 "/>
<polygon fill="#333333" points="3029.5,3568 2929.5,3395 2829.5,3568 "/>
<polygon fill="#333333" points="2729.5,3395 2829.5,3568 2929.5,3395 "/>
<polygon fill="#333333" points="3829.5,4606 3929.5,4779 4029.5,4606 "/>
<polygon fill="#333333" points="4029.5,4606 3929.5,4433 3829.5,4606 "/>
<polygon fill="#333333" points="3729.5,4433 3829.5,4606 3929.5,4433 "/>
<polygon fill="#333333" points="4129.5,4779 4029.5,4606 3929.5,4779 "/>
<polygon fill="#333333" points="4129.5,4779 4029.5,4952 3929.5,4779 "/>
<polygon fill="#333333" points="4029.5,4952 4129.5,4779 4229.5,4952 "/>
<polygon fill="#333333" points="4329.5,4779 4229.5,4952 4129.5,4779 "/>
<polygon fill="#333333" points="4229.5,4952 4329.5,4779 4429.5,4952 "/>
<polygon fill="#333333" points="4429.5,4952 4529.5,5125 4629.5,4952 "/>
<polygon fill="#333333" points="4629.5,4952 4529.5,4779 4429.5,4952 "/>
<polygon fill="#333333" points="4329.5,4779 4429.5,4952 4529.5,4779 "/>
<polygon fill="#333333" points="4729.5,5125 4629.5,4952 4529.5,5125 "/>
<polygon fill="#333333" points="6329.5,4779 6429.5,4952 6529.5,4779 "/>
<polygon fill="#333333" points="6429.5,4952 6329.5,4779 6229.5,4952 "/>
<polygon fill="#333333" points="6129.5,4779 6229.5,4952 6329.5,4779 "/>
<polygon fill="#333333" points="6229.5,4952 6129.5,4779 6029.5,4952 "/>
<polygon fill="#333333" points="6029.5,4952 5929.5,5125 5829.5,4952 "/>
<polygon fill="#333333" points="5829.5,4952 5929.5,4779 6029.5,4952 "/>
<polygon fill="#333333" points="6129.5,4779 6029.5,4952 5929.5,4779 "/>
<polygon fill="#333333" points="5729.5,5125 5829.5,4952 5929.5,5125 "/>
<polygon fill="#333333" points="5829.5,4952 5729.5,5125 5629.5,4952 "/>
<polygon fill="#333333" points="5529.5,5125 5629.5,4952 5729.5,5125 "/>
<polygon fill="#333333" points="4629.5,4952 4729.5,5125 4829.5,4952 "/>
<polygon fill="#333333" points="4929.5,5125 4829.5,4952 4729.5,5125 "/>
<polygon fill="#333333" points="4829.5,4952 4929.5,5125 5029.5,4952 "/>
<polygon fill="#333333" points="5129.5,5125 5029.5,4952 4929.5,5125 "/>
<polygon fill="#333333" points="5029.5,4952 5129.5,5125 5229.5,4952 "/>
<polygon fill="#333333" points="5329.5,5125 5229.5,4952 5129.5,5125 "/>
<polygon fill="#333333" points="5229.5,4952 5329.5,5125 5429.5,4952 "/>
<polygon fill="#333333" points="5529.5,5125 5429.5,4952 5329.5,5125 "/>
<polygon fill="#333333" points="5429.5,4952 5529.5,5125 5629.5,4952 "/>
<polygon fill="#1A1A1A" points="2729.5,3741 2829.5,3914 2929.5,3741 "/>
<polygon fill="#1A1A1A" points="2929.5,3741 2829.5,3568 2729.5,3741 "/>
<polygon fill="#1A1A1A" points="2629.5,3568 2729.5,3741 2829.5,3568 "/>
<polygon fill="#1A1A1A" points="3029.5,3914 2929.5,3741 2829.5,3914 "/>
<polygon fill="#1A1A1A" points="2829.5,3568 2729.5,3395 2629.5,3568 "/>
<polygon fill="#1A1A1A" points="2529.5,3395 2629.5,3568 2729.5,3395 "/>
<polygon fill="#1A1A1A" points="3229.5,4260 3329.5,4433 3429.5,4260 "/>
<polygon fill="#1A1A1A" points="3429.5,4260 3329.5,4087 3229.5,4260 "/>
<polygon fill="#1A1A1A" points="3129.5,4087 3229.5,4260 3329.5,4087 "/>
<polygon fill="#1A1A1A" points="3529.5,4433 3429.5,4260 3329.5,4433 "/>
<polygon fill="#1A1A1A" points="3329.5,4087 3229.5,3914 3129.5,4087 "/>
<polygon fill="#1A1A1A" points="3029.5,3914 3129.5,4087 3229.5,3914 "/>
<polygon fill="#1A1A1A" points="3829.5,4952 3929.5,5125 4029.5,4952 "/>
<polygon fill="#1A1A1A" points="4029.5,4952 3929.5,4779 3829.5,4952 "/>
<polygon fill="#1A1A1A" points="3729.5,4779 3829.5,4952 3929.5,4779 "/>
<polygon fill="#1A1A1A" points="4129.5,5125 4029.5,4952 3929.5,5125 "/>
<polygon fill="#1A1A1A" points="3929.5,4779 3829.5,4606 3729.5,4779 "/>
<polygon fill="#1A1A1A" points="3629.5,4606 3729.5,4779 3829.5,4606 "/>
<polygon fill="#1A1A1A" points="3129.5,4087 3029.5,3914 2929.5,4087 "/>
<polygon fill="#1A1A1A" points="2829.5,3914 2929.5,4087 3029.5,3914 "/>
<polygon fill="#1A1A1A" points="3429.5,4606 3529.5,4779 3629.5,4606 "/>
<polygon fill="#1A1A1A" points="3629.5,4606 3529.5,4433 3429.5,4606 "/>
<polygon fill="#1A1A1A" points="3329.5,4433 3429.5,4606 3529.5,4433 "/>
<polygon fill="#1A1A1A" points="3729.5,4779 3629.5,4606 3529.5,4779 "/>
<polygon fill="#1A1A1A" points="4529.5,5125 4429.5,4952 4329.5,5125 "/>
<polygon fill="#1A1A1A" points="4229.5,4952 4329.5,5125 4429.5,4952 "/>
<polygon fill="#1A1A1A" points="4029.5,4952 4129.5,5125 4229.5,4952 "/>
<polygon fill="#1A1A1A" points="4329.5,5125 4229.5,4952 4129.5,5125 "/>
<polygon fill="#1A1A1A" points="4329.5,5125 4429.5,5298 4529.5,5125 "/>
<polygon fill="#1A1A1A" points="4629.5,5298 4529.5,5125 4429.5,5298 "/>
<polygon fill="#1A1A1A" points="5029.5,5298 4929.5,5125 4829.5,5298 "/>
<polygon fill="#1A1A1A" points="4729.5,5125 4829.5,5298 4929.5,5125 "/>
<polygon fill="#1A1A1A" points="4529.5,5125 4629.5,5298 4729.5,5125 "/>
<polygon fill="#1A1A1A" points="4829.5,5298 4729.5,5125 4629.5,5298 "/>
<polygon fill="#1A1A1A" points="4929.5,5125 5029.5,5298 5129.5,5125 "/>
<polygon fill="#1A1A1A" points="5229.5,5298 5129.5,5125 5029.5,5298 "/>
<polygon fill="#1A1A1A" points="5629.5,5298 5529.5,5125 5429.5,5298 "/>
<polygon fill="#1A1A1A" points="5329.5,5125 5429.5,5298 5529.5,5125 "/>
<polygon fill="#1A1A1A" points="5129.5,5125 5229.5,5298 5329.5,5125 "/>
<polygon fill="#1A1A1A" points="5429.5,5298 5329.5,5125 5229.5,5298 "/>
<polygon fill="#1A1A1A" points="5529.5,5125 5629.5,5298 5729.5,5125 "/>
<polygon fill="#1A1A1A" points="5829.5,5298 5729.5,5125 5629.5,5298 "/>
<polygon fill="#1A1A1A" points="6129.5,5125 6029.5,4952 5929.5,5125 "/>
<polygon fill="#1A1A1A" points="5929.5,5125 6029.5,5298 6129.5,5125 "/>
<polygon fill="#1A1A1A" points="5729.5,5125 5829.5,5298 5929.5,5125 "/>
<polygon fill="#1A1A1A" points="6029.5,5298 5929.5,5125 5829.5,5298 "/>
<polygon fill="#1A1A1A" points="6029.5,4952 6129.5,5125 6229.5,4952 "/>
<polygon fill="#1A1A1A" points="6329.5,5125 6229.5,4952 6129.5,5125 "/>
<polygon fill="#1A1A1A" points="6629.5,4952 6529.5,4779 6429.5,4952 "/>
<polygon fill="#1A1A1A" points="6429.5,4952 6529.5,5125 6629.5,4952 "/>
<polygon fill="#1A1A1A" points="6229.5,4952 6329.5,5125 6429.5,4952 "/>
<polygon fill="#1A1A1A" points="6529.5,5125 6429.5,4952 6329.5,5125 "/>
<polygon fill="#1A1A1A" points="7029.5,4606 6929.5,4433 6829.5,4606 "/>
<polygon fill="#1A1A1A" points="6829.5,4606 6929.5,4779 7029.5,4606 "/>
<polygon fill="#1A1A1A" points="6629.5,4606 6729.5,4779 6829.5,4606 "/>
<polygon fill="#1A1A1A" points="6929.5,4779 6829.5,4606 6729.5,4779 "/>
<polygon fill="#1A1A1A" points="6729.5,4779 6629.5,4606 6529.5,4779 "/>
<polygon fill="#1A1A1A" points="6529.5,4779 6629.5,4952 6729.5,4779 "/>
<polygon fill="#1A1A1A" points="7129.5,4433 7029.5,4260 6929.5,4433 "/>
<polygon fill="#1A1A1A" points="6929.5,4433 7029.5,4606 7129.5,4433 "/>
<polygon fill="#1A1A1A" points="7129.5,4087 7229.5,4260 7329.5,4087 "/>
<polygon fill="#1A1A1A" points="7229.5,4260 7129.5,4087 7029.5,4260 "/>
<polygon fill="#1A1A1A" points="7029.5,4260 7129.5,4433 7229.5,4260 "/>
<polygon fill="#1A1A1A" points="7229.5,3914 7329.5,4087 7429.5,3914 "/>
<polygon fill="#1A1A1A" points="7329.5,4087 7229.5,3914 7129.5,4087 "/>
<polygon fill="#1A1A1A" points="7629.5,3914 7529.5,3741 7429.5,3914 "/>
<polygon fill="#1A1A1A" points="7429.5,3914 7529.5,4087 7629.5,3914 "/>
<polygon fill="#1A1A1A" points="7529.5,4087 7429.5,3914 7329.5,4087 "/>
<polygon fill="#1A1A1A" points="7729.5,3741 7629.5,3568 7529.5,3741 "/>
<polygon fill="#1A1A1A" points="7529.5,3741 7629.5,3914 7729.5,3741 "/>
<polygon fill="#1A1A1A" points="7729.5,3395 7829.5,3568 7929.5,3395 "/>
<polygon fill="#1A1A1A" points="7829.5,3568 7729.5,3395 7629.5,3568 "/>
<polygon fill="#1A1A1A" points="7629.5,3568 7729.5,3741 7829.5,3568 "/>
<polygon fill="#1A1A1A" points="3129.5,2011 3029.5,2184 2929.5,2011 "/>
<polygon fill="#1A1A1A" points="2929.5,2011 3029.5,1838 3129.5,2011 "/>
<polygon fill="#1A1A1A" points="3229.5,1838 3129.5,2011 3029.5,1838 "/>
<polygon fill="#1A1A1A" points="3029.5,1838 3129.5,1665 3229.5,1838 "/>
<polygon fill="#1A1A1A" points="3329.5,1665 3229.5,1838 3129.5,1665 "/>
<polygon fill="#1A1A1A" points="3129.5,1665 3229.5,1492 3329.5,1665 "/>
<polygon fill="#1A1A1A" points="3429.5,1492 3329.5,1665 3229.5,1492 "/>
<polygon fill="#1A1A1A" points="3229.5,1492 3329.5,1319 3429.5,1492 "/>
<polygon fill="#1A1A1A" points="3529.5,1319 3429.5,1492 3329.5,1319 "/>
<polygon fill="#1A1A1A" points="2829.5,2184 2929.5,2011 3029.5,2184 "/>
<polygon fill="#1A1A1A" points="2829.5,2184 2929.5,2357 3029.5,2184 "/>
<polygon fill="#1A1A1A" points="2929.5,2357 2829.5,2184 2729.5,2357 "/>
<polygon fill="#1A1A1A" points="7329.5,2011 7429.5,2184 7529.5,2011 "/>
<polygon fill="#1A1A1A" points="7529.5,2011 7429.5,1838 7329.5,2011 "/>
<polygon fill="#1A1A1A" points="7229.5,1838 7329.5,2011 7429.5,1838 "/>
<polygon fill="#1A1A1A" points="7429.5,1838 7329.5,1665 7229.5,1838 "/>
<polygon fill="#1A1A1A" points="7129.5,1665 7229.5,1838 7329.5,1665 "/>
<polygon fill="#1A1A1A" points="7329.5,1665 7229.5,1492 7129.5,1665 "/>
<polygon fill="#1A1A1A" points="7029.5,1492 7129.5,1665 7229.5,1492 "/>
<polygon fill="#1A1A1A" points="7229.5,1492 7129.5,1319 7029.5,1492 "/>
<polygon fill="#1A1A1A" points="6929.5,1319 7029.5,1492 7129.5,1319 "/>
<polygon fill="#1A1A1A" points="7629.5,2184 7529.5,2011 7429.5,2184 "/>
<polygon fill="#1A1A1A" points="7629.5,2184 7529.5,2357 7429.5,2184 "/>
<polygon fill="#1A1A1A" points="7529.5,2357 7629.5,2184 7729.5,2357 "/>
<polygon fill="#1A1A1A" points="6929.5,1319 6829.5,1146 6729.5,1319 "/>
<polygon fill="#1A1A1A" points="6629.5,1146 6729.5,1319 6829.5,1146 "/>
<polygon fill="#1A1A1A" points="6829.5,1146 6729.5,973 6629.5,1146 "/>
<polygon fill="#1A1A1A" points="6529.5,973 6629.5,1146 6729.5,973 "/>
<polygon fill="#1A1A1A" points="6729.5,973 6629.5,800 6529.5,973 "/>
<polygon fill="#1A1A1A" points="6429.5,800 6529.5,973 6629.5,800 "/>
<polygon fill="#1A1A1A" points="6529.5,973 6429.5,800 6329.5,973 "/>
<polygon fill="#1A1A1A" points="6229.5,800 6329.5,973 6429.5,800 "/>
<polygon fill="#1A1A1A" points="6429.5,800 6329.5,627 6229.5,800 "/>
<polygon fill="#1A1A1A" points="6129.5,627 6229.5,800 6329.5,627 "/>
<polygon fill="#1A1A1A" points="6029.5,800 5929.5,627 5829.5,800 "/>
<polygon fill="#1A1A1A" points="5729.5,627 5829.5,800 5929.5,627 "/>
<polygon fill="#1A1A1A" points="5929.5,627 5829.5,454 5729.5,627 "/>
<polygon fill="#1A1A1A" points="5629.5,454 5729.5,627 5829.5,454 "/>
<polygon fill="#1A1A1A" points="6229.5,800 6129.5,627 6029.5,800 "/>
<polygon fill="#1A1A1A" points="5929.5,627 6029.5,800 6129.5,627 "/>
<polygon fill="#1A1A1A" points="7129.5,1319 7029.5,1146 6929.5,1319 "/>
<polygon fill="#1A1A1A" points="6829.5,1146 6929.5,1319 7029.5,1146 "/>
<polygon fill="#1A1A1A" points="3529.5,1319 3629.5,1146 3729.5,1319 "/>
<polygon fill="#1A1A1A" points="3829.5,1146 3729.5,1319 3629.5,1146 "/>
<polygon fill="#1A1A1A" points="3629.5,1146 3729.5,973 3829.5,1146 "/>
<polygon fill="#1A1A1A" points="3729.5,973 3829.5,800 3929.5,973 "/>
<polygon fill="#1A1A1A" points="4029.5,800 3929.5,973 3829.5,800 "/>
<polygon fill="#1A1A1A" points="3929.5,973 4029.5,800 4129.5,973 "/>
<polygon fill="#1A1A1A" points="4229.5,800 4129.5,973 4029.5,800 "/>
<polygon fill="#1A1A1A" points="4029.5,800 4129.5,627 4229.5,800 "/>
<polygon fill="#1A1A1A" points="4329.5,627 4229.5,800 4129.5,627 "/>
<polygon fill="#1A1A1A" points="4429.5,800 4529.5,627 4629.5,800 "/>
<polygon fill="#1A1A1A" points="4729.5,627 4629.5,800 4529.5,627 "/>
<polygon fill="#1A1A1A" points="4529.5,627 4629.5,454 4729.5,627 "/>
<polygon fill="#1A1A1A" points="4829.5,454 4729.5,627 4629.5,454 "/>
<polygon fill="#1A1A1A" points="4229.5,800 4329.5,627 4429.5,800 "/>
<polygon fill="#1A1A1A" points="4529.5,627 4429.5,800 4329.5,627 "/>
<polygon fill="#1A1A1A" points="3329.5,1319 3429.5,1146 3529.5,1319 "/>
<polygon fill="#1A1A1A" points="3629.5,1146 3529.5,1319 3429.5,1146 "/>
<polygon fill="#1A1A1A" points="3929.5,973 3829.5,1146 3729.5,973 "/>
<polygon fill="#1A1A1A" points="4729.5,627 4829.5,454 4929.5,627 "/>
<polygon fill="#1A1A1A" points="5029.5,454 4929.5,627 4829.5,454 "/>
<polygon fill="#1A1A1A" points="5129.5,627 5229.5,454 5329.5,627 "/>
<polygon fill="#1A1A1A" points="5429.5,454 5329.5,627 5229.5,454 "/>
<polygon fill="#1A1A1A" points="4929.5,627 5029.5,454 5129.5,627 "/>
<polygon fill="#1A1A1A" points="5229.5,454 5129.5,627 5029.5,454 "/>
<polygon fill="#1A1A1A" points="5529.5,627 5629.5,454 5729.5,627 "/>
<polygon fill="#1A1A1A" points="5329.5,627 5429.5,454 5529.5,627 "/>
<polygon fill="#1A1A1A" points="5629.5,454 5529.5,627 5429.5,454 "/>
</svg>
